<?xml version="1.0" encoding="utf-8" standalone="no"?>
<!DOCTYPE svg PUBLIC "-//W3C//DTD SVG 1.1//EN"
  "http://www.w3.org/Graphics/SVG/1.1/DTD/svg11.dtd">
<!-- Created with matplotlib (https://matplotlib.org/) -->
<svg height="296.081325pt" version="1.1" viewBox="0 0 416.081237 296.081325" width="416.081237pt" xmlns="http://www.w3.org/2000/svg" xmlns:xlink="http://www.w3.org/1999/xlink">
 <defs>
  <style type="text/css">
*{stroke-linecap:butt;stroke-linejoin:round;}
  </style>
 </defs>
 <g id="figure_1">
  <g id="patch_1">
   <path d="M 0 296.081325 
L 416.081237 296.081325 
L 416.081237 0 
L 0 0 
z
" style="fill:#ffffff;"/>
  </g>
  <g id="axes_1">
   <g id="patch_2">
    <path d="M 41.425 272.2032 
L 398.545 272.2032 
L 398.545 7.2 
L 41.425 7.2 
z
" style="fill:#ffffff;"/>
   </g>
   <g id="matplotlib.axis_1">
    <g id="xtick_1">
     <g id="line2d_1">
      <path clip-path="url(#p36ee0222c7)" d="M 109.504732 272.2032 
L 109.504732 7.2 
" style="fill:none;stroke:#b0b0b0;stroke-linecap:square;stroke-width:0.8;"/>
     </g>
     <g id="line2d_2">
      <defs>
       <path d="M 0 0 
L 0 3.5 
" id="m31c760ae84" style="stroke:#000000;stroke-width:0.8;"/>
      </defs>
      <g>
       <use style="stroke:#000000;stroke-width:0.8;" x="109.504732" xlink:href="#m31c760ae84" y="272.2032"/>
      </g>
     </g>
     <g id="text_1">
      <!-- 1999 -->
      <defs>
       <path d="M 12.40625 8.296875 
L 28.515625 8.296875 
L 28.515625 63.921875 
L 10.984375 60.40625 
L 10.984375 69.390625 
L 28.421875 72.90625 
L 38.28125 72.90625 
L 38.28125 8.296875 
L 54.390625 8.296875 
L 54.390625 0 
L 12.40625 0 
z
" id="DejaVuSans-49"/>
       <path d="M 10.984375 1.515625 
L 10.984375 10.5 
Q 14.703125 8.734375 18.5 7.8125 
Q 22.3125 6.890625 25.984375 6.890625 
Q 35.75 6.890625 40.890625 13.453125 
Q 46.046875 20.015625 46.78125 33.40625 
Q 43.953125 29.203125 39.59375 26.953125 
Q 35.25 24.703125 29.984375 24.703125 
Q 19.046875 24.703125 12.671875 31.3125 
Q 6.296875 37.9375 6.296875 49.421875 
Q 6.296875 60.640625 12.9375 67.421875 
Q 19.578125 74.21875 30.609375 74.21875 
Q 43.265625 74.21875 49.921875 64.515625 
Q 56.59375 54.828125 56.59375 36.375 
Q 56.59375 19.140625 48.40625 8.859375 
Q 40.234375 -1.421875 26.421875 -1.421875 
Q 22.703125 -1.421875 18.890625 -0.6875 
Q 15.09375 0.046875 10.984375 1.515625 
z
M 30.609375 32.421875 
Q 37.25 32.421875 41.125 36.953125 
Q 45.015625 41.5 45.015625 49.421875 
Q 45.015625 57.28125 41.125 61.84375 
Q 37.25 66.40625 30.609375 66.40625 
Q 23.96875 66.40625 20.09375 61.84375 
Q 16.21875 57.28125 16.21875 49.421875 
Q 16.21875 41.5 20.09375 36.953125 
Q 23.96875 32.421875 30.609375 32.421875 
z
" id="DejaVuSans-57"/>
      </defs>
      <g transform="translate(96.779732 286.801638)scale(0.1 -0.1)">
       <use xlink:href="#DejaVuSans-49"/>
       <use x="63.623047" xlink:href="#DejaVuSans-57"/>
       <use x="127.246094" xlink:href="#DejaVuSans-57"/>
       <use x="190.869141" xlink:href="#DejaVuSans-57"/>
      </g>
     </g>
    </g>
    <g id="xtick_2">
     <g id="line2d_3">
      <path clip-path="url(#p36ee0222c7)" d="M 181.167609 272.2032 
L 181.167609 7.2 
" style="fill:none;stroke:#b0b0b0;stroke-linecap:square;stroke-width:0.8;"/>
     </g>
     <g id="line2d_4">
      <g>
       <use style="stroke:#000000;stroke-width:0.8;" x="181.167609" xlink:href="#m31c760ae84" y="272.2032"/>
      </g>
     </g>
     <g id="text_2">
      <!-- 2004 -->
      <defs>
       <path d="M 19.1875 8.296875 
L 53.609375 8.296875 
L 53.609375 0 
L 7.328125 0 
L 7.328125 8.296875 
Q 12.9375 14.109375 22.625 23.890625 
Q 32.328125 33.6875 34.8125 36.53125 
Q 39.546875 41.84375 41.421875 45.53125 
Q 43.3125 49.21875 43.3125 52.78125 
Q 43.3125 58.59375 39.234375 62.25 
Q 35.15625 65.921875 28.609375 65.921875 
Q 23.96875 65.921875 18.8125 64.3125 
Q 13.671875 62.703125 7.8125 59.421875 
L 7.8125 69.390625 
Q 13.765625 71.78125 18.9375 73 
Q 24.125 74.21875 28.421875 74.21875 
Q 39.75 74.21875 46.484375 68.546875 
Q 53.21875 62.890625 53.21875 53.421875 
Q 53.21875 48.921875 51.53125 44.890625 
Q 49.859375 40.875 45.40625 35.40625 
Q 44.1875 33.984375 37.640625 27.21875 
Q 31.109375 20.453125 19.1875 8.296875 
z
" id="DejaVuSans-50"/>
       <path d="M 31.78125 66.40625 
Q 24.171875 66.40625 20.328125 58.90625 
Q 16.5 51.421875 16.5 36.375 
Q 16.5 21.390625 20.328125 13.890625 
Q 24.171875 6.390625 31.78125 6.390625 
Q 39.453125 6.390625 43.28125 13.890625 
Q 47.125 21.390625 47.125 36.375 
Q 47.125 51.421875 43.28125 58.90625 
Q 39.453125 66.40625 31.78125 66.40625 
z
M 31.78125 74.21875 
Q 44.046875 74.21875 50.515625 64.515625 
Q 56.984375 54.828125 56.984375 36.375 
Q 56.984375 17.96875 50.515625 8.265625 
Q 44.046875 -1.421875 31.78125 -1.421875 
Q 19.53125 -1.421875 13.0625 8.265625 
Q 6.59375 17.96875 6.59375 36.375 
Q 6.59375 54.828125 13.0625 64.515625 
Q 19.53125 74.21875 31.78125 74.21875 
z
" id="DejaVuSans-48"/>
       <path d="M 37.796875 64.3125 
L 12.890625 25.390625 
L 37.796875 25.390625 
z
M 35.203125 72.90625 
L 47.609375 72.90625 
L 47.609375 25.390625 
L 58.015625 25.390625 
L 58.015625 17.1875 
L 47.609375 17.1875 
L 47.609375 0 
L 37.796875 0 
L 37.796875 17.1875 
L 4.890625 17.1875 
L 4.890625 26.703125 
z
" id="DejaVuSans-52"/>
      </defs>
      <g transform="translate(168.442609 286.801638)scale(0.1 -0.1)">
       <use xlink:href="#DejaVuSans-50"/>
       <use x="63.623047" xlink:href="#DejaVuSans-48"/>
       <use x="127.246094" xlink:href="#DejaVuSans-48"/>
       <use x="190.869141" xlink:href="#DejaVuSans-52"/>
      </g>
     </g>
    </g>
    <g id="xtick_3">
     <g id="line2d_5">
      <path clip-path="url(#p36ee0222c7)" d="M 252.830485 272.2032 
L 252.830485 7.2 
" style="fill:none;stroke:#b0b0b0;stroke-linecap:square;stroke-width:0.8;"/>
     </g>
     <g id="line2d_6">
      <g>
       <use style="stroke:#000000;stroke-width:0.8;" x="252.830485" xlink:href="#m31c760ae84" y="272.2032"/>
      </g>
     </g>
     <g id="text_3">
      <!-- 2009 -->
      <g transform="translate(240.105485 286.801638)scale(0.1 -0.1)">
       <use xlink:href="#DejaVuSans-50"/>
       <use x="63.623047" xlink:href="#DejaVuSans-48"/>
       <use x="127.246094" xlink:href="#DejaVuSans-48"/>
       <use x="190.869141" xlink:href="#DejaVuSans-57"/>
      </g>
     </g>
    </g>
    <g id="xtick_4">
     <g id="line2d_7">
      <path clip-path="url(#p36ee0222c7)" d="M 324.493361 272.2032 
L 324.493361 7.2 
" style="fill:none;stroke:#b0b0b0;stroke-linecap:square;stroke-width:0.8;"/>
     </g>
     <g id="line2d_8">
      <g>
       <use style="stroke:#000000;stroke-width:0.8;" x="324.493361" xlink:href="#m31c760ae84" y="272.2032"/>
      </g>
     </g>
     <g id="text_4">
      <!-- 2014 -->
      <g transform="translate(311.768361 286.801638)scale(0.1 -0.1)">
       <use xlink:href="#DejaVuSans-50"/>
       <use x="63.623047" xlink:href="#DejaVuSans-48"/>
       <use x="127.246094" xlink:href="#DejaVuSans-49"/>
       <use x="190.869141" xlink:href="#DejaVuSans-52"/>
      </g>
     </g>
    </g>
    <g id="xtick_5">
     <g id="line2d_9">
      <path clip-path="url(#p36ee0222c7)" d="M 396.156237 272.2032 
L 396.156237 7.2 
" style="fill:none;stroke:#b0b0b0;stroke-linecap:square;stroke-width:0.8;"/>
     </g>
     <g id="line2d_10">
      <g>
       <use style="stroke:#000000;stroke-width:0.8;" x="396.156237" xlink:href="#m31c760ae84" y="272.2032"/>
      </g>
     </g>
     <g id="text_5">
      <!-- 2019 -->
      <g transform="translate(383.431237 286.801638)scale(0.1 -0.1)">
       <use xlink:href="#DejaVuSans-50"/>
       <use x="63.623047" xlink:href="#DejaVuSans-48"/>
       <use x="127.246094" xlink:href="#DejaVuSans-49"/>
       <use x="190.869141" xlink:href="#DejaVuSans-57"/>
      </g>
     </g>
    </g>
    <g id="xtick_6">
     <g id="line2d_11">
      <defs>
       <path d="M 0 0 
L 0 2 
" id="mb79da7fc45" style="stroke:#000000;stroke-width:0.6;"/>
      </defs>
      <g>
       <use style="stroke:#000000;stroke-width:0.6;" x="52.174431" xlink:href="#mb79da7fc45" y="272.2032"/>
      </g>
     </g>
    </g>
    <g id="xtick_7">
     <g id="line2d_12">
      <g>
       <use style="stroke:#000000;stroke-width:0.6;" x="66.507007" xlink:href="#mb79da7fc45" y="272.2032"/>
      </g>
     </g>
    </g>
    <g id="xtick_8">
     <g id="line2d_13">
      <g>
       <use style="stroke:#000000;stroke-width:0.6;" x="80.839582" xlink:href="#mb79da7fc45" y="272.2032"/>
      </g>
     </g>
    </g>
    <g id="xtick_9">
     <g id="line2d_14">
      <g>
       <use style="stroke:#000000;stroke-width:0.6;" x="95.172157" xlink:href="#mb79da7fc45" y="272.2032"/>
      </g>
     </g>
    </g>
    <g id="xtick_10">
     <g id="line2d_15">
      <g>
       <use style="stroke:#000000;stroke-width:0.6;" x="123.837308" xlink:href="#mb79da7fc45" y="272.2032"/>
      </g>
     </g>
    </g>
    <g id="xtick_11">
     <g id="line2d_16">
      <g>
       <use style="stroke:#000000;stroke-width:0.6;" x="138.169883" xlink:href="#mb79da7fc45" y="272.2032"/>
      </g>
     </g>
    </g>
    <g id="xtick_12">
     <g id="line2d_17">
      <g>
       <use style="stroke:#000000;stroke-width:0.6;" x="152.502458" xlink:href="#mb79da7fc45" y="272.2032"/>
      </g>
     </g>
    </g>
    <g id="xtick_13">
     <g id="line2d_18">
      <g>
       <use style="stroke:#000000;stroke-width:0.6;" x="166.835033" xlink:href="#mb79da7fc45" y="272.2032"/>
      </g>
     </g>
    </g>
    <g id="xtick_14">
     <g id="line2d_19">
      <g>
       <use style="stroke:#000000;stroke-width:0.6;" x="195.500184" xlink:href="#mb79da7fc45" y="272.2032"/>
      </g>
     </g>
    </g>
    <g id="xtick_15">
     <g id="line2d_20">
      <g>
       <use style="stroke:#000000;stroke-width:0.6;" x="209.832759" xlink:href="#mb79da7fc45" y="272.2032"/>
      </g>
     </g>
    </g>
    <g id="xtick_16">
     <g id="line2d_21">
      <g>
       <use style="stroke:#000000;stroke-width:0.6;" x="224.165334" xlink:href="#mb79da7fc45" y="272.2032"/>
      </g>
     </g>
    </g>
    <g id="xtick_17">
     <g id="line2d_22">
      <g>
       <use style="stroke:#000000;stroke-width:0.6;" x="238.49791" xlink:href="#mb79da7fc45" y="272.2032"/>
      </g>
     </g>
    </g>
    <g id="xtick_18">
     <g id="line2d_23">
      <g>
       <use style="stroke:#000000;stroke-width:0.6;" x="267.16306" xlink:href="#mb79da7fc45" y="272.2032"/>
      </g>
     </g>
    </g>
    <g id="xtick_19">
     <g id="line2d_24">
      <g>
       <use style="stroke:#000000;stroke-width:0.6;" x="281.495635" xlink:href="#mb79da7fc45" y="272.2032"/>
      </g>
     </g>
    </g>
    <g id="xtick_20">
     <g id="line2d_25">
      <g>
       <use style="stroke:#000000;stroke-width:0.6;" x="295.828211" xlink:href="#mb79da7fc45" y="272.2032"/>
      </g>
     </g>
    </g>
    <g id="xtick_21">
     <g id="line2d_26">
      <g>
       <use style="stroke:#000000;stroke-width:0.6;" x="310.160786" xlink:href="#mb79da7fc45" y="272.2032"/>
      </g>
     </g>
    </g>
    <g id="xtick_22">
     <g id="line2d_27">
      <g>
       <use style="stroke:#000000;stroke-width:0.6;" x="338.825936" xlink:href="#mb79da7fc45" y="272.2032"/>
      </g>
     </g>
    </g>
    <g id="xtick_23">
     <g id="line2d_28">
      <g>
       <use style="stroke:#000000;stroke-width:0.6;" x="353.158512" xlink:href="#mb79da7fc45" y="272.2032"/>
      </g>
     </g>
    </g>
    <g id="xtick_24">
     <g id="line2d_29">
      <g>
       <use style="stroke:#000000;stroke-width:0.6;" x="367.491087" xlink:href="#mb79da7fc45" y="272.2032"/>
      </g>
     </g>
    </g>
    <g id="xtick_25">
     <g id="line2d_30">
      <g>
       <use style="stroke:#000000;stroke-width:0.6;" x="381.823662" xlink:href="#mb79da7fc45" y="272.2032"/>
      </g>
     </g>
    </g>
   </g>
   <g id="matplotlib.axis_2">
    <g id="ytick_1">
     <g id="line2d_31">
      <path clip-path="url(#p36ee0222c7)" d="M 41.425 272.07253 
L 398.545 272.07253 
" style="fill:none;stroke:#b0b0b0;stroke-linecap:square;stroke-width:0.8;"/>
     </g>
     <g id="line2d_32">
      <defs>
       <path d="M 0 0 
L -3.5 0 
" id="me9ac543944" style="stroke:#000000;stroke-width:0.8;"/>
      </defs>
      <g>
       <use style="stroke:#000000;stroke-width:0.8;" x="41.425" xlink:href="#me9ac543944" y="272.07253"/>
      </g>
     </g>
     <g id="text_6">
      <!-- 0 -->
      <g transform="translate(28.0625 275.871748)scale(0.1 -0.1)">
       <use xlink:href="#DejaVuSans-48"/>
      </g>
     </g>
    </g>
    <g id="ytick_2">
     <g id="line2d_33">
      <path clip-path="url(#p36ee0222c7)" d="M 41.425 218.119273 
L 398.545 218.119273 
" style="fill:none;stroke:#b0b0b0;stroke-linecap:square;stroke-width:0.8;"/>
     </g>
     <g id="line2d_34">
      <g>
       <use style="stroke:#000000;stroke-width:0.8;" x="41.425" xlink:href="#me9ac543944" y="218.119273"/>
      </g>
     </g>
     <g id="text_7">
      <!-- 20 -->
      <g transform="translate(21.7 221.918492)scale(0.1 -0.1)">
       <use xlink:href="#DejaVuSans-50"/>
       <use x="63.623047" xlink:href="#DejaVuSans-48"/>
      </g>
     </g>
    </g>
    <g id="ytick_3">
     <g id="line2d_35">
      <path clip-path="url(#p36ee0222c7)" d="M 41.425 164.166016 
L 398.545 164.166016 
" style="fill:none;stroke:#b0b0b0;stroke-linecap:square;stroke-width:0.8;"/>
     </g>
     <g id="line2d_36">
      <g>
       <use style="stroke:#000000;stroke-width:0.8;" x="41.425" xlink:href="#me9ac543944" y="164.166016"/>
      </g>
     </g>
     <g id="text_8">
      <!-- 40 -->
      <g transform="translate(21.7 167.965235)scale(0.1 -0.1)">
       <use xlink:href="#DejaVuSans-52"/>
       <use x="63.623047" xlink:href="#DejaVuSans-48"/>
      </g>
     </g>
    </g>
    <g id="ytick_4">
     <g id="line2d_37">
      <path clip-path="url(#p36ee0222c7)" d="M 41.425 110.21276 
L 398.545 110.21276 
" style="fill:none;stroke:#b0b0b0;stroke-linecap:square;stroke-width:0.8;"/>
     </g>
     <g id="line2d_38">
      <g>
       <use style="stroke:#000000;stroke-width:0.8;" x="41.425" xlink:href="#me9ac543944" y="110.21276"/>
      </g>
     </g>
     <g id="text_9">
      <!-- 60 -->
      <defs>
       <path d="M 33.015625 40.375 
Q 26.375 40.375 22.484375 35.828125 
Q 18.609375 31.296875 18.609375 23.390625 
Q 18.609375 15.53125 22.484375 10.953125 
Q 26.375 6.390625 33.015625 6.390625 
Q 39.65625 6.390625 43.53125 10.953125 
Q 47.40625 15.53125 47.40625 23.390625 
Q 47.40625 31.296875 43.53125 35.828125 
Q 39.65625 40.375 33.015625 40.375 
z
M 52.59375 71.296875 
L 52.59375 62.3125 
Q 48.875 64.0625 45.09375 64.984375 
Q 41.3125 65.921875 37.59375 65.921875 
Q 27.828125 65.921875 22.671875 59.328125 
Q 17.53125 52.734375 16.796875 39.40625 
Q 19.671875 43.65625 24.015625 45.921875 
Q 28.375 48.1875 33.59375 48.1875 
Q 44.578125 48.1875 50.953125 41.515625 
Q 57.328125 34.859375 57.328125 23.390625 
Q 57.328125 12.15625 50.6875 5.359375 
Q 44.046875 -1.421875 33.015625 -1.421875 
Q 20.359375 -1.421875 13.671875 8.265625 
Q 6.984375 17.96875 6.984375 36.375 
Q 6.984375 53.65625 15.1875 63.9375 
Q 23.390625 74.21875 37.203125 74.21875 
Q 40.921875 74.21875 44.703125 73.484375 
Q 48.484375 72.75 52.59375 71.296875 
z
" id="DejaVuSans-54"/>
      </defs>
      <g transform="translate(21.7 114.011979)scale(0.1 -0.1)">
       <use xlink:href="#DejaVuSans-54"/>
       <use x="63.623047" xlink:href="#DejaVuSans-48"/>
      </g>
     </g>
    </g>
    <g id="ytick_5">
     <g id="line2d_39">
      <path clip-path="url(#p36ee0222c7)" d="M 41.425 56.259503 
L 398.545 56.259503 
" style="fill:none;stroke:#b0b0b0;stroke-linecap:square;stroke-width:0.8;"/>
     </g>
     <g id="line2d_40">
      <g>
       <use style="stroke:#000000;stroke-width:0.8;" x="41.425" xlink:href="#me9ac543944" y="56.259503"/>
      </g>
     </g>
     <g id="text_10">
      <!-- 80 -->
      <defs>
       <path d="M 31.78125 34.625 
Q 24.75 34.625 20.71875 30.859375 
Q 16.703125 27.09375 16.703125 20.515625 
Q 16.703125 13.921875 20.71875 10.15625 
Q 24.75 6.390625 31.78125 6.390625 
Q 38.8125 6.390625 42.859375 10.171875 
Q 46.921875 13.96875 46.921875 20.515625 
Q 46.921875 27.09375 42.890625 30.859375 
Q 38.875 34.625 31.78125 34.625 
z
M 21.921875 38.8125 
Q 15.578125 40.375 12.03125 44.71875 
Q 8.5 49.078125 8.5 55.328125 
Q 8.5 64.0625 14.71875 69.140625 
Q 20.953125 74.21875 31.78125 74.21875 
Q 42.671875 74.21875 48.875 69.140625 
Q 55.078125 64.0625 55.078125 55.328125 
Q 55.078125 49.078125 51.53125 44.71875 
Q 48 40.375 41.703125 38.8125 
Q 48.828125 37.15625 52.796875 32.3125 
Q 56.78125 27.484375 56.78125 20.515625 
Q 56.78125 9.90625 50.3125 4.234375 
Q 43.84375 -1.421875 31.78125 -1.421875 
Q 19.734375 -1.421875 13.25 4.234375 
Q 6.78125 9.90625 6.78125 20.515625 
Q 6.78125 27.484375 10.78125 32.3125 
Q 14.796875 37.15625 21.921875 38.8125 
z
M 18.3125 54.390625 
Q 18.3125 48.734375 21.84375 45.5625 
Q 25.390625 42.390625 31.78125 42.390625 
Q 38.140625 42.390625 41.71875 45.5625 
Q 45.3125 48.734375 45.3125 54.390625 
Q 45.3125 60.0625 41.71875 63.234375 
Q 38.140625 66.40625 31.78125 66.40625 
Q 25.390625 66.40625 21.84375 63.234375 
Q 18.3125 60.0625 18.3125 54.390625 
z
" id="DejaVuSans-56"/>
      </defs>
      <g transform="translate(21.7 60.058722)scale(0.1 -0.1)">
       <use xlink:href="#DejaVuSans-56"/>
       <use x="63.623047" xlink:href="#DejaVuSans-48"/>
      </g>
     </g>
    </g>
    <g id="text_11">
     <!-- Caudal ($m^3/s$) -->
     <defs>
      <path d="M 64.40625 67.28125 
L 64.40625 56.890625 
Q 59.421875 61.53125 53.78125 63.8125 
Q 48.140625 66.109375 41.796875 66.109375 
Q 29.296875 66.109375 22.65625 58.46875 
Q 16.015625 50.828125 16.015625 36.375 
Q 16.015625 21.96875 22.65625 14.328125 
Q 29.296875 6.6875 41.796875 6.6875 
Q 48.140625 6.6875 53.78125 8.984375 
Q 59.421875 11.28125 64.40625 15.921875 
L 64.40625 5.609375 
Q 59.234375 2.09375 53.4375 0.328125 
Q 47.65625 -1.421875 41.21875 -1.421875 
Q 24.65625 -1.421875 15.125 8.703125 
Q 5.609375 18.84375 5.609375 36.375 
Q 5.609375 53.953125 15.125 64.078125 
Q 24.65625 74.21875 41.21875 74.21875 
Q 47.75 74.21875 53.53125 72.484375 
Q 59.328125 70.75 64.40625 67.28125 
z
" id="DejaVuSans-67"/>
      <path d="M 34.28125 27.484375 
Q 23.390625 27.484375 19.1875 25 
Q 14.984375 22.515625 14.984375 16.5 
Q 14.984375 11.71875 18.140625 8.90625 
Q 21.296875 6.109375 26.703125 6.109375 
Q 34.1875 6.109375 38.703125 11.40625 
Q 43.21875 16.703125 43.21875 25.484375 
L 43.21875 27.484375 
z
M 52.203125 31.203125 
L 52.203125 0 
L 43.21875 0 
L 43.21875 8.296875 
Q 40.140625 3.328125 35.546875 0.953125 
Q 30.953125 -1.421875 24.3125 -1.421875 
Q 15.921875 -1.421875 10.953125 3.296875 
Q 6 8.015625 6 15.921875 
Q 6 25.140625 12.171875 29.828125 
Q 18.359375 34.515625 30.609375 34.515625 
L 43.21875 34.515625 
L 43.21875 35.40625 
Q 43.21875 41.609375 39.140625 45 
Q 35.0625 48.390625 27.6875 48.390625 
Q 23 48.390625 18.546875 47.265625 
Q 14.109375 46.140625 10.015625 43.890625 
L 10.015625 52.203125 
Q 14.9375 54.109375 19.578125 55.046875 
Q 24.21875 56 28.609375 56 
Q 40.484375 56 46.34375 49.84375 
Q 52.203125 43.703125 52.203125 31.203125 
z
" id="DejaVuSans-97"/>
      <path d="M 8.5 21.578125 
L 8.5 54.6875 
L 17.484375 54.6875 
L 17.484375 21.921875 
Q 17.484375 14.15625 20.5 10.265625 
Q 23.53125 6.390625 29.59375 6.390625 
Q 36.859375 6.390625 41.078125 11.03125 
Q 45.3125 15.671875 45.3125 23.6875 
L 45.3125 54.6875 
L 54.296875 54.6875 
L 54.296875 0 
L 45.3125 0 
L 45.3125 8.40625 
Q 42.046875 3.421875 37.71875 1 
Q 33.40625 -1.421875 27.6875 -1.421875 
Q 18.265625 -1.421875 13.375 4.4375 
Q 8.5 10.296875 8.5 21.578125 
z
M 31.109375 56 
z
" id="DejaVuSans-117"/>
      <path d="M 45.40625 46.390625 
L 45.40625 75.984375 
L 54.390625 75.984375 
L 54.390625 0 
L 45.40625 0 
L 45.40625 8.203125 
Q 42.578125 3.328125 38.25 0.953125 
Q 33.9375 -1.421875 27.875 -1.421875 
Q 17.96875 -1.421875 11.734375 6.484375 
Q 5.515625 14.40625 5.515625 27.296875 
Q 5.515625 40.1875 11.734375 48.09375 
Q 17.96875 56 27.875 56 
Q 33.9375 56 38.25 53.625 
Q 42.578125 51.265625 45.40625 46.390625 
z
M 14.796875 27.296875 
Q 14.796875 17.390625 18.875 11.75 
Q 22.953125 6.109375 30.078125 6.109375 
Q 37.203125 6.109375 41.296875 11.75 
Q 45.40625 17.390625 45.40625 27.296875 
Q 45.40625 37.203125 41.296875 42.84375 
Q 37.203125 48.484375 30.078125 48.484375 
Q 22.953125 48.484375 18.875 42.84375 
Q 14.796875 37.203125 14.796875 27.296875 
z
" id="DejaVuSans-100"/>
      <path d="M 9.421875 75.984375 
L 18.40625 75.984375 
L 18.40625 0 
L 9.421875 0 
z
" id="DejaVuSans-108"/>
      <path id="DejaVuSans-32"/>
      <path d="M 31 75.875 
Q 24.46875 64.65625 21.28125 53.65625 
Q 18.109375 42.671875 18.109375 31.390625 
Q 18.109375 20.125 21.3125 9.0625 
Q 24.515625 -2 31 -13.1875 
L 23.1875 -13.1875 
Q 15.875 -1.703125 12.234375 9.375 
Q 8.59375 20.453125 8.59375 31.390625 
Q 8.59375 42.28125 12.203125 53.3125 
Q 15.828125 64.359375 23.1875 75.875 
z
" id="DejaVuSans-40"/>
      <path d="M 89.796875 33.015625 
L 83.40625 0 
L 74.421875 0 
L 80.71875 32.71875 
Q 81.109375 34.8125 81.296875 36.328125 
Q 81.5 37.84375 81.5 38.921875 
Q 81.5 43.3125 79.046875 45.75 
Q 76.609375 48.1875 72.21875 48.1875 
Q 65.671875 48.1875 60.546875 43.28125 
Q 55.421875 38.375 53.90625 30.515625 
L 47.90625 0 
L 38.921875 0 
L 45.3125 32.71875 
Q 45.703125 34.515625 45.890625 36.046875 
Q 46.09375 37.59375 46.09375 38.8125 
Q 46.09375 43.265625 43.65625 45.71875 
Q 41.21875 48.1875 36.921875 48.1875 
Q 30.28125 48.1875 25.140625 43.28125 
Q 20.015625 38.375 18.5 30.515625 
L 12.5 0 
L 3.515625 0 
L 14.203125 54.6875 
L 23.1875 54.6875 
L 21.484375 46.1875 
Q 25.140625 50.984375 30.046875 53.484375 
Q 34.96875 56 40.578125 56 
Q 46.53125 56 50.359375 52.875 
Q 54.203125 49.75 54.984375 44.1875 
Q 59.078125 49.953125 64.46875 52.96875 
Q 69.875 56 75.875 56 
Q 82.90625 56 86.734375 51.953125 
Q 90.578125 47.90625 90.578125 40.484375 
Q 90.578125 38.875 90.375 36.9375 
Q 90.1875 35.015625 89.796875 33.015625 
z
" id="DejaVuSans-Oblique-109"/>
      <path d="M 40.578125 39.3125 
Q 47.65625 37.796875 51.625 33 
Q 55.609375 28.21875 55.609375 21.1875 
Q 55.609375 10.40625 48.1875 4.484375 
Q 40.765625 -1.421875 27.09375 -1.421875 
Q 22.515625 -1.421875 17.65625 -0.515625 
Q 12.796875 0.390625 7.625 2.203125 
L 7.625 11.71875 
Q 11.71875 9.328125 16.59375 8.109375 
Q 21.484375 6.890625 26.8125 6.890625 
Q 36.078125 6.890625 40.9375 10.546875 
Q 45.796875 14.203125 45.796875 21.1875 
Q 45.796875 27.640625 41.28125 31.265625 
Q 36.765625 34.90625 28.71875 34.90625 
L 20.21875 34.90625 
L 20.21875 43.015625 
L 29.109375 43.015625 
Q 36.375 43.015625 40.234375 45.921875 
Q 44.09375 48.828125 44.09375 54.296875 
Q 44.09375 59.90625 40.109375 62.90625 
Q 36.140625 65.921875 28.71875 65.921875 
Q 24.65625 65.921875 20.015625 65.03125 
Q 15.375 64.15625 9.8125 62.3125 
L 9.8125 71.09375 
Q 15.4375 72.65625 20.34375 73.4375 
Q 25.25 74.21875 29.59375 74.21875 
Q 40.828125 74.21875 47.359375 69.109375 
Q 53.90625 64.015625 53.90625 55.328125 
Q 53.90625 49.265625 50.4375 45.09375 
Q 46.96875 40.921875 40.578125 39.3125 
z
" id="DejaVuSans-51"/>
      <path d="M 25.390625 72.90625 
L 33.6875 72.90625 
L 8.296875 -9.28125 
L 0 -9.28125 
z
" id="DejaVuSans-47"/>
      <path d="M 50 53.078125 
L 48.296875 44.578125 
Q 44.734375 46.53125 40.765625 47.5 
Q 36.8125 48.484375 32.625 48.484375 
Q 25.53125 48.484375 21.453125 46.0625 
Q 17.390625 43.65625 17.390625 39.5 
Q 17.390625 34.671875 26.859375 32.078125 
Q 27.59375 31.890625 27.9375 31.78125 
L 30.8125 30.90625 
Q 39.796875 28.421875 42.796875 25.6875 
Q 45.796875 22.953125 45.796875 18.21875 
Q 45.796875 9.515625 38.890625 4.046875 
Q 31.984375 -1.421875 20.796875 -1.421875 
Q 16.453125 -1.421875 11.671875 -0.578125 
Q 6.890625 0.25 1.125 2 
L 2.875 11.28125 
Q 7.8125 8.734375 12.59375 7.421875 
Q 17.390625 6.109375 21.78125 6.109375 
Q 28.375 6.109375 32.5 8.9375 
Q 36.625 11.765625 36.625 16.109375 
Q 36.625 20.796875 25.78125 23.6875 
L 24.859375 23.921875 
L 21.78125 24.703125 
Q 14.9375 26.515625 11.765625 29.46875 
Q 8.59375 32.421875 8.59375 37.015625 
Q 8.59375 45.75 15.15625 50.875 
Q 21.734375 56 33.015625 56 
Q 37.453125 56 41.671875 55.265625 
Q 45.90625 54.546875 50 53.078125 
z
" id="DejaVuSans-Oblique-115"/>
      <path d="M 8.015625 75.875 
L 15.828125 75.875 
Q 23.140625 64.359375 26.78125 53.3125 
Q 30.421875 42.28125 30.421875 31.390625 
Q 30.421875 20.453125 26.78125 9.375 
Q 23.140625 -1.703125 15.828125 -13.1875 
L 8.015625 -13.1875 
Q 14.5 -2 17.703125 9.0625 
Q 20.90625 20.125 20.90625 31.390625 
Q 20.90625 42.671875 17.703125 53.65625 
Q 14.5 64.65625 8.015625 75.875 
z
" id="DejaVuSans-41"/>
     </defs>
     <g transform="translate(15.620313 174.3016)rotate(-90)scale(0.1 -0.1)">
      <use transform="translate(0 0.765625)" xlink:href="#DejaVuSans-67"/>
      <use transform="translate(69.824219 0.765625)" xlink:href="#DejaVuSans-97"/>
      <use transform="translate(131.103516 0.765625)" xlink:href="#DejaVuSans-117"/>
      <use transform="translate(194.482422 0.765625)" xlink:href="#DejaVuSans-100"/>
      <use transform="translate(257.958984 0.765625)" xlink:href="#DejaVuSans-97"/>
      <use transform="translate(319.238281 0.765625)" xlink:href="#DejaVuSans-108"/>
      <use transform="translate(347.021484 0.765625)" xlink:href="#DejaVuSans-32"/>
      <use transform="translate(378.808594 0.765625)" xlink:href="#DejaVuSans-40"/>
      <use transform="translate(417.822266 0.765625)" xlink:href="#DejaVuSans-Oblique-109"/>
      <use transform="translate(519.884271 39.046875)scale(0.7)" xlink:href="#DejaVuSans-51"/>
      <use transform="translate(567.154779 0.765625)" xlink:href="#DejaVuSans-47"/>
      <use transform="translate(600.846185 0.765625)" xlink:href="#DejaVuSans-Oblique-115"/>
      <use transform="translate(652.945794 0.765625)" xlink:href="#DejaVuSans-41"/>
     </g>
    </g>
   </g>
   <g id="line2d_41">
    <path clip-path="url(#p36ee0222c7)" d="M 41.425 220.761085 
L 42.619381 231.899242 
L 43.813763 236.617648 
L 45.008144 240.092996 
L 46.202525 240.841302 
L 47.396906 237.03912 
L 48.591288 237.64216 
L 50.98005 232.172683 
L 52.174431 230.885503 
L 53.368813 232.848958 
L 54.563194 241.150715 
L 55.757575 244.556536 
L 56.951957 248.668495 
L 58.146338 250.236809 
L 59.340719 252.828255 
L 60.5351 254.309766 
L 61.729482 254.412329 
L 62.923863 255.784064 
L 64.118244 256.051261 
L 65.312625 254.234671 
L 66.507007 253.1066 
L 67.701388 252.993332 
L 68.895769 255.346912 
L 70.090151 256.101805 
L 71.284532 258.373999 
L 72.478913 259.027199 
L 73.673294 260.1576 
L 74.867676 260.150884 
L 76.062057 259.028704 
L 77.256438 259.148015 
L 78.450819 256.475564 
L 79.645201 255.113387 
L 80.839582 255.143423 
L 82.033963 254.03013 
L 83.228344 256.874844 
L 84.422726 257.494884 
L 85.617107 259.010396 
L 86.811488 247.458187 
L 88.00587 239.180895 
L 89.200251 181.144182 
L 90.394632 186.229213 
L 91.589013 197.986306 
L 92.783395 149.326131 
L 93.977776 19.2456 
L 95.172157 85.495672 
L 96.366538 143.068396 
L 97.56092 182.622728 
L 99.949682 213.905909 
L 101.144064 218.461599 
L 102.338445 225.067692 
L 103.532826 229.556149 
L 104.727207 231.149159 
L 105.921589 230.517745 
L 107.11597 226.368195 
L 108.310351 224.879142 
L 109.504732 228.147472 
L 110.699114 227.0856 
L 111.893495 231.618137 
L 113.087876 234.053554 
L 114.282258 239.983759 
L 115.476639 241.744593 
L 116.67102 245.022276 
L 117.865401 246.555783 
L 119.059783 245.759675 
L 120.254164 246.01706 
L 121.448545 244.874579 
L 122.642926 239.30711 
L 123.837308 234.979534 
L 125.031689 236.234929 
L 126.22607 242.431552 
L 127.420452 245.142024 
L 128.614833 247.106297 
L 129.809214 243.900128 
L 131.003595 241.891785 
L 132.197977 241.351088 
L 133.392358 238.157791 
L 134.586739 233.217055 
L 135.78112 222.158148 
L 136.975502 199.779654 
L 138.169883 202.33156 
L 139.364264 202.338797 
L 141.753027 219.419112 
L 142.947408 229.62604 
L 144.141789 234.16097 
L 145.336171 239.245394 
L 146.530552 239.274374 
L 147.724933 238.383423 
L 148.919314 234.970425 
L 150.113696 229.006624 
L 151.308077 220.345344 
L 152.502458 224.054118 
L 153.696839 226.069583 
L 154.891221 235.339412 
L 156.085602 237.867256 
L 157.279983 227.562292 
L 158.474365 222.546313 
L 159.668746 214.064708 
L 160.863127 199.361495 
L 162.057508 193.443403 
L 163.25189 152.406622 
L 164.446271 106.61653 
L 165.640652 93.254481 
L 166.835033 121.834655 
L 168.029415 157.18523 
L 169.223796 189.066103 
L 170.418177 204.166718 
L 171.612559 214.898042 
L 172.80694 219.636426 
L 174.001321 226.283407 
L 175.195702 229.318469 
L 176.390084 229.881214 
L 178.778846 218.589003 
L 179.973227 224.233939 
L 181.167609 228.626667 
L 182.36199 228.866329 
L 183.556371 233.640809 
L 184.750753 236.782321 
L 185.945134 242.499391 
L 187.139515 244.736898 
L 188.333896 243.769409 
L 189.528278 241.707549 
L 190.722659 238.287291 
L 191.91704 237.33289 
L 193.111421 231.623362 
L 194.305803 223.779385 
L 195.500184 224.980503 
L 196.694565 227.059513 
L 197.888946 236.109165 
L 199.083328 238.555281 
L 200.277709 242.942576 
L 201.47209 244.156201 
L 202.666472 245.941098 
L 203.860853 244.99629 
L 205.055234 243.585606 
L 206.249615 244.495667 
L 207.443997 234.723755 
L 208.638378 226.730614 
L 209.832759 229.897597 
L 211.02714 230.479103 
L 212.221522 238.71492 
L 213.415903 242.063834 
L 214.610284 246.410852 
L 216.999047 249.376478 
L 218.193428 249.883089 
L 219.387809 249.411333 
L 220.582191 249.10043 
L 221.776572 247.73811 
L 222.970953 247.714988 
L 224.165334 249.084071 
L 225.359716 249.439934 
L 226.554097 253.329538 
L 228.94286 256.465207 
L 230.137241 256.296302 
L 231.331622 255.211461 
L 232.526003 254.346281 
L 233.720385 252.00641 
L 234.914766 247.581449 
L 236.109147 234.570118 
L 237.303528 226.841731 
L 238.49791 227.947301 
L 239.692291 232.549597 
L 240.886672 240.581872 
L 242.081054 244.419526 
L 243.275435 247.357717 
L 244.469816 247.519137 
L 245.664197 248.263869 
L 246.858579 247.688055 
L 249.247341 244.763257 
L 250.441722 230.34174 
L 251.636104 224.599905 
L 252.830485 229.23615 
L 254.024866 230.777479 
L 255.219247 238.594249 
L 256.413629 241.85551 
L 257.60801 245.997079 
L 259.996773 250.659233 
L 261.191154 250.969449 
L 262.385535 250.558091 
L 263.579916 249.479506 
L 264.774298 247.019508 
L 265.968679 246.817293 
L 267.16306 244.738385 
L 268.357441 243.421975 
L 269.551823 248.578575 
L 270.746204 250.796974 
L 271.940585 249.13858 
L 273.134967 246.855957 
L 274.329348 249.347854 
L 275.523729 247.855082 
L 276.71811 244.067835 
L 277.912492 242.163141 
L 279.106873 235.059997 
L 280.301254 225.448719 
L 281.495635 219.687442 
L 282.690017 220.341239 
L 283.884398 230.709309 
L 285.078779 235.566155 
L 286.273161 241.451768 
L 287.467542 242.438529 
L 288.661923 242.613787 
L 289.856304 241.868324 
L 291.050686 235.762603 
L 292.245067 234.094661 
L 293.439448 218.262295 
L 294.633829 214.170455 
L 295.828211 219.35815 
L 297.022592 223.837326 
L 298.216973 233.01915 
L 300.605736 238.3615 
L 301.800117 239.921017 
L 302.994498 243.970951 
L 304.18888 245.861919 
L 305.383261 245.689483 
L 306.577642 246.868984 
L 308.966405 241.531751 
L 310.160786 237.31937 
L 311.355167 232.505229 
L 312.549548 240.056968 
L 313.74393 243.476753 
L 314.938311 244.140097 
L 316.132692 243.441748 
L 317.327074 245.343677 
L 318.521455 244.710488 
L 319.715836 243.799599 
L 320.910217 243.926325 
L 322.104599 239.393114 
L 323.29898 224.038272 
L 324.493361 225.140579 
L 325.687742 229.931689 
L 326.882124 240.015523 
L 328.076505 244.044567 
L 329.270886 247.412882 
L 330.465268 248.337691 
L 331.659649 249.623937 
L 332.85403 249.280659 
L 334.048411 247.702563 
L 335.242793 245.163879 
L 336.437174 243.474093 
L 337.631555 242.339948 
L 338.825936 241.973985 
L 340.020318 242.40975 
L 341.214699 219.787069 
L 342.40908 216.500564 
L 343.603462 227.343438 
L 344.797843 232.572213 
L 345.992224 234.126609 
L 347.186605 222.51286 
L 348.380987 218.615837 
L 349.575368 217.131043 
L 350.769749 213.379671 
L 351.96413 160.796047 
L 353.158512 164.313908 
L 355.547274 206.63276 
L 356.741656 211.178712 
L 357.936037 208.415362 
L 359.130418 206.514156 
L 360.324799 218.707037 
L 361.519181 214.552216 
L 362.713562 203.57958 
L 363.907943 145.925201 
L 365.102324 172.828728 
L 366.296706 175.91005 
L 367.491087 158.610717 
L 368.685468 178.772711 
L 369.879849 203.155668 
L 371.074231 214.662681 
L 372.268612 166.548818 
L 373.462993 166.122101 
L 374.657375 184.464707 
L 375.851756 188.621542 
L 377.046137 191.1232 
L 378.240518 168.165587 
L 379.4349 117.976256 
L 380.629281 82.281127 
L 381.823662 147.219044 
L 383.018043 167.486734 
L 384.212425 194.318847 
L 386.601187 217.879127 
L 387.795569 219.003816 
L 388.98995 225.191789 
L 390.184331 226.933182 
L 391.378712 225.642784 
L 392.573094 226.694202 
L 393.767475 215.86043 
L 394.961856 218.618339 
L 396.156237 224.08435 
L 397.350619 224.606183 
L 398.545 234.081028 
L 398.545 234.081028 
" style="fill:none;stroke:#1f77b4;stroke-linecap:square;stroke-width:1.5;"/>
   </g>
   <g id="line2d_42">
    <path clip-path="url(#p36ee0222c7)" d="M 41.425 213.366316 
L 42.619381 218.126188 
L 43.813763 225.396077 
L 45.008144 230.10535 
L 46.202525 228.290724 
L 47.396906 220.041983 
L 48.591288 218.526231 
L 49.785669 213.279107 
L 50.98005 208.953585 
L 52.174431 206.987781 
L 53.368813 210.717751 
L 55.757575 234.193627 
L 56.951957 241.602433 
L 58.146338 243.744267 
L 59.340719 246.731495 
L 60.5351 248.064696 
L 61.729482 246.400477 
L 62.923863 247.005588 
L 64.118244 246.483674 
L 65.312625 244.070005 
L 66.507007 242.430183 
L 67.701388 242.287653 
L 68.895769 245.698997 
L 70.090151 247.083922 
L 71.284532 252.159325 
L 72.478913 253.212116 
L 73.673294 254.635655 
L 74.867676 254.667911 
L 76.062057 251.792842 
L 77.256438 251.279723 
L 78.450819 247.245564 
L 79.645201 245.502262 
L 80.839582 245.19236 
L 82.033963 243.547477 
L 83.228344 247.710203 
L 84.422726 248.623804 
L 85.617107 252.821455 
L 86.811488 249.321888 
L 89.200251 221.91462 
L 90.394632 204.796336 
L 91.589013 201.182393 
L 92.783395 195.94329 
L 93.977776 163.80527 
L 95.172157 150.405713 
L 96.366538 158.75179 
L 97.56092 186.348463 
L 98.755301 195.783978 
L 99.949682 209.586819 
L 102.338445 221.523195 
L 103.532826 224.350673 
L 104.727207 223.262414 
L 105.921589 219.484312 
L 107.11597 212.406556 
L 108.310351 208.920492 
L 109.504732 212.98733 
L 110.699114 212.37271 
L 111.893495 220.175466 
L 113.087876 225.113747 
L 114.282258 234.332544 
L 115.476639 237.175695 
L 116.67102 239.125297 
L 119.059783 232.930015 
L 120.254164 231.115854 
L 121.448545 231.658161 
L 122.642926 226.193344 
L 123.837308 224.060263 
L 125.031689 224.915822 
L 126.22607 231.239765 
L 127.420452 235.632249 
L 128.614833 238.078764 
L 129.809214 238.853413 
L 131.003595 236.001235 
L 132.197977 232.344151 
L 133.392358 226.507844 
L 134.586739 222.189111 
L 135.78112 220.102746 
L 136.975502 211.479996 
L 138.169883 194.739406 
L 139.364264 188.293932 
L 141.753027 210.8804 
L 142.947408 224.065747 
L 145.336171 234.157159 
L 146.530552 234.677077 
L 147.724933 230.399019 
L 148.919314 223.91198 
L 150.113696 215.278841 
L 151.308077 203.744784 
L 152.502458 208.362497 
L 153.696839 211.605089 
L 154.891221 223.747885 
L 156.085602 230.044535 
L 157.279983 227.506065 
L 158.474365 221.319819 
L 160.863127 212.829334 
L 162.057508 198.869449 
L 163.25189 188.125671 
L 164.446271 172.87608 
L 165.640652 166.014117 
L 166.835033 164.072029 
L 168.029415 167.595818 
L 169.223796 189.185122 
L 170.418177 197.884595 
L 171.612559 210.397371 
L 172.80694 215.4379 
L 174.001321 221.602585 
L 175.195702 223.400363 
L 176.390084 221.546114 
L 178.778846 204.197586 
L 179.973227 208.009962 
L 181.167609 213.234463 
L 182.36199 214.2171 
L 183.556371 221.561981 
L 184.750753 227.492572 
L 185.945134 236.191119 
L 187.139515 238.932843 
L 188.333896 242.23617 
L 189.528278 237.165127 
L 190.722659 229.794659 
L 191.91704 226.291939 
L 193.111421 217.752227 
L 194.305803 206.917815 
L 195.500184 208.93609 
L 196.694565 212.074607 
L 197.888946 224.125216 
L 199.083328 229.195258 
L 200.277709 236.410363 
L 202.666472 240.359316 
L 203.860853 239.565845 
L 205.055234 234.867427 
L 206.249615 228.994973 
L 207.443997 226.423399 
L 208.638378 209.657455 
L 209.832759 213.59033 
L 211.02714 215.298884 
L 212.221522 226.368426 
L 213.415903 231.922289 
L 214.610284 239.14292 
L 215.804666 236.945588 
L 216.999047 238.767929 
L 218.193428 238.01164 
L 219.387809 235.148789 
L 220.582191 232.607254 
L 221.776572 233.594561 
L 222.970953 231.994984 
L 225.359716 233.619639 
L 226.554097 239.152837 
L 227.748478 242.390278 
L 228.94286 242.797159 
L 230.137241 243.778033 
L 231.331622 242.813066 
L 232.526003 241.160125 
L 233.720385 237.116953 
L 234.914766 230.863095 
L 236.109147 226.727499 
L 237.303528 220.59578 
L 238.49791 219.804978 
L 239.692291 221.529876 
L 240.886672 228.941562 
L 242.081054 233.253302 
L 245.664197 237.847686 
L 246.858579 235.272668 
L 250.441722 225.260978 
L 251.636104 219.056307 
L 252.830485 219.683956 
L 254.024866 220.531301 
L 255.219247 227.867188 
L 256.413629 231.432299 
L 257.60801 233.493822 
L 259.996773 238.784755 
L 261.191154 237.956611 
L 262.385535 235.607904 
L 263.579916 232.549338 
L 264.774298 232.581221 
L 265.968679 230.081456 
L 268.357441 227.520306 
L 269.551823 234.057213 
L 270.746204 238.190683 
L 271.940585 239.689014 
L 273.134967 235.827598 
L 274.329348 237.559149 
L 275.523729 235.76088 
L 276.71811 229.905612 
L 277.912492 225.965881 
L 279.106873 225.05944 
L 280.301254 219.453982 
L 281.495635 216.455834 
L 282.690017 215.430224 
L 283.884398 224.145099 
L 285.078779 228.469227 
L 286.273161 231.320057 
L 287.467542 234.882105 
L 288.661923 236.485879 
L 289.856304 232.254011 
L 291.050686 225.030758 
L 293.439448 218.252223 
L 294.633829 211.157715 
L 295.828211 213.252833 
L 297.022592 216.007552 
L 298.216973 223.61484 
L 299.411355 228.278168 
L 300.605736 228.962737 
L 301.800117 230.069896 
L 302.994498 232.906398 
L 304.18888 233.572524 
L 305.383261 231.195083 
L 306.577642 230.213911 
L 307.772023 229.979534 
L 308.966405 225.853759 
L 310.160786 224.349348 
L 311.355167 221.18726 
L 312.549548 227.750783 
L 313.74393 231.954522 
L 314.938311 233.681055 
L 316.132692 232.275889 
L 317.327074 234.062642 
L 318.521455 231.955335 
L 319.715836 228.909207 
L 320.910217 227.235594 
L 322.104599 227.489158 
L 323.29898 219.281897 
L 324.493361 216.917063 
L 325.687742 219.66981 
L 326.882124 228.613413 
L 328.076505 233.118804 
L 329.270886 235.392356 
L 330.465268 238.177519 
L 331.659649 238.222817 
L 332.85403 236.548568 
L 334.048411 233.834289 
L 335.242793 229.008511 
L 336.437174 230.509046 
L 337.631555 228.170152 
L 338.825936 227.63658 
L 340.020318 228.758034 
L 341.214699 226.800431 
L 342.40908 216.029819 
L 343.603462 224.382009 
L 344.797843 227.654589 
L 345.992224 231.491054 
L 347.186605 227.892789 
L 348.380987 217.231335 
L 349.575368 213.720111 
L 351.96413 201.851697 
L 353.158512 190.674448 
L 354.352893 195.439247 
L 355.547274 206.058159 
L 356.741656 203.670698 
L 357.936037 205.966578 
L 359.130418 206.530663 
L 360.324799 215.660898 
L 361.519181 209.118515 
L 362.713562 199.894426 
L 365.102324 178.90576 
L 366.296706 181.397913 
L 367.491087 180.124815 
L 368.685468 177.068381 
L 369.879849 194.866561 
L 371.074231 206.587146 
L 372.268612 206.217816 
L 373.462993 198.424532 
L 374.657375 198.502444 
L 375.851756 199.57107 
L 377.046137 196.737221 
L 378.240518 193.400672 
L 380.629281 168.24856 
L 381.823662 170.33701 
L 383.018043 175.958119 
L 384.212425 194.683691 
L 385.406806 201.623062 
L 386.601187 214.184914 
L 387.795569 215.653562 
L 388.98995 221.238286 
L 390.184331 221.871257 
L 391.378712 218.340574 
L 392.573094 217.172068 
L 393.767475 204.286115 
L 394.961856 204.671971 
L 396.156237 210.495083 
L 397.350619 211.975925 
L 398.545 223.644491 
L 398.545 223.644491 
" style="fill:none;stroke:#ff0000;stroke-linecap:square;stroke-width:1.5;"/>
   </g>
   <g id="patch_3">
    <path d="M 41.425 272.2032 
L 41.425 7.2 
" style="fill:none;stroke:#000000;stroke-linecap:square;stroke-linejoin:miter;stroke-width:0.8;"/>
   </g>
   <g id="patch_4">
    <path d="M 398.545 272.2032 
L 398.545 7.2 
" style="fill:none;stroke:#000000;stroke-linecap:square;stroke-linejoin:miter;stroke-width:0.8;"/>
   </g>
   <g id="patch_5">
    <path d="M 41.425 272.2032 
L 398.545 272.2032 
" style="fill:none;stroke:#000000;stroke-linecap:square;stroke-linejoin:miter;stroke-width:0.8;"/>
   </g>
   <g id="patch_6">
    <path d="M 41.425 7.2 
L 398.545 7.2 
" style="fill:none;stroke:#000000;stroke-linecap:square;stroke-linejoin:miter;stroke-width:0.8;"/>
   </g>
   <g id="legend_1">
    <g id="patch_7">
     <path d="M 219.0325 45.35625 
L 391.545 45.35625 
Q 393.545 45.35625 393.545 43.35625 
L 393.545 14.2 
Q 393.545 12.2 391.545 12.2 
L 219.0325 12.2 
Q 217.0325 12.2 217.0325 14.2 
L 217.0325 43.35625 
Q 217.0325 45.35625 219.0325 45.35625 
z
" style="fill:#ffffff;opacity:0.8;stroke:#cccccc;stroke-linejoin:miter;"/>
    </g>
    <g id="line2d_43">
     <path d="M 221.0325 20.698438 
L 241.0325 20.698438 
" style="fill:none;stroke:#1f77b4;stroke-linecap:square;stroke-width:1.5;"/>
    </g>
    <g id="line2d_44"/>
    <g id="text_12">
     <!-- Oferta hídrica superficial -->
     <defs>
      <path d="M 39.40625 66.21875 
Q 28.65625 66.21875 22.328125 58.203125 
Q 16.015625 50.203125 16.015625 36.375 
Q 16.015625 22.609375 22.328125 14.59375 
Q 28.65625 6.59375 39.40625 6.59375 
Q 50.140625 6.59375 56.421875 14.59375 
Q 62.703125 22.609375 62.703125 36.375 
Q 62.703125 50.203125 56.421875 58.203125 
Q 50.140625 66.21875 39.40625 66.21875 
z
M 39.40625 74.21875 
Q 54.734375 74.21875 63.90625 63.9375 
Q 73.09375 53.65625 73.09375 36.375 
Q 73.09375 19.140625 63.90625 8.859375 
Q 54.734375 -1.421875 39.40625 -1.421875 
Q 24.03125 -1.421875 14.8125 8.828125 
Q 5.609375 19.09375 5.609375 36.375 
Q 5.609375 53.65625 14.8125 63.9375 
Q 24.03125 74.21875 39.40625 74.21875 
z
" id="DejaVuSans-79"/>
      <path d="M 37.109375 75.984375 
L 37.109375 68.5 
L 28.515625 68.5 
Q 23.6875 68.5 21.796875 66.546875 
Q 19.921875 64.59375 19.921875 59.515625 
L 19.921875 54.6875 
L 34.71875 54.6875 
L 34.71875 47.703125 
L 19.921875 47.703125 
L 19.921875 0 
L 10.890625 0 
L 10.890625 47.703125 
L 2.296875 47.703125 
L 2.296875 54.6875 
L 10.890625 54.6875 
L 10.890625 58.5 
Q 10.890625 67.625 15.140625 71.796875 
Q 19.390625 75.984375 28.609375 75.984375 
z
" id="DejaVuSans-102"/>
      <path d="M 56.203125 29.59375 
L 56.203125 25.203125 
L 14.890625 25.203125 
Q 15.484375 15.921875 20.484375 11.0625 
Q 25.484375 6.203125 34.421875 6.203125 
Q 39.59375 6.203125 44.453125 7.46875 
Q 49.3125 8.734375 54.109375 11.28125 
L 54.109375 2.78125 
Q 49.265625 0.734375 44.1875 -0.34375 
Q 39.109375 -1.421875 33.890625 -1.421875 
Q 20.796875 -1.421875 13.15625 6.1875 
Q 5.515625 13.8125 5.515625 26.8125 
Q 5.515625 40.234375 12.765625 48.109375 
Q 20.015625 56 32.328125 56 
Q 43.359375 56 49.78125 48.890625 
Q 56.203125 41.796875 56.203125 29.59375 
z
M 47.21875 32.234375 
Q 47.125 39.59375 43.09375 43.984375 
Q 39.0625 48.390625 32.421875 48.390625 
Q 24.90625 48.390625 20.390625 44.140625 
Q 15.875 39.890625 15.1875 32.171875 
z
" id="DejaVuSans-101"/>
      <path d="M 41.109375 46.296875 
Q 39.59375 47.171875 37.8125 47.578125 
Q 36.03125 48 33.890625 48 
Q 26.265625 48 22.1875 43.046875 
Q 18.109375 38.09375 18.109375 28.8125 
L 18.109375 0 
L 9.078125 0 
L 9.078125 54.6875 
L 18.109375 54.6875 
L 18.109375 46.1875 
Q 20.953125 51.171875 25.484375 53.578125 
Q 30.03125 56 36.53125 56 
Q 37.453125 56 38.578125 55.875 
Q 39.703125 55.765625 41.0625 55.515625 
z
" id="DejaVuSans-114"/>
      <path d="M 18.3125 70.21875 
L 18.3125 54.6875 
L 36.8125 54.6875 
L 36.8125 47.703125 
L 18.3125 47.703125 
L 18.3125 18.015625 
Q 18.3125 11.328125 20.140625 9.421875 
Q 21.96875 7.515625 27.59375 7.515625 
L 36.8125 7.515625 
L 36.8125 0 
L 27.59375 0 
Q 17.1875 0 13.234375 3.875 
Q 9.28125 7.765625 9.28125 18.015625 
L 9.28125 47.703125 
L 2.6875 47.703125 
L 2.6875 54.6875 
L 9.28125 54.6875 
L 9.28125 70.21875 
z
" id="DejaVuSans-116"/>
      <path d="M 54.890625 33.015625 
L 54.890625 0 
L 45.90625 0 
L 45.90625 32.71875 
Q 45.90625 40.484375 42.875 44.328125 
Q 39.84375 48.1875 33.796875 48.1875 
Q 26.515625 48.1875 22.3125 43.546875 
Q 18.109375 38.921875 18.109375 30.90625 
L 18.109375 0 
L 9.078125 0 
L 9.078125 75.984375 
L 18.109375 75.984375 
L 18.109375 46.1875 
Q 21.34375 51.125 25.703125 53.5625 
Q 30.078125 56 35.796875 56 
Q 45.21875 56 50.046875 50.171875 
Q 54.890625 44.34375 54.890625 33.015625 
z
" id="DejaVuSans-104"/>
      <path d="M 20.703125 79.984375 
L 30.421875 79.984375 
L 14.5 61.625 
L 7.03125 61.625 
z
M 9.421875 54.6875 
L 18.40625 54.6875 
L 18.40625 0 
L 9.421875 0 
z
M 13.921875 56 
z
" id="DejaVuSans-237"/>
      <path d="M 9.421875 54.6875 
L 18.40625 54.6875 
L 18.40625 0 
L 9.421875 0 
z
M 9.421875 75.984375 
L 18.40625 75.984375 
L 18.40625 64.59375 
L 9.421875 64.59375 
z
" id="DejaVuSans-105"/>
      <path d="M 48.78125 52.59375 
L 48.78125 44.1875 
Q 44.96875 46.296875 41.140625 47.34375 
Q 37.3125 48.390625 33.40625 48.390625 
Q 24.65625 48.390625 19.8125 42.84375 
Q 14.984375 37.3125 14.984375 27.296875 
Q 14.984375 17.28125 19.8125 11.734375 
Q 24.65625 6.203125 33.40625 6.203125 
Q 37.3125 6.203125 41.140625 7.25 
Q 44.96875 8.296875 48.78125 10.40625 
L 48.78125 2.09375 
Q 45.015625 0.34375 40.984375 -0.53125 
Q 36.96875 -1.421875 32.421875 -1.421875 
Q 20.0625 -1.421875 12.78125 6.34375 
Q 5.515625 14.109375 5.515625 27.296875 
Q 5.515625 40.671875 12.859375 48.328125 
Q 20.21875 56 33.015625 56 
Q 37.15625 56 41.109375 55.140625 
Q 45.0625 54.296875 48.78125 52.59375 
z
" id="DejaVuSans-99"/>
      <path d="M 44.28125 53.078125 
L 44.28125 44.578125 
Q 40.484375 46.53125 36.375 47.5 
Q 32.28125 48.484375 27.875 48.484375 
Q 21.1875 48.484375 17.84375 46.4375 
Q 14.5 44.390625 14.5 40.28125 
Q 14.5 37.15625 16.890625 35.375 
Q 19.28125 33.59375 26.515625 31.984375 
L 29.59375 31.296875 
Q 39.15625 29.25 43.1875 25.515625 
Q 47.21875 21.78125 47.21875 15.09375 
Q 47.21875 7.46875 41.1875 3.015625 
Q 35.15625 -1.421875 24.609375 -1.421875 
Q 20.21875 -1.421875 15.453125 -0.5625 
Q 10.6875 0.296875 5.421875 2 
L 5.421875 11.28125 
Q 10.40625 8.6875 15.234375 7.390625 
Q 20.0625 6.109375 24.8125 6.109375 
Q 31.15625 6.109375 34.5625 8.28125 
Q 37.984375 10.453125 37.984375 14.40625 
Q 37.984375 18.0625 35.515625 20.015625 
Q 33.0625 21.96875 24.703125 23.78125 
L 21.578125 24.515625 
Q 13.234375 26.265625 9.515625 29.90625 
Q 5.8125 33.546875 5.8125 39.890625 
Q 5.8125 47.609375 11.28125 51.796875 
Q 16.75 56 26.8125 56 
Q 31.78125 56 36.171875 55.265625 
Q 40.578125 54.546875 44.28125 53.078125 
z
" id="DejaVuSans-115"/>
      <path d="M 18.109375 8.203125 
L 18.109375 -20.796875 
L 9.078125 -20.796875 
L 9.078125 54.6875 
L 18.109375 54.6875 
L 18.109375 46.390625 
Q 20.953125 51.265625 25.265625 53.625 
Q 29.59375 56 35.59375 56 
Q 45.5625 56 51.78125 48.09375 
Q 58.015625 40.1875 58.015625 27.296875 
Q 58.015625 14.40625 51.78125 6.484375 
Q 45.5625 -1.421875 35.59375 -1.421875 
Q 29.59375 -1.421875 25.265625 0.953125 
Q 20.953125 3.328125 18.109375 8.203125 
z
M 48.6875 27.296875 
Q 48.6875 37.203125 44.609375 42.84375 
Q 40.53125 48.484375 33.40625 48.484375 
Q 26.265625 48.484375 22.1875 42.84375 
Q 18.109375 37.203125 18.109375 27.296875 
Q 18.109375 17.390625 22.1875 11.75 
Q 26.265625 6.109375 33.40625 6.109375 
Q 40.53125 6.109375 44.609375 11.75 
Q 48.6875 17.390625 48.6875 27.296875 
z
" id="DejaVuSans-112"/>
     </defs>
     <g transform="translate(249.0325 24.198438)scale(0.1 -0.1)">
      <use xlink:href="#DejaVuSans-79"/>
      <use x="78.710938" xlink:href="#DejaVuSans-102"/>
      <use x="113.916016" xlink:href="#DejaVuSans-101"/>
      <use x="175.439453" xlink:href="#DejaVuSans-114"/>
      <use x="216.552734" xlink:href="#DejaVuSans-116"/>
      <use x="255.761719" xlink:href="#DejaVuSans-97"/>
      <use x="317.041016" xlink:href="#DejaVuSans-32"/>
      <use x="348.828125" xlink:href="#DejaVuSans-104"/>
      <use x="412.207031" xlink:href="#DejaVuSans-237"/>
      <use x="439.990234" xlink:href="#DejaVuSans-100"/>
      <use x="503.466797" xlink:href="#DejaVuSans-114"/>
      <use x="544.580078" xlink:href="#DejaVuSans-105"/>
      <use x="572.363281" xlink:href="#DejaVuSans-99"/>
      <use x="627.34375" xlink:href="#DejaVuSans-97"/>
      <use x="688.623047" xlink:href="#DejaVuSans-32"/>
      <use x="720.410156" xlink:href="#DejaVuSans-115"/>
      <use x="772.509766" xlink:href="#DejaVuSans-117"/>
      <use x="835.888672" xlink:href="#DejaVuSans-112"/>
      <use x="899.365234" xlink:href="#DejaVuSans-101"/>
      <use x="960.888672" xlink:href="#DejaVuSans-114"/>
      <use x="1002.001953" xlink:href="#DejaVuSans-102"/>
      <use x="1037.207031" xlink:href="#DejaVuSans-105"/>
      <use x="1064.990234" xlink:href="#DejaVuSans-99"/>
      <use x="1119.970703" xlink:href="#DejaVuSans-105"/>
      <use x="1147.753906" xlink:href="#DejaVuSans-97"/>
      <use x="1209.033203" xlink:href="#DejaVuSans-108"/>
     </g>
    </g>
    <g id="line2d_45">
     <path d="M 221.0325 35.776563 
L 241.0325 35.776563 
" style="fill:none;stroke:#ff0000;stroke-linecap:square;stroke-width:1.5;"/>
    </g>
    <g id="line2d_46"/>
    <g id="text_13">
     <!-- Demanda hídrica superficial -->
     <defs>
      <path d="M 19.671875 64.796875 
L 19.671875 8.109375 
L 31.59375 8.109375 
Q 46.6875 8.109375 53.6875 14.9375 
Q 60.6875 21.78125 60.6875 36.53125 
Q 60.6875 51.171875 53.6875 57.984375 
Q 46.6875 64.796875 31.59375 64.796875 
z
M 9.8125 72.90625 
L 30.078125 72.90625 
Q 51.265625 72.90625 61.171875 64.09375 
Q 71.09375 55.28125 71.09375 36.53125 
Q 71.09375 17.671875 61.125 8.828125 
Q 51.171875 0 30.078125 0 
L 9.8125 0 
z
" id="DejaVuSans-68"/>
      <path d="M 52 44.1875 
Q 55.375 50.25 60.0625 53.125 
Q 64.75 56 71.09375 56 
Q 79.640625 56 84.28125 50.015625 
Q 88.921875 44.046875 88.921875 33.015625 
L 88.921875 0 
L 79.890625 0 
L 79.890625 32.71875 
Q 79.890625 40.578125 77.09375 44.375 
Q 74.3125 48.1875 68.609375 48.1875 
Q 61.625 48.1875 57.5625 43.546875 
Q 53.515625 38.921875 53.515625 30.90625 
L 53.515625 0 
L 44.484375 0 
L 44.484375 32.71875 
Q 44.484375 40.625 41.703125 44.40625 
Q 38.921875 48.1875 33.109375 48.1875 
Q 26.21875 48.1875 22.15625 43.53125 
Q 18.109375 38.875 18.109375 30.90625 
L 18.109375 0 
L 9.078125 0 
L 9.078125 54.6875 
L 18.109375 54.6875 
L 18.109375 46.1875 
Q 21.1875 51.21875 25.484375 53.609375 
Q 29.78125 56 35.6875 56 
Q 41.65625 56 45.828125 52.96875 
Q 50 49.953125 52 44.1875 
z
" id="DejaVuSans-109"/>
      <path d="M 54.890625 33.015625 
L 54.890625 0 
L 45.90625 0 
L 45.90625 32.71875 
Q 45.90625 40.484375 42.875 44.328125 
Q 39.84375 48.1875 33.796875 48.1875 
Q 26.515625 48.1875 22.3125 43.546875 
Q 18.109375 38.921875 18.109375 30.90625 
L 18.109375 0 
L 9.078125 0 
L 9.078125 54.6875 
L 18.109375 54.6875 
L 18.109375 46.1875 
Q 21.34375 51.125 25.703125 53.5625 
Q 30.078125 56 35.796875 56 
Q 45.21875 56 50.046875 50.171875 
Q 54.890625 44.34375 54.890625 33.015625 
z
" id="DejaVuSans-110"/>
     </defs>
     <g transform="translate(249.0325 39.276563)scale(0.1 -0.1)">
      <use xlink:href="#DejaVuSans-68"/>
      <use x="77.001953" xlink:href="#DejaVuSans-101"/>
      <use x="138.525391" xlink:href="#DejaVuSans-109"/>
      <use x="235.9375" xlink:href="#DejaVuSans-97"/>
      <use x="297.216797" xlink:href="#DejaVuSans-110"/>
      <use x="360.595703" xlink:href="#DejaVuSans-100"/>
      <use x="424.072266" xlink:href="#DejaVuSans-97"/>
      <use x="485.351562" xlink:href="#DejaVuSans-32"/>
      <use x="517.138672" xlink:href="#DejaVuSans-104"/>
      <use x="580.517578" xlink:href="#DejaVuSans-237"/>
      <use x="608.300781" xlink:href="#DejaVuSans-100"/>
      <use x="671.777344" xlink:href="#DejaVuSans-114"/>
      <use x="712.890625" xlink:href="#DejaVuSans-105"/>
      <use x="740.673828" xlink:href="#DejaVuSans-99"/>
      <use x="795.654297" xlink:href="#DejaVuSans-97"/>
      <use x="856.933594" xlink:href="#DejaVuSans-32"/>
      <use x="888.720703" xlink:href="#DejaVuSans-115"/>
      <use x="940.820312" xlink:href="#DejaVuSans-117"/>
      <use x="1004.199219" xlink:href="#DejaVuSans-112"/>
      <use x="1067.675781" xlink:href="#DejaVuSans-101"/>
      <use x="1129.199219" xlink:href="#DejaVuSans-114"/>
      <use x="1170.3125" xlink:href="#DejaVuSans-102"/>
      <use x="1205.517578" xlink:href="#DejaVuSans-105"/>
      <use x="1233.300781" xlink:href="#DejaVuSans-99"/>
      <use x="1288.28125" xlink:href="#DejaVuSans-105"/>
      <use x="1316.064453" xlink:href="#DejaVuSans-97"/>
      <use x="1377.34375" xlink:href="#DejaVuSans-108"/>
     </g>
    </g>
   </g>
  </g>
 </g>
 <defs>
  <clipPath id="p36ee0222c7">
   <rect height="265.0032" width="357.12" x="41.425" y="7.2"/>
  </clipPath>
 </defs>
</svg>
