<?xml version="1.0" encoding="utf-8" standalone="no"?>
<!DOCTYPE svg PUBLIC "-//W3C//DTD SVG 1.1//EN"
  "http://www.w3.org/Graphics/SVG/1.1/DTD/svg11.dtd">
<!-- Created with matplotlib (https://matplotlib.org/) -->
<svg height="584.285861pt" version="1.1" viewBox="0 0 1248.626188 584.285861" width="1248.626188pt" xmlns="http://www.w3.org/2000/svg" xmlns:xlink="http://www.w3.org/1999/xlink">
 <defs>
  <style type="text/css">
*{stroke-linecap:butt;stroke-linejoin:round;}
  </style>
 </defs>
 <g id="figure_1">
  <g id="patch_1">
   <path d="M 0 584.285861 
L 1248.626188 584.285861 
L 1248.626188 0 
L 0 0 
z
" style="fill:#ffffff;"/>
  </g>
  <g id="axes_1">
   <g id="patch_2">
    <path d="M 43.442188 509.684579 
L 1241.426187 509.684579 
L 1241.426187 17.798438 
L 43.442188 17.798438 
z
" style="fill:#ffffff;"/>
   </g>
   <g id="patch_3">
    <path clip-path="url(#pb8b874c0f3)" d="M 97.896006 263.741212 
L 156.764998 263.741212 
L 156.764998 233.347374 
L 97.896006 233.347374 
z
" style="fill:#1f77b4;"/>
   </g>
   <g id="patch_4">
    <path clip-path="url(#pb8b874c0f3)" d="M 171.482246 263.741212 
L 230.351239 263.741212 
L 230.351239 263.741212 
L 171.482246 263.741212 
z
" style="fill:#1f77b4;"/>
   </g>
   <g id="patch_5">
    <path clip-path="url(#pb8b874c0f3)" d="M 245.068487 263.741212 
L 303.93748 263.741212 
L 303.93748 263.741212 
L 245.068487 263.741212 
z
" style="fill:#1f77b4;"/>
   </g>
   <g id="patch_6">
    <path clip-path="url(#pb8b874c0f3)" d="M 318.654728 263.741212 
L 377.523721 263.741212 
L 377.523721 243.444663 
L 318.654728 243.444663 
z
" style="fill:#1f77b4;"/>
   </g>
   <g id="patch_7">
    <path clip-path="url(#pb8b874c0f3)" d="M 392.240969 263.741212 
L 451.109961 263.741212 
L 451.109961 90.847298 
L 392.240969 90.847298 
z
" style="fill:#1f77b4;"/>
   </g>
   <g id="patch_8">
    <path clip-path="url(#pb8b874c0f3)" d="M 465.82721 263.741212 
L 524.696202 263.741212 
L 524.696202 40.156898 
L 465.82721 40.156898 
z
" style="fill:#1f77b4;"/>
   </g>
   <g id="patch_9">
    <path clip-path="url(#pb8b874c0f3)" d="M 539.41345 263.741212 
L 598.282443 263.741212 
L 598.282443 334.753889 
L 539.41345 334.753889 
z
" style="fill:#1f77b4;"/>
   </g>
   <g id="patch_10">
    <path clip-path="url(#pb8b874c0f3)" d="M 612.999691 263.741212 
L 671.868684 263.741212 
L 671.868684 265.953922 
L 612.999691 265.953922 
z
" style="fill:#1f77b4;"/>
   </g>
   <g id="patch_11">
    <path clip-path="url(#pb8b874c0f3)" d="M 686.585932 263.741212 
L 745.454925 263.741212 
L 745.454925 291.202025 
L 686.585932 291.202025 
z
" style="fill:#1f77b4;"/>
   </g>
   <g id="patch_12">
    <path clip-path="url(#pb8b874c0f3)" d="M 760.172173 263.741212 
L 819.041165 263.741212 
L 819.041165 386.639923 
L 760.172173 386.639923 
z
" style="fill:#1f77b4;"/>
   </g>
   <g id="patch_13">
    <path clip-path="url(#pb8b874c0f3)" d="M 833.758414 263.741212 
L 892.627406 263.741212 
L 892.627406 263.741212 
L 833.758414 263.741212 
z
" style="fill:#1f77b4;"/>
   </g>
   <g id="patch_14">
    <path clip-path="url(#pb8b874c0f3)" d="M 907.344654 263.741212 
L 966.213647 263.741212 
L 966.213647 487.326118 
L 907.344654 487.326118 
z
" style="fill:#1f77b4;"/>
   </g>
   <g id="patch_15">
    <path clip-path="url(#pb8b874c0f3)" d="M 980.930895 263.741212 
L 1039.799888 263.741212 
L 1039.799888 263.741805 
L 980.930895 263.741805 
z
" style="fill:#1f77b4;"/>
   </g>
   <g id="patch_16">
    <path clip-path="url(#pb8b874c0f3)" d="M 1054.517136 263.741212 
L 1113.386129 263.741212 
L 1113.386129 263.741212 
L 1054.517136 263.741212 
z
" style="fill:#1f77b4;"/>
   </g>
   <g id="patch_17">
    <path clip-path="url(#pb8b874c0f3)" d="M 1128.103377 263.741212 
L 1186.972369 263.741212 
L 1186.972369 263.741212 
L 1128.103377 263.741212 
z
" style="fill:#1f77b4;"/>
   </g>
   <g id="matplotlib.axis_1">
    <g id="xtick_1">
     <g id="line2d_1">
      <path clip-path="url(#pb8b874c0f3)" d="M 127.330502 509.684579 
L 127.330502 17.798438 
" style="fill:none;stroke:#b0b0b0;stroke-linecap:square;stroke-width:0.8;"/>
     </g>
     <g id="line2d_2">
      <defs>
       <path d="M 0 0 
L 0 3.5 
" id="mfc6c9cab11" style="stroke:#000000;stroke-width:0.8;"/>
      </defs>
      <g>
       <use style="stroke:#000000;stroke-width:0.8;" x="127.330502" xlink:href="#mfc6c9cab11" y="509.684579"/>
      </g>
     </g>
     <g id="text_1">
      <!-- b'STORAGE_IN' -->
      <defs>
       <path d="M 48.6875 27.296875 
Q 48.6875 37.203125 44.609375 42.84375 
Q 40.53125 48.484375 33.40625 48.484375 
Q 26.265625 48.484375 22.1875 42.84375 
Q 18.109375 37.203125 18.109375 27.296875 
Q 18.109375 17.390625 22.1875 11.75 
Q 26.265625 6.109375 33.40625 6.109375 
Q 40.53125 6.109375 44.609375 11.75 
Q 48.6875 17.390625 48.6875 27.296875 
z
M 18.109375 46.390625 
Q 20.953125 51.265625 25.265625 53.625 
Q 29.59375 56 35.59375 56 
Q 45.5625 56 51.78125 48.09375 
Q 58.015625 40.1875 58.015625 27.296875 
Q 58.015625 14.40625 51.78125 6.484375 
Q 45.5625 -1.421875 35.59375 -1.421875 
Q 29.59375 -1.421875 25.265625 0.953125 
Q 20.953125 3.328125 18.109375 8.203125 
L 18.109375 0 
L 9.078125 0 
L 9.078125 75.984375 
L 18.109375 75.984375 
z
" id="DejaVuSans-98"/>
       <path d="M 17.921875 72.90625 
L 17.921875 45.796875 
L 9.625 45.796875 
L 9.625 72.90625 
z
" id="DejaVuSans-39"/>
       <path d="M 53.515625 70.515625 
L 53.515625 60.890625 
Q 47.90625 63.578125 42.921875 64.890625 
Q 37.9375 66.21875 33.296875 66.21875 
Q 25.25 66.21875 20.875 63.09375 
Q 16.5 59.96875 16.5 54.203125 
Q 16.5 49.359375 19.40625 46.890625 
Q 22.3125 44.4375 30.421875 42.921875 
L 36.375 41.703125 
Q 47.40625 39.59375 52.65625 34.296875 
Q 57.90625 29 57.90625 20.125 
Q 57.90625 9.515625 50.796875 4.046875 
Q 43.703125 -1.421875 29.984375 -1.421875 
Q 24.8125 -1.421875 18.96875 -0.25 
Q 13.140625 0.921875 6.890625 3.21875 
L 6.890625 13.375 
Q 12.890625 10.015625 18.65625 8.296875 
Q 24.421875 6.59375 29.984375 6.59375 
Q 38.421875 6.59375 43.015625 9.90625 
Q 47.609375 13.234375 47.609375 19.390625 
Q 47.609375 24.75 44.3125 27.78125 
Q 41.015625 30.8125 33.5 32.328125 
L 27.484375 33.5 
Q 16.453125 35.6875 11.515625 40.375 
Q 6.59375 45.0625 6.59375 53.421875 
Q 6.59375 63.09375 13.40625 68.65625 
Q 20.21875 74.21875 32.171875 74.21875 
Q 37.3125 74.21875 42.625 73.28125 
Q 47.953125 72.359375 53.515625 70.515625 
z
" id="DejaVuSans-83"/>
       <path d="M -0.296875 72.90625 
L 61.375 72.90625 
L 61.375 64.59375 
L 35.5 64.59375 
L 35.5 0 
L 25.59375 0 
L 25.59375 64.59375 
L -0.296875 64.59375 
z
" id="DejaVuSans-84"/>
       <path d="M 39.40625 66.21875 
Q 28.65625 66.21875 22.328125 58.203125 
Q 16.015625 50.203125 16.015625 36.375 
Q 16.015625 22.609375 22.328125 14.59375 
Q 28.65625 6.59375 39.40625 6.59375 
Q 50.140625 6.59375 56.421875 14.59375 
Q 62.703125 22.609375 62.703125 36.375 
Q 62.703125 50.203125 56.421875 58.203125 
Q 50.140625 66.21875 39.40625 66.21875 
z
M 39.40625 74.21875 
Q 54.734375 74.21875 63.90625 63.9375 
Q 73.09375 53.65625 73.09375 36.375 
Q 73.09375 19.140625 63.90625 8.859375 
Q 54.734375 -1.421875 39.40625 -1.421875 
Q 24.03125 -1.421875 14.8125 8.828125 
Q 5.609375 19.09375 5.609375 36.375 
Q 5.609375 53.65625 14.8125 63.9375 
Q 24.03125 74.21875 39.40625 74.21875 
z
" id="DejaVuSans-79"/>
       <path d="M 44.390625 34.1875 
Q 47.5625 33.109375 50.5625 29.59375 
Q 53.5625 26.078125 56.59375 19.921875 
L 66.609375 0 
L 56 0 
L 46.6875 18.703125 
Q 43.0625 26.03125 39.671875 28.421875 
Q 36.28125 30.8125 30.421875 30.8125 
L 19.671875 30.8125 
L 19.671875 0 
L 9.8125 0 
L 9.8125 72.90625 
L 32.078125 72.90625 
Q 44.578125 72.90625 50.734375 67.671875 
Q 56.890625 62.453125 56.890625 51.90625 
Q 56.890625 45.015625 53.6875 40.46875 
Q 50.484375 35.9375 44.390625 34.1875 
z
M 19.671875 64.796875 
L 19.671875 38.921875 
L 32.078125 38.921875 
Q 39.203125 38.921875 42.84375 42.21875 
Q 46.484375 45.515625 46.484375 51.90625 
Q 46.484375 58.296875 42.84375 61.546875 
Q 39.203125 64.796875 32.078125 64.796875 
z
" id="DejaVuSans-82"/>
       <path d="M 34.1875 63.1875 
L 20.796875 26.90625 
L 47.609375 26.90625 
z
M 28.609375 72.90625 
L 39.796875 72.90625 
L 67.578125 0 
L 57.328125 0 
L 50.6875 18.703125 
L 17.828125 18.703125 
L 11.1875 0 
L 0.78125 0 
z
" id="DejaVuSans-65"/>
       <path d="M 59.515625 10.40625 
L 59.515625 29.984375 
L 43.40625 29.984375 
L 43.40625 38.09375 
L 69.28125 38.09375 
L 69.28125 6.78125 
Q 63.578125 2.734375 56.6875 0.65625 
Q 49.8125 -1.421875 42 -1.421875 
Q 24.90625 -1.421875 15.25 8.5625 
Q 5.609375 18.5625 5.609375 36.375 
Q 5.609375 54.25 15.25 64.234375 
Q 24.90625 74.21875 42 74.21875 
Q 49.125 74.21875 55.546875 72.453125 
Q 61.96875 70.703125 67.390625 67.28125 
L 67.390625 56.78125 
Q 61.921875 61.421875 55.765625 63.765625 
Q 49.609375 66.109375 42.828125 66.109375 
Q 29.4375 66.109375 22.71875 58.640625 
Q 16.015625 51.171875 16.015625 36.375 
Q 16.015625 21.625 22.71875 14.15625 
Q 29.4375 6.6875 42.828125 6.6875 
Q 48.046875 6.6875 52.140625 7.59375 
Q 56.25 8.5 59.515625 10.40625 
z
" id="DejaVuSans-71"/>
       <path d="M 9.8125 72.90625 
L 55.90625 72.90625 
L 55.90625 64.59375 
L 19.671875 64.59375 
L 19.671875 43.015625 
L 54.390625 43.015625 
L 54.390625 34.71875 
L 19.671875 34.71875 
L 19.671875 8.296875 
L 56.78125 8.296875 
L 56.78125 0 
L 9.8125 0 
z
" id="DejaVuSans-69"/>
       <path d="M 50.984375 -16.609375 
L 50.984375 -23.578125 
L -0.984375 -23.578125 
L -0.984375 -16.609375 
z
" id="DejaVuSans-95"/>
       <path d="M 9.8125 72.90625 
L 19.671875 72.90625 
L 19.671875 0 
L 9.8125 0 
z
" id="DejaVuSans-73"/>
       <path d="M 9.8125 72.90625 
L 23.09375 72.90625 
L 55.421875 11.921875 
L 55.421875 72.90625 
L 64.984375 72.90625 
L 64.984375 0 
L 51.703125 0 
L 19.390625 60.984375 
L 19.390625 0 
L 9.8125 0 
z
" id="DejaVuSans-78"/>
      </defs>
      <g transform="translate(112.5565 551.679735)rotate(-45)scale(0.06 -0.06)">
       <use xlink:href="#DejaVuSans-98"/>
       <use x="63.476562" xlink:href="#DejaVuSans-39"/>
       <use x="90.966797" xlink:href="#DejaVuSans-83"/>
       <use x="154.443359" xlink:href="#DejaVuSans-84"/>
       <use x="215.527344" xlink:href="#DejaVuSans-79"/>
       <use x="294.238281" xlink:href="#DejaVuSans-82"/>
       <use x="359.720703" xlink:href="#DejaVuSans-65"/>
       <use x="426.378906" xlink:href="#DejaVuSans-71"/>
       <use x="503.869141" xlink:href="#DejaVuSans-69"/>
       <use x="567.052734" xlink:href="#DejaVuSans-95"/>
       <use x="617.052734" xlink:href="#DejaVuSans-73"/>
       <use x="646.544922" xlink:href="#DejaVuSans-78"/>
       <use x="721.349609" xlink:href="#DejaVuSans-39"/>
      </g>
     </g>
    </g>
    <g id="xtick_2">
     <g id="line2d_3">
      <path clip-path="url(#pb8b874c0f3)" d="M 200.916743 509.684579 
L 200.916743 17.798438 
" style="fill:none;stroke:#b0b0b0;stroke-linecap:square;stroke-width:0.8;"/>
     </g>
     <g id="line2d_4">
      <g>
       <use style="stroke:#000000;stroke-width:0.8;" x="200.916743" xlink:href="#mfc6c9cab11" y="509.684579"/>
      </g>
     </g>
     <g id="text_2">
      <!-- b'CONSTANT_HEAD_IN' -->
      <defs>
       <path d="M 64.40625 67.28125 
L 64.40625 56.890625 
Q 59.421875 61.53125 53.78125 63.8125 
Q 48.140625 66.109375 41.796875 66.109375 
Q 29.296875 66.109375 22.65625 58.46875 
Q 16.015625 50.828125 16.015625 36.375 
Q 16.015625 21.96875 22.65625 14.328125 
Q 29.296875 6.6875 41.796875 6.6875 
Q 48.140625 6.6875 53.78125 8.984375 
Q 59.421875 11.28125 64.40625 15.921875 
L 64.40625 5.609375 
Q 59.234375 2.09375 53.4375 0.328125 
Q 47.65625 -1.421875 41.21875 -1.421875 
Q 24.65625 -1.421875 15.125 8.703125 
Q 5.609375 18.84375 5.609375 36.375 
Q 5.609375 53.953125 15.125 64.078125 
Q 24.65625 74.21875 41.21875 74.21875 
Q 47.75 74.21875 53.53125 72.484375 
Q 59.328125 70.75 64.40625 67.28125 
z
" id="DejaVuSans-67"/>
       <path d="M 9.8125 72.90625 
L 19.671875 72.90625 
L 19.671875 43.015625 
L 55.515625 43.015625 
L 55.515625 72.90625 
L 65.375 72.90625 
L 65.375 0 
L 55.515625 0 
L 55.515625 34.71875 
L 19.671875 34.71875 
L 19.671875 0 
L 9.8125 0 
z
" id="DejaVuSans-72"/>
       <path d="M 19.671875 64.796875 
L 19.671875 8.109375 
L 31.59375 8.109375 
Q 46.6875 8.109375 53.6875 14.9375 
Q 60.6875 21.78125 60.6875 36.53125 
Q 60.6875 51.171875 53.6875 57.984375 
Q 46.6875 64.796875 31.59375 64.796875 
z
M 9.8125 72.90625 
L 30.078125 72.90625 
Q 51.265625 72.90625 61.171875 64.09375 
Q 71.09375 55.28125 71.09375 36.53125 
Q 71.09375 17.671875 61.125 8.828125 
Q 51.171875 0 30.078125 0 
L 9.8125 0 
z
" id="DejaVuSans-68"/>
      </defs>
      <g transform="translate(177.611387 568.742443)rotate(-45)scale(0.06 -0.06)">
       <use xlink:href="#DejaVuSans-98"/>
       <use x="63.476562" xlink:href="#DejaVuSans-39"/>
       <use x="90.966797" xlink:href="#DejaVuSans-67"/>
       <use x="160.791016" xlink:href="#DejaVuSans-79"/>
       <use x="239.501953" xlink:href="#DejaVuSans-78"/>
       <use x="314.306641" xlink:href="#DejaVuSans-83"/>
       <use x="377.783203" xlink:href="#DejaVuSans-84"/>
       <use x="431.117188" xlink:href="#DejaVuSans-65"/>
       <use x="499.525391" xlink:href="#DejaVuSans-78"/>
       <use x="574.330078" xlink:href="#DejaVuSans-84"/>
       <use x="635.414062" xlink:href="#DejaVuSans-95"/>
       <use x="685.414062" xlink:href="#DejaVuSans-72"/>
       <use x="760.609375" xlink:href="#DejaVuSans-69"/>
       <use x="823.792969" xlink:href="#DejaVuSans-65"/>
       <use x="892.201172" xlink:href="#DejaVuSans-68"/>
       <use x="969.203125" xlink:href="#DejaVuSans-95"/>
       <use x="1019.203125" xlink:href="#DejaVuSans-73"/>
       <use x="1048.695312" xlink:href="#DejaVuSans-78"/>
       <use x="1123.5" xlink:href="#DejaVuSans-39"/>
      </g>
     </g>
    </g>
    <g id="xtick_3">
     <g id="line2d_5">
      <path clip-path="url(#pb8b874c0f3)" d="M 274.502984 509.684579 
L 274.502984 17.798438 
" style="fill:none;stroke:#b0b0b0;stroke-linecap:square;stroke-width:0.8;"/>
     </g>
     <g id="line2d_6">
      <g>
       <use style="stroke:#000000;stroke-width:0.8;" x="274.502984" xlink:href="#mfc6c9cab11" y="509.684579"/>
      </g>
     </g>
     <g id="text_3">
      <!-- b'WELLS_IN' -->
      <defs>
       <path d="M 3.328125 72.90625 
L 13.28125 72.90625 
L 28.609375 11.28125 
L 43.890625 72.90625 
L 54.984375 72.90625 
L 70.3125 11.28125 
L 85.59375 72.90625 
L 95.609375 72.90625 
L 77.296875 0 
L 64.890625 0 
L 49.515625 63.28125 
L 33.984375 0 
L 21.578125 0 
z
" id="DejaVuSans-87"/>
       <path d="M 9.8125 72.90625 
L 19.671875 72.90625 
L 19.671875 8.296875 
L 55.171875 8.296875 
L 55.171875 0 
L 9.8125 0 
z
" id="DejaVuSans-76"/>
      </defs>
      <g transform="translate(262.679937 545.777825)rotate(-45)scale(0.06 -0.06)">
       <use xlink:href="#DejaVuSans-98"/>
       <use x="63.476562" xlink:href="#DejaVuSans-39"/>
       <use x="90.966797" xlink:href="#DejaVuSans-87"/>
       <use x="189.84375" xlink:href="#DejaVuSans-69"/>
       <use x="253.027344" xlink:href="#DejaVuSans-76"/>
       <use x="308.740234" xlink:href="#DejaVuSans-76"/>
       <use x="364.453125" xlink:href="#DejaVuSans-83"/>
       <use x="427.929688" xlink:href="#DejaVuSans-95"/>
       <use x="477.929688" xlink:href="#DejaVuSans-73"/>
       <use x="507.421875" xlink:href="#DejaVuSans-78"/>
       <use x="582.226562" xlink:href="#DejaVuSans-39"/>
      </g>
     </g>
    </g>
    <g id="xtick_4">
     <g id="line2d_7">
      <path clip-path="url(#pb8b874c0f3)" d="M 348.089224 509.684579 
L 348.089224 17.798438 
" style="fill:none;stroke:#b0b0b0;stroke-linecap:square;stroke-width:0.8;"/>
     </g>
     <g id="line2d_8">
      <g>
       <use style="stroke:#000000;stroke-width:0.8;" x="348.089224" xlink:href="#mfc6c9cab11" y="509.684579"/>
      </g>
     </g>
     <g id="text_4">
      <!-- b'RIVER_LEAKAGE_IN' -->
      <defs>
       <path d="M 28.609375 0 
L 0.78125 72.90625 
L 11.078125 72.90625 
L 34.1875 11.53125 
L 57.328125 72.90625 
L 67.578125 72.90625 
L 39.796875 0 
z
" id="DejaVuSans-86"/>
       <path d="M 9.8125 72.90625 
L 19.671875 72.90625 
L 19.671875 42.09375 
L 52.390625 72.90625 
L 65.09375 72.90625 
L 28.90625 38.921875 
L 67.671875 0 
L 54.6875 0 
L 19.671875 35.109375 
L 19.671875 0 
L 9.8125 0 
z
" id="DejaVuSans-75"/>
      </defs>
      <g transform="translate(326.263158 565.783864)rotate(-45)scale(0.06 -0.06)">
       <use xlink:href="#DejaVuSans-98"/>
       <use x="63.476562" xlink:href="#DejaVuSans-39"/>
       <use x="90.966797" xlink:href="#DejaVuSans-82"/>
       <use x="160.449219" xlink:href="#DejaVuSans-73"/>
       <use x="189.941406" xlink:href="#DejaVuSans-86"/>
       <use x="258.349609" xlink:href="#DejaVuSans-69"/>
       <use x="321.533203" xlink:href="#DejaVuSans-82"/>
       <use x="391.015625" xlink:href="#DejaVuSans-95"/>
       <use x="441.015625" xlink:href="#DejaVuSans-76"/>
       <use x="496.728516" xlink:href="#DejaVuSans-69"/>
       <use x="559.912109" xlink:href="#DejaVuSans-65"/>
       <use x="628.320312" xlink:href="#DejaVuSans-75"/>
       <use x="692.146484" xlink:href="#DejaVuSans-65"/>
       <use x="758.804688" xlink:href="#DejaVuSans-71"/>
       <use x="836.294922" xlink:href="#DejaVuSans-69"/>
       <use x="899.478516" xlink:href="#DejaVuSans-95"/>
       <use x="949.478516" xlink:href="#DejaVuSans-73"/>
       <use x="978.970703" xlink:href="#DejaVuSans-78"/>
       <use x="1053.775391" xlink:href="#DejaVuSans-39"/>
      </g>
     </g>
    </g>
    <g id="xtick_5">
     <g id="line2d_9">
      <path clip-path="url(#pb8b874c0f3)" d="M 421.675465 509.684579 
L 421.675465 17.798438 
" style="fill:none;stroke:#b0b0b0;stroke-linecap:square;stroke-width:0.8;"/>
     </g>
     <g id="line2d_10">
      <g>
       <use style="stroke:#000000;stroke-width:0.8;" x="421.675465" xlink:href="#mfc6c9cab11" y="509.684579"/>
      </g>
     </g>
     <g id="text_5">
      <!-- b'RECHARGE_IN' -->
      <g transform="translate(405.200761 555.08114)rotate(-45)scale(0.06 -0.06)">
       <use xlink:href="#DejaVuSans-98"/>
       <use x="63.476562" xlink:href="#DejaVuSans-39"/>
       <use x="90.966797" xlink:href="#DejaVuSans-82"/>
       <use x="160.449219" xlink:href="#DejaVuSans-69"/>
       <use x="223.632812" xlink:href="#DejaVuSans-67"/>
       <use x="293.457031" xlink:href="#DejaVuSans-72"/>
       <use x="368.652344" xlink:href="#DejaVuSans-65"/>
       <use x="437.060547" xlink:href="#DejaVuSans-82"/>
       <use x="506.542969" xlink:href="#DejaVuSans-71"/>
       <use x="584.033203" xlink:href="#DejaVuSans-69"/>
       <use x="647.216797" xlink:href="#DejaVuSans-95"/>
       <use x="697.216797" xlink:href="#DejaVuSans-73"/>
       <use x="726.708984" xlink:href="#DejaVuSans-78"/>
       <use x="801.513672" xlink:href="#DejaVuSans-39"/>
      </g>
     </g>
    </g>
    <g id="xtick_6">
     <g id="line2d_11">
      <path clip-path="url(#pb8b874c0f3)" d="M 495.261706 509.684579 
L 495.261706 17.798438 
" style="fill:none;stroke:#b0b0b0;stroke-linecap:square;stroke-width:0.8;"/>
     </g>
     <g id="line2d_12">
      <g>
       <use style="stroke:#000000;stroke-width:0.8;" x="495.261706" xlink:href="#mfc6c9cab11" y="509.684579"/>
      </g>
     </g>
     <g id="text_6">
      <!-- b'TOTAL_IN' -->
      <g transform="translate(483.857289 544.940566)rotate(-45)scale(0.06 -0.06)">
       <use xlink:href="#DejaVuSans-98"/>
       <use x="63.476562" xlink:href="#DejaVuSans-39"/>
       <use x="90.966797" xlink:href="#DejaVuSans-84"/>
       <use x="152.050781" xlink:href="#DejaVuSans-79"/>
       <use x="230.761719" xlink:href="#DejaVuSans-84"/>
       <use x="284.095703" xlink:href="#DejaVuSans-65"/>
       <use x="352.503906" xlink:href="#DejaVuSans-76"/>
       <use x="408.216797" xlink:href="#DejaVuSans-95"/>
       <use x="458.216797" xlink:href="#DejaVuSans-73"/>
       <use x="487.708984" xlink:href="#DejaVuSans-78"/>
       <use x="562.513672" xlink:href="#DejaVuSans-39"/>
      </g>
     </g>
    </g>
    <g id="xtick_7">
     <g id="line2d_13">
      <path clip-path="url(#pb8b874c0f3)" d="M 568.847947 509.684579 
L 568.847947 17.798438 
" style="fill:none;stroke:#b0b0b0;stroke-linecap:square;stroke-width:0.8;"/>
     </g>
     <g id="line2d_14">
      <g>
       <use style="stroke:#000000;stroke-width:0.8;" x="568.847947" xlink:href="#mfc6c9cab11" y="509.684579"/>
      </g>
     </g>
     <g id="text_7">
      <!-- b'STORAGE_OUT' -->
      <defs>
       <path d="M 8.6875 72.90625 
L 18.609375 72.90625 
L 18.609375 28.609375 
Q 18.609375 16.890625 22.84375 11.734375 
Q 27.09375 6.59375 36.625 6.59375 
Q 46.09375 6.59375 50.34375 11.734375 
Q 54.59375 16.890625 54.59375 28.609375 
L 54.59375 72.90625 
L 64.5 72.90625 
L 64.5 27.390625 
Q 64.5 13.140625 57.4375 5.859375 
Q 50.390625 -1.421875 36.625 -1.421875 
Q 22.796875 -1.421875 15.734375 5.859375 
Q 8.6875 13.140625 8.6875 27.390625 
z
" id="DejaVuSans-85"/>
      </defs>
      <g transform="translate(551.768666 556.290293)rotate(-45)scale(0.06 -0.06)">
       <use xlink:href="#DejaVuSans-98"/>
       <use x="63.476562" xlink:href="#DejaVuSans-39"/>
       <use x="90.966797" xlink:href="#DejaVuSans-83"/>
       <use x="154.443359" xlink:href="#DejaVuSans-84"/>
       <use x="215.527344" xlink:href="#DejaVuSans-79"/>
       <use x="294.238281" xlink:href="#DejaVuSans-82"/>
       <use x="359.720703" xlink:href="#DejaVuSans-65"/>
       <use x="426.378906" xlink:href="#DejaVuSans-71"/>
       <use x="503.869141" xlink:href="#DejaVuSans-69"/>
       <use x="567.052734" xlink:href="#DejaVuSans-95"/>
       <use x="617.052734" xlink:href="#DejaVuSans-79"/>
       <use x="695.763672" xlink:href="#DejaVuSans-85"/>
       <use x="768.957031" xlink:href="#DejaVuSans-84"/>
       <use x="830.041016" xlink:href="#DejaVuSans-39"/>
      </g>
     </g>
    </g>
    <g id="xtick_8">
     <g id="line2d_15">
      <path clip-path="url(#pb8b874c0f3)" d="M 642.434187 509.684579 
L 642.434187 17.798438 
" style="fill:none;stroke:#b0b0b0;stroke-linecap:square;stroke-width:0.8;"/>
     </g>
     <g id="line2d_16">
      <g>
       <use style="stroke:#000000;stroke-width:0.8;" x="642.434187" xlink:href="#mfc6c9cab11" y="509.684579"/>
      </g>
     </g>
     <g id="text_8">
      <!-- b'CONSTANT_HEAD_OUT' -->
      <g transform="translate(616.823553 573.353)rotate(-45)scale(0.06 -0.06)">
       <use xlink:href="#DejaVuSans-98"/>
       <use x="63.476562" xlink:href="#DejaVuSans-39"/>
       <use x="90.966797" xlink:href="#DejaVuSans-67"/>
       <use x="160.791016" xlink:href="#DejaVuSans-79"/>
       <use x="239.501953" xlink:href="#DejaVuSans-78"/>
       <use x="314.306641" xlink:href="#DejaVuSans-83"/>
       <use x="377.783203" xlink:href="#DejaVuSans-84"/>
       <use x="431.117188" xlink:href="#DejaVuSans-65"/>
       <use x="499.525391" xlink:href="#DejaVuSans-78"/>
       <use x="574.330078" xlink:href="#DejaVuSans-84"/>
       <use x="635.414062" xlink:href="#DejaVuSans-95"/>
       <use x="685.414062" xlink:href="#DejaVuSans-72"/>
       <use x="760.609375" xlink:href="#DejaVuSans-69"/>
       <use x="823.792969" xlink:href="#DejaVuSans-65"/>
       <use x="892.201172" xlink:href="#DejaVuSans-68"/>
       <use x="969.203125" xlink:href="#DejaVuSans-95"/>
       <use x="1019.203125" xlink:href="#DejaVuSans-79"/>
       <use x="1097.914062" xlink:href="#DejaVuSans-85"/>
       <use x="1171.107422" xlink:href="#DejaVuSans-84"/>
       <use x="1232.191406" xlink:href="#DejaVuSans-39"/>
      </g>
     </g>
    </g>
    <g id="xtick_9">
     <g id="line2d_17">
      <path clip-path="url(#pb8b874c0f3)" d="M 716.020428 509.684579 
L 716.020428 17.798438 
" style="fill:none;stroke:#b0b0b0;stroke-linecap:square;stroke-width:0.8;"/>
     </g>
     <g id="line2d_18">
      <g>
       <use style="stroke:#000000;stroke-width:0.8;" x="716.020428" xlink:href="#mfc6c9cab11" y="509.684579"/>
      </g>
     </g>
     <g id="text_9">
      <!-- b'WELLS_OUT' -->
      <g transform="translate(701.892103 550.388382)rotate(-45)scale(0.06 -0.06)">
       <use xlink:href="#DejaVuSans-98"/>
       <use x="63.476562" xlink:href="#DejaVuSans-39"/>
       <use x="90.966797" xlink:href="#DejaVuSans-87"/>
       <use x="189.84375" xlink:href="#DejaVuSans-69"/>
       <use x="253.027344" xlink:href="#DejaVuSans-76"/>
       <use x="308.740234" xlink:href="#DejaVuSans-76"/>
       <use x="364.453125" xlink:href="#DejaVuSans-83"/>
       <use x="427.929688" xlink:href="#DejaVuSans-95"/>
       <use x="477.929688" xlink:href="#DejaVuSans-79"/>
       <use x="556.640625" xlink:href="#DejaVuSans-85"/>
       <use x="629.833984" xlink:href="#DejaVuSans-84"/>
       <use x="690.917969" xlink:href="#DejaVuSans-39"/>
      </g>
     </g>
    </g>
    <g id="xtick_10">
     <g id="line2d_19">
      <path clip-path="url(#pb8b874c0f3)" d="M 789.606669 509.684579 
L 789.606669 17.798438 
" style="fill:none;stroke:#b0b0b0;stroke-linecap:square;stroke-width:0.8;"/>
     </g>
     <g id="line2d_20">
      <g>
       <use style="stroke:#000000;stroke-width:0.8;" x="789.606669" xlink:href="#mfc6c9cab11" y="509.684579"/>
      </g>
     </g>
     <g id="text_10">
      <!-- b'RIVER_LEAKAGE_OUT' -->
      <g transform="translate(765.475324 570.394421)rotate(-45)scale(0.06 -0.06)">
       <use xlink:href="#DejaVuSans-98"/>
       <use x="63.476562" xlink:href="#DejaVuSans-39"/>
       <use x="90.966797" xlink:href="#DejaVuSans-82"/>
       <use x="160.449219" xlink:href="#DejaVuSans-73"/>
       <use x="189.941406" xlink:href="#DejaVuSans-86"/>
       <use x="258.349609" xlink:href="#DejaVuSans-69"/>
       <use x="321.533203" xlink:href="#DejaVuSans-82"/>
       <use x="391.015625" xlink:href="#DejaVuSans-95"/>
       <use x="441.015625" xlink:href="#DejaVuSans-76"/>
       <use x="496.728516" xlink:href="#DejaVuSans-69"/>
       <use x="559.912109" xlink:href="#DejaVuSans-65"/>
       <use x="628.320312" xlink:href="#DejaVuSans-75"/>
       <use x="692.146484" xlink:href="#DejaVuSans-65"/>
       <use x="758.804688" xlink:href="#DejaVuSans-71"/>
       <use x="836.294922" xlink:href="#DejaVuSans-69"/>
       <use x="899.478516" xlink:href="#DejaVuSans-95"/>
       <use x="949.478516" xlink:href="#DejaVuSans-79"/>
       <use x="1028.189453" xlink:href="#DejaVuSans-85"/>
       <use x="1101.382812" xlink:href="#DejaVuSans-84"/>
       <use x="1162.466797" xlink:href="#DejaVuSans-39"/>
      </g>
     </g>
    </g>
    <g id="xtick_11">
     <g id="line2d_21">
      <path clip-path="url(#pb8b874c0f3)" d="M 863.19291 509.684579 
L 863.19291 17.798438 
" style="fill:none;stroke:#b0b0b0;stroke-linecap:square;stroke-width:0.8;"/>
     </g>
     <g id="line2d_22">
      <g>
       <use style="stroke:#000000;stroke-width:0.8;" x="863.19291" xlink:href="#mfc6c9cab11" y="509.684579"/>
      </g>
     </g>
     <g id="text_11">
      <!-- b'RECHARGE_OUT' -->
      <g transform="translate(844.412927 559.691697)rotate(-45)scale(0.06 -0.06)">
       <use xlink:href="#DejaVuSans-98"/>
       <use x="63.476562" xlink:href="#DejaVuSans-39"/>
       <use x="90.966797" xlink:href="#DejaVuSans-82"/>
       <use x="160.449219" xlink:href="#DejaVuSans-69"/>
       <use x="223.632812" xlink:href="#DejaVuSans-67"/>
       <use x="293.457031" xlink:href="#DejaVuSans-72"/>
       <use x="368.652344" xlink:href="#DejaVuSans-65"/>
       <use x="437.060547" xlink:href="#DejaVuSans-82"/>
       <use x="506.542969" xlink:href="#DejaVuSans-71"/>
       <use x="584.033203" xlink:href="#DejaVuSans-69"/>
       <use x="647.216797" xlink:href="#DejaVuSans-95"/>
       <use x="697.216797" xlink:href="#DejaVuSans-79"/>
       <use x="775.927734" xlink:href="#DejaVuSans-85"/>
       <use x="849.121094" xlink:href="#DejaVuSans-84"/>
       <use x="910.205078" xlink:href="#DejaVuSans-39"/>
      </g>
     </g>
    </g>
    <g id="xtick_12">
     <g id="line2d_23">
      <path clip-path="url(#pb8b874c0f3)" d="M 936.779151 509.684579 
L 936.779151 17.798438 
" style="fill:none;stroke:#b0b0b0;stroke-linecap:square;stroke-width:0.8;"/>
     </g>
     <g id="line2d_24">
      <g>
       <use style="stroke:#000000;stroke-width:0.8;" x="936.779151" xlink:href="#mfc6c9cab11" y="509.684579"/>
      </g>
     </g>
     <g id="text_12">
      <!-- b'TOTAL_OUT' -->
      <g transform="translate(923.069455 549.551123)rotate(-45)scale(0.06 -0.06)">
       <use xlink:href="#DejaVuSans-98"/>
       <use x="63.476562" xlink:href="#DejaVuSans-39"/>
       <use x="90.966797" xlink:href="#DejaVuSans-84"/>
       <use x="152.050781" xlink:href="#DejaVuSans-79"/>
       <use x="230.761719" xlink:href="#DejaVuSans-84"/>
       <use x="284.095703" xlink:href="#DejaVuSans-65"/>
       <use x="352.503906" xlink:href="#DejaVuSans-76"/>
       <use x="408.216797" xlink:href="#DejaVuSans-95"/>
       <use x="458.216797" xlink:href="#DejaVuSans-79"/>
       <use x="536.927734" xlink:href="#DejaVuSans-85"/>
       <use x="610.121094" xlink:href="#DejaVuSans-84"/>
       <use x="671.205078" xlink:href="#DejaVuSans-39"/>
      </g>
     </g>
    </g>
    <g id="xtick_13">
     <g id="line2d_25">
      <path clip-path="url(#pb8b874c0f3)" d="M 1010.365391 509.684579 
L 1010.365391 17.798438 
" style="fill:none;stroke:#b0b0b0;stroke-linecap:square;stroke-width:0.8;"/>
     </g>
     <g id="line2d_26">
      <g>
       <use style="stroke:#000000;stroke-width:0.8;" x="1010.365391" xlink:href="#mfc6c9cab11" y="509.684579"/>
      </g>
     </g>
     <g id="text_13">
      <!-- b'IN-OUT' -->
      <defs>
       <path d="M 4.890625 31.390625 
L 31.203125 31.390625 
L 31.203125 23.390625 
L 4.890625 23.390625 
z
" id="DejaVuSans-45"/>
      </defs>
      <g transform="translate(1001.468773 540.042968)rotate(-45)scale(0.06 -0.06)">
       <use xlink:href="#DejaVuSans-98"/>
       <use x="63.476562" xlink:href="#DejaVuSans-39"/>
       <use x="90.966797" xlink:href="#DejaVuSans-73"/>
       <use x="120.458984" xlink:href="#DejaVuSans-78"/>
       <use x="195.263672" xlink:href="#DejaVuSans-45"/>
       <use x="234.097656" xlink:href="#DejaVuSans-79"/>
       <use x="312.808594" xlink:href="#DejaVuSans-85"/>
       <use x="386.001953" xlink:href="#DejaVuSans-84"/>
       <use x="447.085938" xlink:href="#DejaVuSans-39"/>
      </g>
     </g>
    </g>
    <g id="xtick_14">
     <g id="line2d_27">
      <path clip-path="url(#pb8b874c0f3)" d="M 1083.951632 509.684579 
L 1083.951632 17.798438 
" style="fill:none;stroke:#b0b0b0;stroke-linecap:square;stroke-width:0.8;"/>
     </g>
     <g id="line2d_28">
      <g>
       <use style="stroke:#000000;stroke-width:0.8;" x="1083.951632" xlink:href="#mfc6c9cab11" y="509.684579"/>
      </g>
     </g>
     <g id="text_14">
      <!-- b'PERCENT_DISCREPANCY' -->
      <defs>
       <path d="M 19.671875 64.796875 
L 19.671875 37.40625 
L 32.078125 37.40625 
Q 38.96875 37.40625 42.71875 40.96875 
Q 46.484375 44.53125 46.484375 51.125 
Q 46.484375 57.671875 42.71875 61.234375 
Q 38.96875 64.796875 32.078125 64.796875 
z
M 9.8125 72.90625 
L 32.078125 72.90625 
Q 44.34375 72.90625 50.609375 67.359375 
Q 56.890625 61.8125 56.890625 51.125 
Q 56.890625 40.328125 50.609375 34.8125 
Q 44.34375 29.296875 32.078125 29.296875 
L 19.671875 29.296875 
L 19.671875 0 
L 9.8125 0 
z
" id="DejaVuSans-80"/>
       <path d="M -0.203125 72.90625 
L 10.40625 72.90625 
L 30.609375 42.921875 
L 50.6875 72.90625 
L 61.28125 72.90625 
L 35.5 34.71875 
L 35.5 0 
L 25.59375 0 
L 25.59375 34.71875 
z
" id="DejaVuSans-89"/>
      </defs>
      <g transform="translate(1056.974735 576.085526)rotate(-45)scale(0.06 -0.06)">
       <use xlink:href="#DejaVuSans-98"/>
       <use x="63.476562" xlink:href="#DejaVuSans-39"/>
       <use x="90.966797" xlink:href="#DejaVuSans-80"/>
       <use x="151.269531" xlink:href="#DejaVuSans-69"/>
       <use x="214.453125" xlink:href="#DejaVuSans-82"/>
       <use x="278.935547" xlink:href="#DejaVuSans-67"/>
       <use x="348.759766" xlink:href="#DejaVuSans-69"/>
       <use x="411.943359" xlink:href="#DejaVuSans-78"/>
       <use x="486.748047" xlink:href="#DejaVuSans-84"/>
       <use x="547.832031" xlink:href="#DejaVuSans-95"/>
       <use x="597.832031" xlink:href="#DejaVuSans-68"/>
       <use x="674.833984" xlink:href="#DejaVuSans-73"/>
       <use x="704.326172" xlink:href="#DejaVuSans-83"/>
       <use x="767.802734" xlink:href="#DejaVuSans-67"/>
       <use x="837.626953" xlink:href="#DejaVuSans-82"/>
       <use x="907.109375" xlink:href="#DejaVuSans-69"/>
       <use x="970.292969" xlink:href="#DejaVuSans-80"/>
       <use x="1024.220703" xlink:href="#DejaVuSans-65"/>
       <use x="1092.628906" xlink:href="#DejaVuSans-78"/>
       <use x="1167.433594" xlink:href="#DejaVuSans-67"/>
       <use x="1235.507812" xlink:href="#DejaVuSans-89"/>
       <use x="1296.591797" xlink:href="#DejaVuSans-39"/>
      </g>
     </g>
    </g>
    <g id="xtick_15">
     <g id="line2d_29">
      <path clip-path="url(#pb8b874c0f3)" d="M 1157.537873 509.684579 
L 1157.537873 17.798438 
" style="fill:none;stroke:#b0b0b0;stroke-linecap:square;stroke-width:0.8;"/>
     </g>
     <g id="line2d_30">
      <g>
       <use style="stroke:#000000;stroke-width:0.8;" x="1157.537873" xlink:href="#mfc6c9cab11" y="509.684579"/>
      </g>
     </g>
     <g id="text_15">
      <!-- b'tslen' -->
      <defs>
       <path d="M 18.3125 70.21875 
L 18.3125 54.6875 
L 36.8125 54.6875 
L 36.8125 47.703125 
L 18.3125 47.703125 
L 18.3125 18.015625 
Q 18.3125 11.328125 20.140625 9.421875 
Q 21.96875 7.515625 27.59375 7.515625 
L 36.8125 7.515625 
L 36.8125 0 
L 27.59375 0 
Q 17.1875 0 13.234375 3.875 
Q 9.28125 7.765625 9.28125 18.015625 
L 9.28125 47.703125 
L 2.6875 47.703125 
L 2.6875 54.6875 
L 9.28125 54.6875 
L 9.28125 70.21875 
z
" id="DejaVuSans-116"/>
       <path d="M 44.28125 53.078125 
L 44.28125 44.578125 
Q 40.484375 46.53125 36.375 47.5 
Q 32.28125 48.484375 27.875 48.484375 
Q 21.1875 48.484375 17.84375 46.4375 
Q 14.5 44.390625 14.5 40.28125 
Q 14.5 37.15625 16.890625 35.375 
Q 19.28125 33.59375 26.515625 31.984375 
L 29.59375 31.296875 
Q 39.15625 29.25 43.1875 25.515625 
Q 47.21875 21.78125 47.21875 15.09375 
Q 47.21875 7.46875 41.1875 3.015625 
Q 35.15625 -1.421875 24.609375 -1.421875 
Q 20.21875 -1.421875 15.453125 -0.5625 
Q 10.6875 0.296875 5.421875 2 
L 5.421875 11.28125 
Q 10.40625 8.6875 15.234375 7.390625 
Q 20.0625 6.109375 24.8125 6.109375 
Q 31.15625 6.109375 34.5625 8.28125 
Q 37.984375 10.453125 37.984375 14.40625 
Q 37.984375 18.0625 35.515625 20.015625 
Q 33.0625 21.96875 24.703125 23.78125 
L 21.578125 24.515625 
Q 13.234375 26.265625 9.515625 29.90625 
Q 5.8125 33.546875 5.8125 39.890625 
Q 5.8125 47.609375 11.28125 51.796875 
Q 16.75 56 26.8125 56 
Q 31.78125 56 36.171875 55.265625 
Q 40.578125 54.546875 44.28125 53.078125 
z
" id="DejaVuSans-115"/>
       <path d="M 9.421875 75.984375 
L 18.40625 75.984375 
L 18.40625 0 
L 9.421875 0 
z
" id="DejaVuSans-108"/>
       <path d="M 56.203125 29.59375 
L 56.203125 25.203125 
L 14.890625 25.203125 
Q 15.484375 15.921875 20.484375 11.0625 
Q 25.484375 6.203125 34.421875 6.203125 
Q 39.59375 6.203125 44.453125 7.46875 
Q 49.3125 8.734375 54.109375 11.28125 
L 54.109375 2.78125 
Q 49.265625 0.734375 44.1875 -0.34375 
Q 39.109375 -1.421875 33.890625 -1.421875 
Q 20.796875 -1.421875 13.15625 6.1875 
Q 5.515625 13.8125 5.515625 26.8125 
Q 5.515625 40.234375 12.765625 48.109375 
Q 20.015625 56 32.328125 56 
Q 43.359375 56 49.78125 48.890625 
Q 56.203125 41.796875 56.203125 29.59375 
z
M 47.21875 32.234375 
Q 47.125 39.59375 43.09375 43.984375 
Q 39.0625 48.390625 32.421875 48.390625 
Q 24.90625 48.390625 20.390625 44.140625 
Q 15.875 39.890625 15.1875 32.171875 
z
" id="DejaVuSans-101"/>
       <path d="M 54.890625 33.015625 
L 54.890625 0 
L 45.90625 0 
L 45.90625 32.71875 
Q 45.90625 40.484375 42.875 44.328125 
Q 39.84375 48.1875 33.796875 48.1875 
Q 26.515625 48.1875 22.3125 43.546875 
Q 18.109375 38.921875 18.109375 30.90625 
L 18.109375 0 
L 9.078125 0 
L 9.078125 54.6875 
L 18.109375 54.6875 
L 18.109375 46.1875 
Q 21.34375 51.125 25.703125 53.5625 
Q 30.078125 56 35.796875 56 
Q 45.21875 56 50.046875 50.171875 
Q 54.890625 44.34375 54.890625 33.015625 
z
" id="DejaVuSans-110"/>
      </defs>
      <g transform="translate(1151.020116 535.285244)rotate(-45)scale(0.06 -0.06)">
       <use xlink:href="#DejaVuSans-98"/>
       <use x="63.476562" xlink:href="#DejaVuSans-39"/>
       <use x="90.966797" xlink:href="#DejaVuSans-116"/>
       <use x="130.175781" xlink:href="#DejaVuSans-115"/>
       <use x="182.275391" xlink:href="#DejaVuSans-108"/>
       <use x="210.058594" xlink:href="#DejaVuSans-101"/>
       <use x="271.582031" xlink:href="#DejaVuSans-110"/>
       <use x="334.960938" xlink:href="#DejaVuSans-39"/>
      </g>
     </g>
    </g>
   </g>
   <g id="matplotlib.axis_2">
    <g id="ytick_1">
     <g id="line2d_31">
      <path clip-path="url(#pb8b874c0f3)" d="M 43.442188 435.381749 
L 1241.426187 435.381749 
" style="fill:none;stroke:#b0b0b0;stroke-linecap:square;stroke-width:0.8;"/>
     </g>
     <g id="line2d_32">
      <defs>
       <path d="M 0 0 
L -3.5 0 
" id="m2ef5feddcd" style="stroke:#000000;stroke-width:0.8;"/>
      </defs>
      <g>
       <use style="stroke:#000000;stroke-width:0.8;" x="43.442188" xlink:href="#m2ef5feddcd" y="435.381749"/>
      </g>
     </g>
     <g id="text_16">
      <!-- −2 -->
      <defs>
       <path d="M 10.59375 35.5 
L 73.1875 35.5 
L 73.1875 27.203125 
L 10.59375 27.203125 
z
" id="DejaVuSans-8722"/>
       <path d="M 19.1875 8.296875 
L 53.609375 8.296875 
L 53.609375 0 
L 7.328125 0 
L 7.328125 8.296875 
Q 12.9375 14.109375 22.625 23.890625 
Q 32.328125 33.6875 34.8125 36.53125 
Q 39.546875 41.84375 41.421875 45.53125 
Q 43.3125 49.21875 43.3125 52.78125 
Q 43.3125 58.59375 39.234375 62.25 
Q 35.15625 65.921875 28.609375 65.921875 
Q 23.96875 65.921875 18.8125 64.3125 
Q 13.671875 62.703125 7.8125 59.421875 
L 7.8125 69.390625 
Q 13.765625 71.78125 18.9375 73 
Q 24.125 74.21875 28.421875 74.21875 
Q 39.75 74.21875 46.484375 68.546875 
Q 53.21875 62.890625 53.21875 53.421875 
Q 53.21875 48.921875 51.53125 44.890625 
Q 49.859375 40.875 45.40625 35.40625 
Q 44.1875 33.984375 37.640625 27.21875 
Q 31.109375 20.453125 19.1875 8.296875 
z
" id="DejaVuSans-50"/>
      </defs>
      <g transform="translate(21.7 439.180967)scale(0.1 -0.1)">
       <use xlink:href="#DejaVuSans-8722"/>
       <use x="83.789062" xlink:href="#DejaVuSans-50"/>
      </g>
     </g>
    </g>
    <g id="ytick_2">
     <g id="line2d_33">
      <path clip-path="url(#pb8b874c0f3)" d="M 43.442188 349.56148 
L 1241.426187 349.56148 
" style="fill:none;stroke:#b0b0b0;stroke-linecap:square;stroke-width:0.8;"/>
     </g>
     <g id="line2d_34">
      <g>
       <use style="stroke:#000000;stroke-width:0.8;" x="43.442188" xlink:href="#m2ef5feddcd" y="349.56148"/>
      </g>
     </g>
     <g id="text_17">
      <!-- −1 -->
      <defs>
       <path d="M 12.40625 8.296875 
L 28.515625 8.296875 
L 28.515625 63.921875 
L 10.984375 60.40625 
L 10.984375 69.390625 
L 28.421875 72.90625 
L 38.28125 72.90625 
L 38.28125 8.296875 
L 54.390625 8.296875 
L 54.390625 0 
L 12.40625 0 
z
" id="DejaVuSans-49"/>
      </defs>
      <g transform="translate(21.7 353.360699)scale(0.1 -0.1)">
       <use xlink:href="#DejaVuSans-8722"/>
       <use x="83.789062" xlink:href="#DejaVuSans-49"/>
      </g>
     </g>
    </g>
    <g id="ytick_3">
     <g id="line2d_35">
      <path clip-path="url(#pb8b874c0f3)" d="M 43.442188 263.741212 
L 1241.426187 263.741212 
" style="fill:none;stroke:#b0b0b0;stroke-linecap:square;stroke-width:0.8;"/>
     </g>
     <g id="line2d_36">
      <g>
       <use style="stroke:#000000;stroke-width:0.8;" x="43.442188" xlink:href="#m2ef5feddcd" y="263.741212"/>
      </g>
     </g>
     <g id="text_18">
      <!-- 0 -->
      <defs>
       <path d="M 31.78125 66.40625 
Q 24.171875 66.40625 20.328125 58.90625 
Q 16.5 51.421875 16.5 36.375 
Q 16.5 21.390625 20.328125 13.890625 
Q 24.171875 6.390625 31.78125 6.390625 
Q 39.453125 6.390625 43.28125 13.890625 
Q 47.125 21.390625 47.125 36.375 
Q 47.125 51.421875 43.28125 58.90625 
Q 39.453125 66.40625 31.78125 66.40625 
z
M 31.78125 74.21875 
Q 44.046875 74.21875 50.515625 64.515625 
Q 56.984375 54.828125 56.984375 36.375 
Q 56.984375 17.96875 50.515625 8.265625 
Q 44.046875 -1.421875 31.78125 -1.421875 
Q 19.53125 -1.421875 13.0625 8.265625 
Q 6.59375 17.96875 6.59375 36.375 
Q 6.59375 54.828125 13.0625 64.515625 
Q 19.53125 74.21875 31.78125 74.21875 
z
" id="DejaVuSans-48"/>
      </defs>
      <g transform="translate(30.079688 267.54043)scale(0.1 -0.1)">
       <use xlink:href="#DejaVuSans-48"/>
      </g>
     </g>
    </g>
    <g id="ytick_4">
     <g id="line2d_37">
      <path clip-path="url(#pb8b874c0f3)" d="M 43.442188 177.920943 
L 1241.426187 177.920943 
" style="fill:none;stroke:#b0b0b0;stroke-linecap:square;stroke-width:0.8;"/>
     </g>
     <g id="line2d_38">
      <g>
       <use style="stroke:#000000;stroke-width:0.8;" x="43.442188" xlink:href="#m2ef5feddcd" y="177.920943"/>
      </g>
     </g>
     <g id="text_19">
      <!-- 1 -->
      <g transform="translate(30.079688 181.720162)scale(0.1 -0.1)">
       <use xlink:href="#DejaVuSans-49"/>
      </g>
     </g>
    </g>
    <g id="ytick_5">
     <g id="line2d_39">
      <path clip-path="url(#pb8b874c0f3)" d="M 43.442188 92.100675 
L 1241.426187 92.100675 
" style="fill:none;stroke:#b0b0b0;stroke-linecap:square;stroke-width:0.8;"/>
     </g>
     <g id="line2d_40">
      <g>
       <use style="stroke:#000000;stroke-width:0.8;" x="43.442188" xlink:href="#m2ef5feddcd" y="92.100675"/>
      </g>
     </g>
     <g id="text_20">
      <!-- 2 -->
      <g transform="translate(30.079688 95.899893)scale(0.1 -0.1)">
       <use xlink:href="#DejaVuSans-50"/>
      </g>
     </g>
    </g>
    <g id="text_21">
     <!-- Balance volumétrico ($m^3$) -->
     <defs>
      <path d="M 19.671875 34.8125 
L 19.671875 8.109375 
L 35.5 8.109375 
Q 43.453125 8.109375 47.28125 11.40625 
Q 51.125 14.703125 51.125 21.484375 
Q 51.125 28.328125 47.28125 31.5625 
Q 43.453125 34.8125 35.5 34.8125 
z
M 19.671875 64.796875 
L 19.671875 42.828125 
L 34.28125 42.828125 
Q 41.5 42.828125 45.03125 45.53125 
Q 48.578125 48.25 48.578125 53.8125 
Q 48.578125 59.328125 45.03125 62.0625 
Q 41.5 64.796875 34.28125 64.796875 
z
M 9.8125 72.90625 
L 35.015625 72.90625 
Q 46.296875 72.90625 52.390625 68.21875 
Q 58.5 63.53125 58.5 54.890625 
Q 58.5 48.1875 55.375 44.234375 
Q 52.25 40.28125 46.1875 39.3125 
Q 53.46875 37.75 57.5 32.78125 
Q 61.53125 27.828125 61.53125 20.40625 
Q 61.53125 10.640625 54.890625 5.3125 
Q 48.25 0 35.984375 0 
L 9.8125 0 
z
" id="DejaVuSans-66"/>
      <path d="M 34.28125 27.484375 
Q 23.390625 27.484375 19.1875 25 
Q 14.984375 22.515625 14.984375 16.5 
Q 14.984375 11.71875 18.140625 8.90625 
Q 21.296875 6.109375 26.703125 6.109375 
Q 34.1875 6.109375 38.703125 11.40625 
Q 43.21875 16.703125 43.21875 25.484375 
L 43.21875 27.484375 
z
M 52.203125 31.203125 
L 52.203125 0 
L 43.21875 0 
L 43.21875 8.296875 
Q 40.140625 3.328125 35.546875 0.953125 
Q 30.953125 -1.421875 24.3125 -1.421875 
Q 15.921875 -1.421875 10.953125 3.296875 
Q 6 8.015625 6 15.921875 
Q 6 25.140625 12.171875 29.828125 
Q 18.359375 34.515625 30.609375 34.515625 
L 43.21875 34.515625 
L 43.21875 35.40625 
Q 43.21875 41.609375 39.140625 45 
Q 35.0625 48.390625 27.6875 48.390625 
Q 23 48.390625 18.546875 47.265625 
Q 14.109375 46.140625 10.015625 43.890625 
L 10.015625 52.203125 
Q 14.9375 54.109375 19.578125 55.046875 
Q 24.21875 56 28.609375 56 
Q 40.484375 56 46.34375 49.84375 
Q 52.203125 43.703125 52.203125 31.203125 
z
" id="DejaVuSans-97"/>
      <path d="M 48.78125 52.59375 
L 48.78125 44.1875 
Q 44.96875 46.296875 41.140625 47.34375 
Q 37.3125 48.390625 33.40625 48.390625 
Q 24.65625 48.390625 19.8125 42.84375 
Q 14.984375 37.3125 14.984375 27.296875 
Q 14.984375 17.28125 19.8125 11.734375 
Q 24.65625 6.203125 33.40625 6.203125 
Q 37.3125 6.203125 41.140625 7.25 
Q 44.96875 8.296875 48.78125 10.40625 
L 48.78125 2.09375 
Q 45.015625 0.34375 40.984375 -0.53125 
Q 36.96875 -1.421875 32.421875 -1.421875 
Q 20.0625 -1.421875 12.78125 6.34375 
Q 5.515625 14.109375 5.515625 27.296875 
Q 5.515625 40.671875 12.859375 48.328125 
Q 20.21875 56 33.015625 56 
Q 37.15625 56 41.109375 55.140625 
Q 45.0625 54.296875 48.78125 52.59375 
z
" id="DejaVuSans-99"/>
      <path id="DejaVuSans-32"/>
      <path d="M 2.984375 54.6875 
L 12.5 54.6875 
L 29.59375 8.796875 
L 46.6875 54.6875 
L 56.203125 54.6875 
L 35.6875 0 
L 23.484375 0 
z
" id="DejaVuSans-118"/>
      <path d="M 30.609375 48.390625 
Q 23.390625 48.390625 19.1875 42.75 
Q 14.984375 37.109375 14.984375 27.296875 
Q 14.984375 17.484375 19.15625 11.84375 
Q 23.34375 6.203125 30.609375 6.203125 
Q 37.796875 6.203125 41.984375 11.859375 
Q 46.1875 17.53125 46.1875 27.296875 
Q 46.1875 37.015625 41.984375 42.703125 
Q 37.796875 48.390625 30.609375 48.390625 
z
M 30.609375 56 
Q 42.328125 56 49.015625 48.375 
Q 55.71875 40.765625 55.71875 27.296875 
Q 55.71875 13.875 49.015625 6.21875 
Q 42.328125 -1.421875 30.609375 -1.421875 
Q 18.84375 -1.421875 12.171875 6.21875 
Q 5.515625 13.875 5.515625 27.296875 
Q 5.515625 40.765625 12.171875 48.375 
Q 18.84375 56 30.609375 56 
z
" id="DejaVuSans-111"/>
      <path d="M 8.5 21.578125 
L 8.5 54.6875 
L 17.484375 54.6875 
L 17.484375 21.921875 
Q 17.484375 14.15625 20.5 10.265625 
Q 23.53125 6.390625 29.59375 6.390625 
Q 36.859375 6.390625 41.078125 11.03125 
Q 45.3125 15.671875 45.3125 23.6875 
L 45.3125 54.6875 
L 54.296875 54.6875 
L 54.296875 0 
L 45.3125 0 
L 45.3125 8.40625 
Q 42.046875 3.421875 37.71875 1 
Q 33.40625 -1.421875 27.6875 -1.421875 
Q 18.265625 -1.421875 13.375 4.4375 
Q 8.5 10.296875 8.5 21.578125 
z
M 31.109375 56 
z
" id="DejaVuSans-117"/>
      <path d="M 52 44.1875 
Q 55.375 50.25 60.0625 53.125 
Q 64.75 56 71.09375 56 
Q 79.640625 56 84.28125 50.015625 
Q 88.921875 44.046875 88.921875 33.015625 
L 88.921875 0 
L 79.890625 0 
L 79.890625 32.71875 
Q 79.890625 40.578125 77.09375 44.375 
Q 74.3125 48.1875 68.609375 48.1875 
Q 61.625 48.1875 57.5625 43.546875 
Q 53.515625 38.921875 53.515625 30.90625 
L 53.515625 0 
L 44.484375 0 
L 44.484375 32.71875 
Q 44.484375 40.625 41.703125 44.40625 
Q 38.921875 48.1875 33.109375 48.1875 
Q 26.21875 48.1875 22.15625 43.53125 
Q 18.109375 38.875 18.109375 30.90625 
L 18.109375 0 
L 9.078125 0 
L 9.078125 54.6875 
L 18.109375 54.6875 
L 18.109375 46.1875 
Q 21.1875 51.21875 25.484375 53.609375 
Q 29.78125 56 35.6875 56 
Q 41.65625 56 45.828125 52.96875 
Q 50 49.953125 52 44.1875 
z
" id="DejaVuSans-109"/>
      <path d="M 56.203125 29.59375 
L 56.203125 25.203125 
L 14.890625 25.203125 
Q 15.484375 15.921875 20.484375 11.0625 
Q 25.484375 6.203125 34.421875 6.203125 
Q 39.59375 6.203125 44.453125 7.46875 
Q 49.3125 8.734375 54.109375 11.28125 
L 54.109375 2.78125 
Q 49.265625 0.734375 44.1875 -0.34375 
Q 39.109375 -1.421875 33.890625 -1.421875 
Q 20.796875 -1.421875 13.15625 6.1875 
Q 5.515625 13.8125 5.515625 26.8125 
Q 5.515625 40.234375 12.765625 48.109375 
Q 20.015625 56 32.328125 56 
Q 43.359375 56 49.78125 48.890625 
Q 56.203125 41.796875 56.203125 29.59375 
z
M 47.21875 32.234375 
Q 47.125 39.59375 43.09375 43.984375 
Q 39.0625 48.390625 32.421875 48.390625 
Q 24.90625 48.390625 20.390625 44.140625 
Q 15.875 39.890625 15.1875 32.171875 
z
M 38.578125 79.984375 
L 48.296875 79.984375 
L 32.375 61.625 
L 24.90625 61.625 
z
" id="DejaVuSans-233"/>
      <path d="M 41.109375 46.296875 
Q 39.59375 47.171875 37.8125 47.578125 
Q 36.03125 48 33.890625 48 
Q 26.265625 48 22.1875 43.046875 
Q 18.109375 38.09375 18.109375 28.8125 
L 18.109375 0 
L 9.078125 0 
L 9.078125 54.6875 
L 18.109375 54.6875 
L 18.109375 46.1875 
Q 20.953125 51.171875 25.484375 53.578125 
Q 30.03125 56 36.53125 56 
Q 37.453125 56 38.578125 55.875 
Q 39.703125 55.765625 41.0625 55.515625 
z
" id="DejaVuSans-114"/>
      <path d="M 9.421875 54.6875 
L 18.40625 54.6875 
L 18.40625 0 
L 9.421875 0 
z
M 9.421875 75.984375 
L 18.40625 75.984375 
L 18.40625 64.59375 
L 9.421875 64.59375 
z
" id="DejaVuSans-105"/>
      <path d="M 31 75.875 
Q 24.46875 64.65625 21.28125 53.65625 
Q 18.109375 42.671875 18.109375 31.390625 
Q 18.109375 20.125 21.3125 9.0625 
Q 24.515625 -2 31 -13.1875 
L 23.1875 -13.1875 
Q 15.875 -1.703125 12.234375 9.375 
Q 8.59375 20.453125 8.59375 31.390625 
Q 8.59375 42.28125 12.203125 53.3125 
Q 15.828125 64.359375 23.1875 75.875 
z
" id="DejaVuSans-40"/>
      <path d="M 89.796875 33.015625 
L 83.40625 0 
L 74.421875 0 
L 80.71875 32.71875 
Q 81.109375 34.8125 81.296875 36.328125 
Q 81.5 37.84375 81.5 38.921875 
Q 81.5 43.3125 79.046875 45.75 
Q 76.609375 48.1875 72.21875 48.1875 
Q 65.671875 48.1875 60.546875 43.28125 
Q 55.421875 38.375 53.90625 30.515625 
L 47.90625 0 
L 38.921875 0 
L 45.3125 32.71875 
Q 45.703125 34.515625 45.890625 36.046875 
Q 46.09375 37.59375 46.09375 38.8125 
Q 46.09375 43.265625 43.65625 45.71875 
Q 41.21875 48.1875 36.921875 48.1875 
Q 30.28125 48.1875 25.140625 43.28125 
Q 20.015625 38.375 18.5 30.515625 
L 12.5 0 
L 3.515625 0 
L 14.203125 54.6875 
L 23.1875 54.6875 
L 21.484375 46.1875 
Q 25.140625 50.984375 30.046875 53.484375 
Q 34.96875 56 40.578125 56 
Q 46.53125 56 50.359375 52.875 
Q 54.203125 49.75 54.984375 44.1875 
Q 59.078125 49.953125 64.46875 52.96875 
Q 69.875 56 75.875 56 
Q 82.90625 56 86.734375 51.953125 
Q 90.578125 47.90625 90.578125 40.484375 
Q 90.578125 38.875 90.375 36.9375 
Q 90.1875 35.015625 89.796875 33.015625 
z
" id="DejaVuSans-Oblique-109"/>
      <path d="M 40.578125 39.3125 
Q 47.65625 37.796875 51.625 33 
Q 55.609375 28.21875 55.609375 21.1875 
Q 55.609375 10.40625 48.1875 4.484375 
Q 40.765625 -1.421875 27.09375 -1.421875 
Q 22.515625 -1.421875 17.65625 -0.515625 
Q 12.796875 0.390625 7.625 2.203125 
L 7.625 11.71875 
Q 11.71875 9.328125 16.59375 8.109375 
Q 21.484375 6.890625 26.8125 6.890625 
Q 36.078125 6.890625 40.9375 10.546875 
Q 45.796875 14.203125 45.796875 21.1875 
Q 45.796875 27.640625 41.28125 31.265625 
Q 36.765625 34.90625 28.71875 34.90625 
L 20.21875 34.90625 
L 20.21875 43.015625 
L 29.109375 43.015625 
Q 36.375 43.015625 40.234375 45.921875 
Q 44.09375 48.828125 44.09375 54.296875 
Q 44.09375 59.90625 40.109375 62.90625 
Q 36.140625 65.921875 28.71875 65.921875 
Q 24.65625 65.921875 20.015625 65.03125 
Q 15.375 64.15625 9.8125 62.3125 
L 9.8125 71.09375 
Q 15.4375 72.65625 20.34375 73.4375 
Q 25.25 74.21875 29.59375 74.21875 
Q 40.828125 74.21875 47.359375 69.109375 
Q 53.90625 64.015625 53.90625 55.328125 
Q 53.90625 49.265625 50.4375 45.09375 
Q 46.96875 40.921875 40.578125 39.3125 
z
" id="DejaVuSans-51"/>
      <path d="M 8.015625 75.875 
L 15.828125 75.875 
Q 23.140625 64.359375 26.78125 53.3125 
Q 30.421875 42.28125 30.421875 31.390625 
Q 30.421875 20.453125 26.78125 9.375 
Q 23.140625 -1.703125 15.828125 -13.1875 
L 8.015625 -13.1875 
Q 14.5 -2 17.703125 9.0625 
Q 20.90625 20.125 20.90625 31.390625 
Q 20.90625 42.671875 17.703125 53.65625 
Q 14.5 64.65625 8.015625 75.875 
z
" id="DejaVuSans-41"/>
     </defs>
     <g transform="translate(15.620312 327.991508)rotate(-90)scale(0.1 -0.1)">
      <use transform="translate(0 0.765625)" xlink:href="#DejaVuSans-66"/>
      <use transform="translate(68.603516 0.765625)" xlink:href="#DejaVuSans-97"/>
      <use transform="translate(129.882812 0.765625)" xlink:href="#DejaVuSans-108"/>
      <use transform="translate(157.666016 0.765625)" xlink:href="#DejaVuSans-97"/>
      <use transform="translate(218.945312 0.765625)" xlink:href="#DejaVuSans-110"/>
      <use transform="translate(282.324219 0.765625)" xlink:href="#DejaVuSans-99"/>
      <use transform="translate(337.304688 0.765625)" xlink:href="#DejaVuSans-101"/>
      <use transform="translate(398.828125 0.765625)" xlink:href="#DejaVuSans-32"/>
      <use transform="translate(430.615234 0.765625)" xlink:href="#DejaVuSans-118"/>
      <use transform="translate(489.794922 0.765625)" xlink:href="#DejaVuSans-111"/>
      <use transform="translate(550.976562 0.765625)" xlink:href="#DejaVuSans-108"/>
      <use transform="translate(578.759766 0.765625)" xlink:href="#DejaVuSans-117"/>
      <use transform="translate(642.138672 0.765625)" xlink:href="#DejaVuSans-109"/>
      <use transform="translate(739.550781 0.765625)" xlink:href="#DejaVuSans-233"/>
      <use transform="translate(801.074219 0.765625)" xlink:href="#DejaVuSans-116"/>
      <use transform="translate(840.283203 0.765625)" xlink:href="#DejaVuSans-114"/>
      <use transform="translate(881.396484 0.765625)" xlink:href="#DejaVuSans-105"/>
      <use transform="translate(909.179688 0.765625)" xlink:href="#DejaVuSans-99"/>
      <use transform="translate(964.160156 0.765625)" xlink:href="#DejaVuSans-111"/>
      <use transform="translate(1025.341797 0.765625)" xlink:href="#DejaVuSans-32"/>
      <use transform="translate(1057.128906 0.765625)" xlink:href="#DejaVuSans-40"/>
      <use transform="translate(1096.142578 0.765625)" xlink:href="#DejaVuSans-Oblique-109"/>
      <use transform="translate(1198.204583 39.046875)scale(0.7)" xlink:href="#DejaVuSans-51"/>
      <use transform="translate(1245.475091 0.765625)" xlink:href="#DejaVuSans-41"/>
     </g>
    </g>
    <g id="text_22">
     <!-- 1e9 -->
     <defs>
      <path d="M 10.984375 1.515625 
L 10.984375 10.5 
Q 14.703125 8.734375 18.5 7.8125 
Q 22.3125 6.890625 25.984375 6.890625 
Q 35.75 6.890625 40.890625 13.453125 
Q 46.046875 20.015625 46.78125 33.40625 
Q 43.953125 29.203125 39.59375 26.953125 
Q 35.25 24.703125 29.984375 24.703125 
Q 19.046875 24.703125 12.671875 31.3125 
Q 6.296875 37.9375 6.296875 49.421875 
Q 6.296875 60.640625 12.9375 67.421875 
Q 19.578125 74.21875 30.609375 74.21875 
Q 43.265625 74.21875 49.921875 64.515625 
Q 56.59375 54.828125 56.59375 36.375 
Q 56.59375 19.140625 48.40625 8.859375 
Q 40.234375 -1.421875 26.421875 -1.421875 
Q 22.703125 -1.421875 18.890625 -0.6875 
Q 15.09375 0.046875 10.984375 1.515625 
z
M 30.609375 32.421875 
Q 37.25 32.421875 41.125 36.953125 
Q 45.015625 41.5 45.015625 49.421875 
Q 45.015625 57.28125 41.125 61.84375 
Q 37.25 66.40625 30.609375 66.40625 
Q 23.96875 66.40625 20.09375 61.84375 
Q 16.21875 57.28125 16.21875 49.421875 
Q 16.21875 41.5 20.09375 36.953125 
Q 23.96875 32.421875 30.609375 32.421875 
z
" id="DejaVuSans-57"/>
     </defs>
     <g transform="translate(43.442188 14.798438)scale(0.1 -0.1)">
      <use xlink:href="#DejaVuSans-49"/>
      <use x="63.623047" xlink:href="#DejaVuSans-101"/>
      <use x="125.146484" xlink:href="#DejaVuSans-57"/>
     </g>
    </g>
   </g>
   <g id="patch_18">
    <path d="M 43.442188 509.684579 
L 43.442188 17.798438 
" style="fill:none;stroke:#000000;stroke-linecap:square;stroke-linejoin:miter;stroke-width:0.8;"/>
   </g>
   <g id="patch_19">
    <path d="M 1241.426187 509.684579 
L 1241.426187 17.798438 
" style="fill:none;stroke:#000000;stroke-linecap:square;stroke-linejoin:miter;stroke-width:0.8;"/>
   </g>
   <g id="patch_20">
    <path d="M 43.442187 509.684579 
L 1241.426187 509.684579 
" style="fill:none;stroke:#000000;stroke-linecap:square;stroke-linejoin:miter;stroke-width:0.8;"/>
   </g>
   <g id="patch_21">
    <path d="M 43.442187 17.798438 
L 1241.426187 17.798438 
" style="fill:none;stroke:#000000;stroke-linecap:square;stroke-linejoin:miter;stroke-width:0.8;"/>
   </g>
  </g>
 </g>
 <defs>
  <clipPath id="pb8b874c0f3">
   <rect height="491.886141" width="1197.984" x="43.442188" y="17.798438"/>
  </clipPath>
 </defs>
</svg>
