<?xml version="1.0" encoding="utf-8" standalone="no"?>
<!DOCTYPE svg PUBLIC "-//W3C//DTD SVG 1.1//EN"
  "http://www.w3.org/Graphics/SVG/1.1/DTD/svg11.dtd">
<!-- Created with matplotlib (https://matplotlib.org/) -->
<svg height="518.212603pt" version="1.1" viewBox="0 0 1129.150625 518.212603" width="1129.150625pt" xmlns="http://www.w3.org/2000/svg" xmlns:xlink="http://www.w3.org/1999/xlink">
 <defs>
  <style type="text/css">
*{stroke-linecap:butt;stroke-linejoin:round;}
  </style>
 </defs>
 <g id="figure_1">
  <g id="patch_1">
   <path d="M -0 518.212603 
L 1129.150625 518.212603 
L 1129.150625 0 
L -0 0 
z
" style="fill:#ffffff;"/>
  </g>
  <g id="axes_1">
   <g id="patch_2">
    <path d="M 50.590625 478.6848 
L 1121.950625 478.6848 
L 1121.950625 7.2 
L 50.590625 7.2 
z
" style="fill:#ffffff;"/>
   </g>
   <g id="matplotlib.axis_1">
    <g id="xtick_1">
     <g id="line2d_1">
      <path clip-path="url(#pd54b59110f)" d="M 160.513745 478.6848 
L 160.513745 7.2 
" style="fill:none;stroke:#b0b0b0;stroke-linecap:square;stroke-width:0.8;"/>
     </g>
     <g id="line2d_2">
      <defs>
       <path d="M 0 0 
L 0 3.5 
" id="mc0afa8258f" style="stroke:#000000;stroke-width:0.8;"/>
      </defs>
      <g>
       <use style="stroke:#000000;stroke-width:0.8;" x="160.513745" xlink:href="#mc0afa8258f" y="478.6848"/>
      </g>
     </g>
     <g id="text_1">
      <!-- 1996 -->
      <defs>
       <path d="M 12.40625 8.296875 
L 28.515625 8.296875 
L 28.515625 63.921875 
L 10.984375 60.40625 
L 10.984375 69.390625 
L 28.421875 72.90625 
L 38.28125 72.90625 
L 38.28125 8.296875 
L 54.390625 8.296875 
L 54.390625 0 
L 12.40625 0 
z
" id="DejaVuSans-49"/>
       <path d="M 10.984375 1.515625 
L 10.984375 10.5 
Q 14.703125 8.734375 18.5 7.8125 
Q 22.3125 6.890625 25.984375 6.890625 
Q 35.75 6.890625 40.890625 13.453125 
Q 46.046875 20.015625 46.78125 33.40625 
Q 43.953125 29.203125 39.59375 26.953125 
Q 35.25 24.703125 29.984375 24.703125 
Q 19.046875 24.703125 12.671875 31.3125 
Q 6.296875 37.9375 6.296875 49.421875 
Q 6.296875 60.640625 12.9375 67.421875 
Q 19.578125 74.21875 30.609375 74.21875 
Q 43.265625 74.21875 49.921875 64.515625 
Q 56.59375 54.828125 56.59375 36.375 
Q 56.59375 19.140625 48.40625 8.859375 
Q 40.234375 -1.421875 26.421875 -1.421875 
Q 22.703125 -1.421875 18.890625 -0.6875 
Q 15.09375 0.046875 10.984375 1.515625 
z
M 30.609375 32.421875 
Q 37.25 32.421875 41.125 36.953125 
Q 45.015625 41.5 45.015625 49.421875 
Q 45.015625 57.28125 41.125 61.84375 
Q 37.25 66.40625 30.609375 66.40625 
Q 23.96875 66.40625 20.09375 61.84375 
Q 16.21875 57.28125 16.21875 49.421875 
Q 16.21875 41.5 20.09375 36.953125 
Q 23.96875 32.421875 30.609375 32.421875 
z
" id="DejaVuSans-57"/>
       <path d="M 33.015625 40.375 
Q 26.375 40.375 22.484375 35.828125 
Q 18.609375 31.296875 18.609375 23.390625 
Q 18.609375 15.53125 22.484375 10.953125 
Q 26.375 6.390625 33.015625 6.390625 
Q 39.65625 6.390625 43.53125 10.953125 
Q 47.40625 15.53125 47.40625 23.390625 
Q 47.40625 31.296875 43.53125 35.828125 
Q 39.65625 40.375 33.015625 40.375 
z
M 52.59375 71.296875 
L 52.59375 62.3125 
Q 48.875 64.0625 45.09375 64.984375 
Q 41.3125 65.921875 37.59375 65.921875 
Q 27.828125 65.921875 22.671875 59.328125 
Q 17.53125 52.734375 16.796875 39.40625 
Q 19.671875 43.65625 24.015625 45.921875 
Q 28.375 48.1875 33.59375 48.1875 
Q 44.578125 48.1875 50.953125 41.515625 
Q 57.328125 34.859375 57.328125 23.390625 
Q 57.328125 12.15625 50.6875 5.359375 
Q 44.046875 -1.421875 33.015625 -1.421875 
Q 20.359375 -1.421875 13.671875 8.265625 
Q 6.984375 17.96875 6.984375 36.375 
Q 6.984375 53.65625 15.1875 63.9375 
Q 23.390625 74.21875 37.203125 74.21875 
Q 40.921875 74.21875 44.703125 73.484375 
Q 48.484375 72.75 52.59375 71.296875 
z
" id="DejaVuSans-54"/>
      </defs>
      <g transform="translate(132.817516 508.851328)rotate(-30)scale(0.12 -0.12)">
       <use xlink:href="#DejaVuSans-49"/>
       <use x="63.623047" xlink:href="#DejaVuSans-57"/>
       <use x="127.246094" xlink:href="#DejaVuSans-57"/>
       <use x="190.869141" xlink:href="#DejaVuSans-54"/>
      </g>
     </g>
    </g>
    <g id="xtick_2">
     <g id="line2d_3">
      <path clip-path="url(#pd54b59110f)" d="M 300.060756 478.6848 
L 300.060756 7.2 
" style="fill:none;stroke:#b0b0b0;stroke-linecap:square;stroke-width:0.8;"/>
     </g>
     <g id="line2d_4">
      <g>
       <use style="stroke:#000000;stroke-width:0.8;" x="300.060756" xlink:href="#mc0afa8258f" y="478.6848"/>
      </g>
     </g>
     <g id="text_2">
      <!-- 2000 -->
      <defs>
       <path d="M 19.1875 8.296875 
L 53.609375 8.296875 
L 53.609375 0 
L 7.328125 0 
L 7.328125 8.296875 
Q 12.9375 14.109375 22.625 23.890625 
Q 32.328125 33.6875 34.8125 36.53125 
Q 39.546875 41.84375 41.421875 45.53125 
Q 43.3125 49.21875 43.3125 52.78125 
Q 43.3125 58.59375 39.234375 62.25 
Q 35.15625 65.921875 28.609375 65.921875 
Q 23.96875 65.921875 18.8125 64.3125 
Q 13.671875 62.703125 7.8125 59.421875 
L 7.8125 69.390625 
Q 13.765625 71.78125 18.9375 73 
Q 24.125 74.21875 28.421875 74.21875 
Q 39.75 74.21875 46.484375 68.546875 
Q 53.21875 62.890625 53.21875 53.421875 
Q 53.21875 48.921875 51.53125 44.890625 
Q 49.859375 40.875 45.40625 35.40625 
Q 44.1875 33.984375 37.640625 27.21875 
Q 31.109375 20.453125 19.1875 8.296875 
z
" id="DejaVuSans-50"/>
       <path d="M 31.78125 66.40625 
Q 24.171875 66.40625 20.328125 58.90625 
Q 16.5 51.421875 16.5 36.375 
Q 16.5 21.390625 20.328125 13.890625 
Q 24.171875 6.390625 31.78125 6.390625 
Q 39.453125 6.390625 43.28125 13.890625 
Q 47.125 21.390625 47.125 36.375 
Q 47.125 51.421875 43.28125 58.90625 
Q 39.453125 66.40625 31.78125 66.40625 
z
M 31.78125 74.21875 
Q 44.046875 74.21875 50.515625 64.515625 
Q 56.984375 54.828125 56.984375 36.375 
Q 56.984375 17.96875 50.515625 8.265625 
Q 44.046875 -1.421875 31.78125 -1.421875 
Q 19.53125 -1.421875 13.0625 8.265625 
Q 6.59375 17.96875 6.59375 36.375 
Q 6.59375 54.828125 13.0625 64.515625 
Q 19.53125 74.21875 31.78125 74.21875 
z
" id="DejaVuSans-48"/>
      </defs>
      <g transform="translate(272.364527 508.851328)rotate(-30)scale(0.12 -0.12)">
       <use xlink:href="#DejaVuSans-50"/>
       <use x="63.623047" xlink:href="#DejaVuSans-48"/>
       <use x="127.246094" xlink:href="#DejaVuSans-48"/>
       <use x="190.869141" xlink:href="#DejaVuSans-48"/>
      </g>
     </g>
    </g>
    <g id="xtick_3">
     <g id="line2d_5">
      <path clip-path="url(#pd54b59110f)" d="M 439.607767 478.6848 
L 439.607767 7.2 
" style="fill:none;stroke:#b0b0b0;stroke-linecap:square;stroke-width:0.8;"/>
     </g>
     <g id="line2d_6">
      <g>
       <use style="stroke:#000000;stroke-width:0.8;" x="439.607767" xlink:href="#mc0afa8258f" y="478.6848"/>
      </g>
     </g>
     <g id="text_3">
      <!-- 2004 -->
      <defs>
       <path d="M 37.796875 64.3125 
L 12.890625 25.390625 
L 37.796875 25.390625 
z
M 35.203125 72.90625 
L 47.609375 72.90625 
L 47.609375 25.390625 
L 58.015625 25.390625 
L 58.015625 17.1875 
L 47.609375 17.1875 
L 47.609375 0 
L 37.796875 0 
L 37.796875 17.1875 
L 4.890625 17.1875 
L 4.890625 26.703125 
z
" id="DejaVuSans-52"/>
      </defs>
      <g transform="translate(411.911539 508.851328)rotate(-30)scale(0.12 -0.12)">
       <use xlink:href="#DejaVuSans-50"/>
       <use x="63.623047" xlink:href="#DejaVuSans-48"/>
       <use x="127.246094" xlink:href="#DejaVuSans-48"/>
       <use x="190.869141" xlink:href="#DejaVuSans-52"/>
      </g>
     </g>
    </g>
    <g id="xtick_4">
     <g id="line2d_7">
      <path clip-path="url(#pd54b59110f)" d="M 579.154778 478.6848 
L 579.154778 7.2 
" style="fill:none;stroke:#b0b0b0;stroke-linecap:square;stroke-width:0.8;"/>
     </g>
     <g id="line2d_8">
      <g>
       <use style="stroke:#000000;stroke-width:0.8;" x="579.154778" xlink:href="#mc0afa8258f" y="478.6848"/>
      </g>
     </g>
     <g id="text_4">
      <!-- 2008 -->
      <defs>
       <path d="M 31.78125 34.625 
Q 24.75 34.625 20.71875 30.859375 
Q 16.703125 27.09375 16.703125 20.515625 
Q 16.703125 13.921875 20.71875 10.15625 
Q 24.75 6.390625 31.78125 6.390625 
Q 38.8125 6.390625 42.859375 10.171875 
Q 46.921875 13.96875 46.921875 20.515625 
Q 46.921875 27.09375 42.890625 30.859375 
Q 38.875 34.625 31.78125 34.625 
z
M 21.921875 38.8125 
Q 15.578125 40.375 12.03125 44.71875 
Q 8.5 49.078125 8.5 55.328125 
Q 8.5 64.0625 14.71875 69.140625 
Q 20.953125 74.21875 31.78125 74.21875 
Q 42.671875 74.21875 48.875 69.140625 
Q 55.078125 64.0625 55.078125 55.328125 
Q 55.078125 49.078125 51.53125 44.71875 
Q 48 40.375 41.703125 38.8125 
Q 48.828125 37.15625 52.796875 32.3125 
Q 56.78125 27.484375 56.78125 20.515625 
Q 56.78125 9.90625 50.3125 4.234375 
Q 43.84375 -1.421875 31.78125 -1.421875 
Q 19.734375 -1.421875 13.25 4.234375 
Q 6.78125 9.90625 6.78125 20.515625 
Q 6.78125 27.484375 10.78125 32.3125 
Q 14.796875 37.15625 21.921875 38.8125 
z
M 18.3125 54.390625 
Q 18.3125 48.734375 21.84375 45.5625 
Q 25.390625 42.390625 31.78125 42.390625 
Q 38.140625 42.390625 41.71875 45.5625 
Q 45.3125 48.734375 45.3125 54.390625 
Q 45.3125 60.0625 41.71875 63.234375 
Q 38.140625 66.40625 31.78125 66.40625 
Q 25.390625 66.40625 21.84375 63.234375 
Q 18.3125 60.0625 18.3125 54.390625 
z
" id="DejaVuSans-56"/>
      </defs>
      <g transform="translate(551.45855 508.851328)rotate(-30)scale(0.12 -0.12)">
       <use xlink:href="#DejaVuSans-50"/>
       <use x="63.623047" xlink:href="#DejaVuSans-48"/>
       <use x="127.246094" xlink:href="#DejaVuSans-48"/>
       <use x="190.869141" xlink:href="#DejaVuSans-56"/>
      </g>
     </g>
    </g>
    <g id="xtick_5">
     <g id="line2d_9">
      <path clip-path="url(#pd54b59110f)" d="M 718.701789 478.6848 
L 718.701789 7.2 
" style="fill:none;stroke:#b0b0b0;stroke-linecap:square;stroke-width:0.8;"/>
     </g>
     <g id="line2d_10">
      <g>
       <use style="stroke:#000000;stroke-width:0.8;" x="718.701789" xlink:href="#mc0afa8258f" y="478.6848"/>
      </g>
     </g>
     <g id="text_5">
      <!-- 2012 -->
      <g transform="translate(691.005561 508.851328)rotate(-30)scale(0.12 -0.12)">
       <use xlink:href="#DejaVuSans-50"/>
       <use x="63.623047" xlink:href="#DejaVuSans-48"/>
       <use x="127.246094" xlink:href="#DejaVuSans-49"/>
       <use x="190.869141" xlink:href="#DejaVuSans-50"/>
      </g>
     </g>
    </g>
    <g id="xtick_6">
     <g id="line2d_11">
      <path clip-path="url(#pd54b59110f)" d="M 858.2488 478.6848 
L 858.2488 7.2 
" style="fill:none;stroke:#b0b0b0;stroke-linecap:square;stroke-width:0.8;"/>
     </g>
     <g id="line2d_12">
      <g>
       <use style="stroke:#000000;stroke-width:0.8;" x="858.2488" xlink:href="#mc0afa8258f" y="478.6848"/>
      </g>
     </g>
     <g id="text_6">
      <!-- 2016 -->
      <g transform="translate(830.552572 508.851328)rotate(-30)scale(0.12 -0.12)">
       <use xlink:href="#DejaVuSans-50"/>
       <use x="63.623047" xlink:href="#DejaVuSans-48"/>
       <use x="127.246094" xlink:href="#DejaVuSans-49"/>
       <use x="190.869141" xlink:href="#DejaVuSans-54"/>
      </g>
     </g>
    </g>
    <g id="xtick_7">
     <g id="line2d_13">
      <path clip-path="url(#pd54b59110f)" d="M 997.795812 478.6848 
L 997.795812 7.2 
" style="fill:none;stroke:#b0b0b0;stroke-linecap:square;stroke-width:0.8;"/>
     </g>
     <g id="line2d_14">
      <g>
       <use style="stroke:#000000;stroke-width:0.8;" x="997.795812" xlink:href="#mc0afa8258f" y="478.6848"/>
      </g>
     </g>
     <g id="text_7">
      <!-- 2020 -->
      <g transform="translate(970.099583 508.851328)rotate(-30)scale(0.12 -0.12)">
       <use xlink:href="#DejaVuSans-50"/>
       <use x="63.623047" xlink:href="#DejaVuSans-48"/>
       <use x="127.246094" xlink:href="#DejaVuSans-50"/>
       <use x="190.869141" xlink:href="#DejaVuSans-48"/>
      </g>
     </g>
    </g>
   </g>
   <g id="matplotlib.axis_2">
    <g id="ytick_1">
     <g id="line2d_15">
      <path clip-path="url(#pd54b59110f)" d="M 50.590625 460.366975 
L 1121.950625 460.366975 
" style="fill:none;stroke:#b0b0b0;stroke-linecap:square;stroke-width:0.8;"/>
     </g>
     <g id="line2d_16">
      <defs>
       <path d="M 0 0 
L -3.5 0 
" id="m3420b429cf" style="stroke:#000000;stroke-width:0.8;"/>
      </defs>
      <g>
       <use style="stroke:#000000;stroke-width:0.8;" x="50.590625" xlink:href="#m3420b429cf" y="460.366975"/>
      </g>
     </g>
     <g id="text_8">
      <!-- −6 -->
      <defs>
       <path d="M 10.59375 35.5 
L 73.1875 35.5 
L 73.1875 27.203125 
L 10.59375 27.203125 
z
" id="DejaVuSans-8722"/>
      </defs>
      <g transform="translate(25.9 464.926038)scale(0.12 -0.12)">
       <use xlink:href="#DejaVuSans-8722"/>
       <use x="83.789062" xlink:href="#DejaVuSans-54"/>
      </g>
     </g>
    </g>
    <g id="ytick_2">
     <g id="line2d_17">
      <path clip-path="url(#pd54b59110f)" d="M 50.590625 395.45813 
L 1121.950625 395.45813 
" style="fill:none;stroke:#b0b0b0;stroke-linecap:square;stroke-width:0.8;"/>
     </g>
     <g id="line2d_18">
      <g>
       <use style="stroke:#000000;stroke-width:0.8;" x="50.590625" xlink:href="#m3420b429cf" y="395.45813"/>
      </g>
     </g>
     <g id="text_9">
      <!-- −4 -->
      <g transform="translate(25.9 400.017193)scale(0.12 -0.12)">
       <use xlink:href="#DejaVuSans-8722"/>
       <use x="83.789062" xlink:href="#DejaVuSans-52"/>
      </g>
     </g>
    </g>
    <g id="ytick_3">
     <g id="line2d_19">
      <path clip-path="url(#pd54b59110f)" d="M 50.590625 330.549286 
L 1121.950625 330.549286 
" style="fill:none;stroke:#b0b0b0;stroke-linecap:square;stroke-width:0.8;"/>
     </g>
     <g id="line2d_20">
      <g>
       <use style="stroke:#000000;stroke-width:0.8;" x="50.590625" xlink:href="#m3420b429cf" y="330.549286"/>
      </g>
     </g>
     <g id="text_10">
      <!-- −2 -->
      <g transform="translate(25.9 335.108348)scale(0.12 -0.12)">
       <use xlink:href="#DejaVuSans-8722"/>
       <use x="83.789062" xlink:href="#DejaVuSans-50"/>
      </g>
     </g>
    </g>
    <g id="ytick_4">
     <g id="line2d_21">
      <path clip-path="url(#pd54b59110f)" d="M 50.590625 265.640441 
L 1121.950625 265.640441 
" style="fill:none;stroke:#b0b0b0;stroke-linecap:square;stroke-width:0.8;"/>
     </g>
     <g id="line2d_22">
      <g>
       <use style="stroke:#000000;stroke-width:0.8;" x="50.590625" xlink:href="#m3420b429cf" y="265.640441"/>
      </g>
     </g>
     <g id="text_11">
      <!-- 0 -->
      <g transform="translate(35.955625 270.199503)scale(0.12 -0.12)">
       <use xlink:href="#DejaVuSans-48"/>
      </g>
     </g>
    </g>
    <g id="ytick_5">
     <g id="line2d_23">
      <path clip-path="url(#pd54b59110f)" d="M 50.590625 200.731596 
L 1121.950625 200.731596 
" style="fill:none;stroke:#b0b0b0;stroke-linecap:square;stroke-width:0.8;"/>
     </g>
     <g id="line2d_24">
      <g>
       <use style="stroke:#000000;stroke-width:0.8;" x="50.590625" xlink:href="#m3420b429cf" y="200.731596"/>
      </g>
     </g>
     <g id="text_12">
      <!-- 2 -->
      <g transform="translate(35.955625 205.290658)scale(0.12 -0.12)">
       <use xlink:href="#DejaVuSans-50"/>
      </g>
     </g>
    </g>
    <g id="ytick_6">
     <g id="line2d_25">
      <path clip-path="url(#pd54b59110f)" d="M 50.590625 135.822751 
L 1121.950625 135.822751 
" style="fill:none;stroke:#b0b0b0;stroke-linecap:square;stroke-width:0.8;"/>
     </g>
     <g id="line2d_26">
      <g>
       <use style="stroke:#000000;stroke-width:0.8;" x="50.590625" xlink:href="#m3420b429cf" y="135.822751"/>
      </g>
     </g>
     <g id="text_13">
      <!-- 4 -->
      <g transform="translate(35.955625 140.381813)scale(0.12 -0.12)">
       <use xlink:href="#DejaVuSans-52"/>
      </g>
     </g>
    </g>
    <g id="ytick_7">
     <g id="line2d_27">
      <path clip-path="url(#pd54b59110f)" d="M 50.590625 70.913906 
L 1121.950625 70.913906 
" style="fill:none;stroke:#b0b0b0;stroke-linecap:square;stroke-width:0.8;"/>
     </g>
     <g id="line2d_28">
      <g>
       <use style="stroke:#000000;stroke-width:0.8;" x="50.590625" xlink:href="#m3420b429cf" y="70.913906"/>
      </g>
     </g>
     <g id="text_14">
      <!-- 6 -->
      <g transform="translate(35.955625 75.472968)scale(0.12 -0.12)">
       <use xlink:href="#DejaVuSans-54"/>
      </g>
     </g>
    </g>
    <g id="text_15">
     <!-- Balance ($m^3/s$) -->
     <defs>
      <path d="M 19.671875 34.8125 
L 19.671875 8.109375 
L 35.5 8.109375 
Q 43.453125 8.109375 47.28125 11.40625 
Q 51.125 14.703125 51.125 21.484375 
Q 51.125 28.328125 47.28125 31.5625 
Q 43.453125 34.8125 35.5 34.8125 
z
M 19.671875 64.796875 
L 19.671875 42.828125 
L 34.28125 42.828125 
Q 41.5 42.828125 45.03125 45.53125 
Q 48.578125 48.25 48.578125 53.8125 
Q 48.578125 59.328125 45.03125 62.0625 
Q 41.5 64.796875 34.28125 64.796875 
z
M 9.8125 72.90625 
L 35.015625 72.90625 
Q 46.296875 72.90625 52.390625 68.21875 
Q 58.5 63.53125 58.5 54.890625 
Q 58.5 48.1875 55.375 44.234375 
Q 52.25 40.28125 46.1875 39.3125 
Q 53.46875 37.75 57.5 32.78125 
Q 61.53125 27.828125 61.53125 20.40625 
Q 61.53125 10.640625 54.890625 5.3125 
Q 48.25 0 35.984375 0 
L 9.8125 0 
z
" id="DejaVuSans-66"/>
      <path d="M 34.28125 27.484375 
Q 23.390625 27.484375 19.1875 25 
Q 14.984375 22.515625 14.984375 16.5 
Q 14.984375 11.71875 18.140625 8.90625 
Q 21.296875 6.109375 26.703125 6.109375 
Q 34.1875 6.109375 38.703125 11.40625 
Q 43.21875 16.703125 43.21875 25.484375 
L 43.21875 27.484375 
z
M 52.203125 31.203125 
L 52.203125 0 
L 43.21875 0 
L 43.21875 8.296875 
Q 40.140625 3.328125 35.546875 0.953125 
Q 30.953125 -1.421875 24.3125 -1.421875 
Q 15.921875 -1.421875 10.953125 3.296875 
Q 6 8.015625 6 15.921875 
Q 6 25.140625 12.171875 29.828125 
Q 18.359375 34.515625 30.609375 34.515625 
L 43.21875 34.515625 
L 43.21875 35.40625 
Q 43.21875 41.609375 39.140625 45 
Q 35.0625 48.390625 27.6875 48.390625 
Q 23 48.390625 18.546875 47.265625 
Q 14.109375 46.140625 10.015625 43.890625 
L 10.015625 52.203125 
Q 14.9375 54.109375 19.578125 55.046875 
Q 24.21875 56 28.609375 56 
Q 40.484375 56 46.34375 49.84375 
Q 52.203125 43.703125 52.203125 31.203125 
z
" id="DejaVuSans-97"/>
      <path d="M 9.421875 75.984375 
L 18.40625 75.984375 
L 18.40625 0 
L 9.421875 0 
z
" id="DejaVuSans-108"/>
      <path d="M 54.890625 33.015625 
L 54.890625 0 
L 45.90625 0 
L 45.90625 32.71875 
Q 45.90625 40.484375 42.875 44.328125 
Q 39.84375 48.1875 33.796875 48.1875 
Q 26.515625 48.1875 22.3125 43.546875 
Q 18.109375 38.921875 18.109375 30.90625 
L 18.109375 0 
L 9.078125 0 
L 9.078125 54.6875 
L 18.109375 54.6875 
L 18.109375 46.1875 
Q 21.34375 51.125 25.703125 53.5625 
Q 30.078125 56 35.796875 56 
Q 45.21875 56 50.046875 50.171875 
Q 54.890625 44.34375 54.890625 33.015625 
z
" id="DejaVuSans-110"/>
      <path d="M 48.78125 52.59375 
L 48.78125 44.1875 
Q 44.96875 46.296875 41.140625 47.34375 
Q 37.3125 48.390625 33.40625 48.390625 
Q 24.65625 48.390625 19.8125 42.84375 
Q 14.984375 37.3125 14.984375 27.296875 
Q 14.984375 17.28125 19.8125 11.734375 
Q 24.65625 6.203125 33.40625 6.203125 
Q 37.3125 6.203125 41.140625 7.25 
Q 44.96875 8.296875 48.78125 10.40625 
L 48.78125 2.09375 
Q 45.015625 0.34375 40.984375 -0.53125 
Q 36.96875 -1.421875 32.421875 -1.421875 
Q 20.0625 -1.421875 12.78125 6.34375 
Q 5.515625 14.109375 5.515625 27.296875 
Q 5.515625 40.671875 12.859375 48.328125 
Q 20.21875 56 33.015625 56 
Q 37.15625 56 41.109375 55.140625 
Q 45.0625 54.296875 48.78125 52.59375 
z
" id="DejaVuSans-99"/>
      <path d="M 56.203125 29.59375 
L 56.203125 25.203125 
L 14.890625 25.203125 
Q 15.484375 15.921875 20.484375 11.0625 
Q 25.484375 6.203125 34.421875 6.203125 
Q 39.59375 6.203125 44.453125 7.46875 
Q 49.3125 8.734375 54.109375 11.28125 
L 54.109375 2.78125 
Q 49.265625 0.734375 44.1875 -0.34375 
Q 39.109375 -1.421875 33.890625 -1.421875 
Q 20.796875 -1.421875 13.15625 6.1875 
Q 5.515625 13.8125 5.515625 26.8125 
Q 5.515625 40.234375 12.765625 48.109375 
Q 20.015625 56 32.328125 56 
Q 43.359375 56 49.78125 48.890625 
Q 56.203125 41.796875 56.203125 29.59375 
z
M 47.21875 32.234375 
Q 47.125 39.59375 43.09375 43.984375 
Q 39.0625 48.390625 32.421875 48.390625 
Q 24.90625 48.390625 20.390625 44.140625 
Q 15.875 39.890625 15.1875 32.171875 
z
" id="DejaVuSans-101"/>
      <path id="DejaVuSans-32"/>
      <path d="M 31 75.875 
Q 24.46875 64.65625 21.28125 53.65625 
Q 18.109375 42.671875 18.109375 31.390625 
Q 18.109375 20.125 21.3125 9.0625 
Q 24.515625 -2 31 -13.1875 
L 23.1875 -13.1875 
Q 15.875 -1.703125 12.234375 9.375 
Q 8.59375 20.453125 8.59375 31.390625 
Q 8.59375 42.28125 12.203125 53.3125 
Q 15.828125 64.359375 23.1875 75.875 
z
" id="DejaVuSans-40"/>
      <path d="M 89.796875 33.015625 
L 83.40625 0 
L 74.421875 0 
L 80.71875 32.71875 
Q 81.109375 34.8125 81.296875 36.328125 
Q 81.5 37.84375 81.5 38.921875 
Q 81.5 43.3125 79.046875 45.75 
Q 76.609375 48.1875 72.21875 48.1875 
Q 65.671875 48.1875 60.546875 43.28125 
Q 55.421875 38.375 53.90625 30.515625 
L 47.90625 0 
L 38.921875 0 
L 45.3125 32.71875 
Q 45.703125 34.515625 45.890625 36.046875 
Q 46.09375 37.59375 46.09375 38.8125 
Q 46.09375 43.265625 43.65625 45.71875 
Q 41.21875 48.1875 36.921875 48.1875 
Q 30.28125 48.1875 25.140625 43.28125 
Q 20.015625 38.375 18.5 30.515625 
L 12.5 0 
L 3.515625 0 
L 14.203125 54.6875 
L 23.1875 54.6875 
L 21.484375 46.1875 
Q 25.140625 50.984375 30.046875 53.484375 
Q 34.96875 56 40.578125 56 
Q 46.53125 56 50.359375 52.875 
Q 54.203125 49.75 54.984375 44.1875 
Q 59.078125 49.953125 64.46875 52.96875 
Q 69.875 56 75.875 56 
Q 82.90625 56 86.734375 51.953125 
Q 90.578125 47.90625 90.578125 40.484375 
Q 90.578125 38.875 90.375 36.9375 
Q 90.1875 35.015625 89.796875 33.015625 
z
" id="DejaVuSans-Oblique-109"/>
      <path d="M 40.578125 39.3125 
Q 47.65625 37.796875 51.625 33 
Q 55.609375 28.21875 55.609375 21.1875 
Q 55.609375 10.40625 48.1875 4.484375 
Q 40.765625 -1.421875 27.09375 -1.421875 
Q 22.515625 -1.421875 17.65625 -0.515625 
Q 12.796875 0.390625 7.625 2.203125 
L 7.625 11.71875 
Q 11.71875 9.328125 16.59375 8.109375 
Q 21.484375 6.890625 26.8125 6.890625 
Q 36.078125 6.890625 40.9375 10.546875 
Q 45.796875 14.203125 45.796875 21.1875 
Q 45.796875 27.640625 41.28125 31.265625 
Q 36.765625 34.90625 28.71875 34.90625 
L 20.21875 34.90625 
L 20.21875 43.015625 
L 29.109375 43.015625 
Q 36.375 43.015625 40.234375 45.921875 
Q 44.09375 48.828125 44.09375 54.296875 
Q 44.09375 59.90625 40.109375 62.90625 
Q 36.140625 65.921875 28.71875 65.921875 
Q 24.65625 65.921875 20.015625 65.03125 
Q 15.375 64.15625 9.8125 62.3125 
L 9.8125 71.09375 
Q 15.4375 72.65625 20.34375 73.4375 
Q 25.25 74.21875 29.59375 74.21875 
Q 40.828125 74.21875 47.359375 69.109375 
Q 53.90625 64.015625 53.90625 55.328125 
Q 53.90625 49.265625 50.4375 45.09375 
Q 46.96875 40.921875 40.578125 39.3125 
z
" id="DejaVuSans-51"/>
      <path d="M 25.390625 72.90625 
L 33.6875 72.90625 
L 8.296875 -9.28125 
L 0 -9.28125 
z
" id="DejaVuSans-47"/>
      <path d="M 50 53.078125 
L 48.296875 44.578125 
Q 44.734375 46.53125 40.765625 47.5 
Q 36.8125 48.484375 32.625 48.484375 
Q 25.53125 48.484375 21.453125 46.0625 
Q 17.390625 43.65625 17.390625 39.5 
Q 17.390625 34.671875 26.859375 32.078125 
Q 27.59375 31.890625 27.9375 31.78125 
L 30.8125 30.90625 
Q 39.796875 28.421875 42.796875 25.6875 
Q 45.796875 22.953125 45.796875 18.21875 
Q 45.796875 9.515625 38.890625 4.046875 
Q 31.984375 -1.421875 20.796875 -1.421875 
Q 16.453125 -1.421875 11.671875 -0.578125 
Q 6.890625 0.25 1.125 2 
L 2.875 11.28125 
Q 7.8125 8.734375 12.59375 7.421875 
Q 17.390625 6.109375 21.78125 6.109375 
Q 28.375 6.109375 32.5 8.9375 
Q 36.625 11.765625 36.625 16.109375 
Q 36.625 20.796875 25.78125 23.6875 
L 24.859375 23.921875 
L 21.78125 24.703125 
Q 14.9375 26.515625 11.765625 29.46875 
Q 8.59375 32.421875 8.59375 37.015625 
Q 8.59375 45.75 15.15625 50.875 
Q 21.734375 56 33.015625 56 
Q 37.453125 56 41.671875 55.265625 
Q 45.90625 54.546875 50 53.078125 
z
" id="DejaVuSans-Oblique-115"/>
      <path d="M 8.015625 75.875 
L 15.828125 75.875 
Q 23.140625 64.359375 26.78125 53.3125 
Q 30.421875 42.28125 30.421875 31.390625 
Q 30.421875 20.453125 26.78125 9.375 
Q 23.140625 -1.703125 15.828125 -13.1875 
L 8.015625 -13.1875 
Q 14.5 -2 17.703125 9.0625 
Q 20.90625 20.125 20.90625 31.390625 
Q 20.90625 42.671875 17.703125 53.65625 
Q 14.5 64.65625 8.015625 75.875 
z
" id="DejaVuSans-41"/>
     </defs>
     <g transform="translate(18.988438 295.0224)rotate(-90)scale(0.14 -0.14)">
      <use transform="translate(0 0.765625)" xlink:href="#DejaVuSans-66"/>
      <use transform="translate(68.603516 0.765625)" xlink:href="#DejaVuSans-97"/>
      <use transform="translate(129.882812 0.765625)" xlink:href="#DejaVuSans-108"/>
      <use transform="translate(157.666016 0.765625)" xlink:href="#DejaVuSans-97"/>
      <use transform="translate(218.945312 0.765625)" xlink:href="#DejaVuSans-110"/>
      <use transform="translate(282.324219 0.765625)" xlink:href="#DejaVuSans-99"/>
      <use transform="translate(337.304688 0.765625)" xlink:href="#DejaVuSans-101"/>
      <use transform="translate(398.828125 0.765625)" xlink:href="#DejaVuSans-32"/>
      <use transform="translate(430.615234 0.765625)" xlink:href="#DejaVuSans-40"/>
      <use transform="translate(469.628906 0.765625)" xlink:href="#DejaVuSans-Oblique-109"/>
      <use transform="translate(571.690911 39.046875)scale(0.7)" xlink:href="#DejaVuSans-51"/>
      <use transform="translate(618.961419 0.765625)" xlink:href="#DejaVuSans-47"/>
      <use transform="translate(652.652826 0.765625)" xlink:href="#DejaVuSans-Oblique-115"/>
      <use transform="translate(704.752435 0.765625)" xlink:href="#DejaVuSans-41"/>
     </g>
    </g>
   </g>
   <g id="line2d_29">
    <path clip-path="url(#pd54b59110f)" d="M 99.288807 245.742819 
L 102.249763 245.75102 
L 105.115205 251.779183 
L 108.076161 255.199685 
L 111.037118 257.814096 
L 113.90256 259.911672 
L 116.863516 261.031411 
L 119.728958 261.728407 
L 122.689914 262.184236 
L 128.325283 262.468327 
L 131.286239 258.940262 
L 134.151681 254.336406 
L 137.112637 246.822042 
L 139.978079 255.166572 
L 142.939035 261.319742 
L 145.899992 262.816174 
L 148.765434 263.426075 
L 157.552788 263.862726 
L 163.283672 263.777186 
L 166.244628 258.82808 
L 169.11007 251.936592 
L 172.071026 242.85818 
L 177.897424 261.598826 
L 180.858381 264.371498 
L 183.723822 263.706237 
L 189.550221 264.068084 
L 192.511177 264.122137 
L 198.146546 264.039955 
L 201.107502 257.803931 
L 206.9339 239.437075 
L 209.799342 263.206622 
L 212.760298 255.591913 
L 215.721255 265.61929 
L 218.586697 252.648111 
L 221.547653 257.641232 
L 224.413095 256.242402 
L 227.374051 257.498631 
L 230.335008 258.298186 
L 233.00942 258.475579 
L 235.970376 251.301314 
L 238.835818 240.25296 
L 241.796774 230.592801 
L 244.662216 246.549945 
L 247.623173 254.341682 
L 250.584129 258.824028 
L 253.449571 260.308454 
L 259.275969 261.252469 
L 262.236925 261.421449 
L 265.197882 260.950817 
L 267.872294 260.934488 
L 270.83325 253.318543 
L 273.698692 241.56245 
L 276.659649 231.891956 
L 279.52509 245.053691 
L 282.486047 255.283673 
L 285.447003 262.497149 
L 288.312445 264.171326 
L 291.273401 264.227759 
L 294.138843 262.403128 
L 297.099799 262.565494 
L 300.060756 262.343546 
L 302.830683 262.275266 
L 305.791639 252.740626 
L 308.657081 241.009632 
L 311.618037 240.062196 
L 314.483479 253.990575 
L 317.444435 258.589819 
L 320.405392 258.887383 
L 323.270834 261.108055 
L 326.23179 260.946973 
L 329.097232 261.495765 
L 332.058188 261.808865 
L 337.693557 261.516733 
L 340.654513 252.725613 
L 343.519955 239.176625 
L 346.480911 229.124036 
L 349.346353 239.2194 
L 355.268266 264.951892 
L 358.133708 261.958149 
L 361.094664 262.392275 
L 366.921062 262.831872 
L 369.882019 262.530569 
L 372.556431 262.50142 
L 375.517387 251.428189 
L 378.382829 243.846952 
L 381.343786 241.35139 
L 384.209227 246.052768 
L 387.170184 260.217075 
L 390.13114 265.539572 
L 392.996582 256.526109 
L 395.957538 258.081745 
L 398.82298 259.016224 
L 401.783936 259.726036 
L 404.744893 260.093331 
L 407.419305 260.033626 
L 413.245703 234.802729 
L 416.20666 227.613205 
L 419.072101 235.558162 
L 422.033058 249.146093 
L 424.994014 259.586947 
L 427.859456 261.171899 
L 430.820412 261.658847 
L 433.685854 261.987693 
L 436.646811 262.134821 
L 439.607767 261.808538 
L 442.377694 261.668222 
L 445.33865 249.31871 
L 448.204092 236.73582 
L 451.165048 226.849776 
L 454.03049 236.757721 
L 456.991447 256.799924 
L 459.952403 258.666128 
L 462.817845 260.648991 
L 465.778801 261.42783 
L 468.644243 261.81678 
L 471.605199 261.988982 
L 474.566156 261.794732 
L 477.240568 261.794682 
L 483.066966 236.65773 
L 486.027923 226.092609 
L 488.893364 235.994051 
L 491.854321 253.510442 
L 494.815277 265.02355 
L 497.680719 262.34911 
L 500.641675 262.167768 
L 503.507117 262.389822 
L 506.468073 261.497477 
L 509.42903 261.478814 
L 512.103442 262.049712 
L 517.92984 235.650417 
L 520.890797 225.328214 
L 523.756238 235.562805 
L 526.717195 251.70727 
L 529.678151 260.994896 
L 532.543593 262.570051 
L 535.504549 262.855676 
L 541.330948 263.054961 
L 544.291904 262.804464 
L 546.966316 262.756367 
L 552.792714 235.77856 
L 555.753671 225.381248 
L 558.619113 236.451944 
L 564.541025 261.5282 
L 567.406467 263.027236 
L 570.367424 263.271914 
L 576.193822 263.411269 
L 579.154778 263.166982 
L 581.924705 263.12928 
L 587.751103 235.787892 
L 590.71206 227.713581 
L 593.577501 238.926752 
L 596.538458 253.366157 
L 599.499414 260.364968 
L 602.364856 264.559078 
L 605.325812 262.591643 
L 608.191254 262.876969 
L 611.15221 263.053188 
L 614.113167 262.866437 
L 616.787579 262.850594 
L 622.613977 235.336643 
L 625.574934 225.263338 
L 628.440375 235.04089 
L 631.401332 251.156575 
L 634.362288 261.481393 
L 637.22773 263.118838 
L 640.188686 263.397254 
L 646.015085 263.536474 
L 648.976041 263.292469 
L 651.650453 263.227739 
L 654.61141 248.659139 
L 657.476851 236.353476 
L 660.437808 232.415545 
L 663.30325 232.147572 
L 666.264206 249.361598 
L 669.225162 264.130731 
L 672.090604 264.88438 
L 675.051561 261.712461 
L 677.917002 262.148435 
L 680.877959 262.438522 
L 683.838915 262.292786 
L 686.513327 262.307084 
L 689.474284 247.644131 
L 692.339726 234.307896 
L 695.300682 223.82989 
L 698.166124 240.32578 
L 701.12708 253.882649 
L 704.088037 257.866082 
L 709.914435 263.131971 
L 712.779876 261.735817 
L 715.740833 262.033979 
L 718.701789 261.861896 
L 721.471716 261.874961 
L 724.432673 247.017303 
L 727.298114 236.60268 
L 730.259071 223.070229 
L 733.124513 232.706254 
L 736.085469 246.293469 
L 739.046425 261.160681 
L 741.911867 262.357058 
L 744.872824 262.895943 
L 750.699222 263.150757 
L 753.660178 262.891532 
L 756.33459 262.805795 
L 759.295547 247.444396 
L 762.160988 233.907791 
L 765.121945 229.288371 
L 767.987387 232.627859 
L 770.948343 250.455877 
L 773.909299 260.357807 
L 776.774741 262.462059 
L 779.735698 262.941396 
L 785.562096 263.208909 
L 788.523052 262.965109 
L 791.197464 262.883212 
L 794.158421 247.337772 
L 797.023863 233.734268 
L 799.984819 226.414887 
L 802.850261 238.511534 
L 805.811217 246.520715 
L 808.772174 260.515471 
L 811.637615 265.507657 
L 814.598572 262.821585 
L 820.42497 263.150858 
L 823.385926 262.924884 
L 826.060339 262.856877 
L 829.021295 252.480729 
L 831.886737 231.688197 
L 834.847693 221.634777 
L 837.713135 232.002587 
L 840.674091 252.469006 
L 843.635048 265.139858 
L 846.500489 257.439006 
L 849.461446 263.904438 
L 852.326888 259.771955 
L 855.287844 260.397426 
L 858.2488 260.374377 
L 861.018727 260.539996 
L 863.979684 252.58684 
L 866.845126 229.94182 
L 869.806082 219.725509 
L 872.671524 230.049294 
L 875.642041 252.434121 
L 878.602997 265.223798 
L 881.468392 256.448194 
L 884.429349 263.257183 
L 887.294791 258.79459 
L 890.255747 259.403369 
L 893.216703 259.26424 
L 895.891116 259.351674 
L 898.852072 252.551608 
L 901.717514 228.889519 
L 904.67847 218.618927 
L 907.543912 228.90237 
L 910.504868 252.269267 
L 913.465825 265.237776 
L 916.331266 255.975529 
L 919.292223 262.939654 
L 922.157665 258.343876 
L 925.118621 258.898987 
L 928.079577 258.679196 
L 930.75399 258.714384 
L 933.714946 252.471548 
L 936.580388 228.156666 
L 939.541344 217.838966 
L 942.406786 228.096016 
L 945.367742 252.134928 
L 948.328699 265.242533 
L 951.194141 255.619927 
L 954.155097 262.807964 
L 957.020539 257.994758 
L 959.981495 258.522926 
L 962.942452 258.23877 
L 965.616864 258.24979 
L 968.57782 252.375538 
L 971.443262 254.22164 
L 974.404218 262.217593 
L 977.26966 251.569326 
L 980.230617 258.082737 
L 983.191573 247.953721 
L 986.057015 245.589985 
L 989.017971 252.009202 
L 991.883413 249.077584 
L 994.844369 247.350025 
L 997.805326 258.602808 
L 1000.575253 231.333758 
L 1003.536209 232.326322 
L 1006.401651 248.387962 
L 1009.362607 244.473551 
L 1012.228049 226.940344 
L 1015.189005 262.663614 
L 1018.149962 261.24369 
L 1021.015404 254.569298 
L 1023.97636 265.314935 
L 1026.841802 221.023477 
L 1029.802758 261.925586 
L 1032.763715 242.149734 
L 1035.438127 248.830422 
L 1038.399083 239.858534 
L 1041.264525 263.02335 
L 1044.225481 233.174118 
L 1047.090923 264.31363 
L 1050.05188 260.828594 
L 1053.003322 221.789704 
L 1055.868763 263.946424 
L 1058.82972 260.567629 
L 1061.695162 265.137025 
L 1064.656118 263.287084 
L 1067.617074 258.264008 
L 1070.291487 264.835229 
L 1073.252443 243.259715 
L 1073.252443 243.259715 
" style="fill:none;stroke:#1f77b4;stroke-linecap:square;stroke-width:2.5;"/>
   </g>
   <g id="line2d_30">
    <path clip-path="url(#pd54b59110f)" d="M 99.288807 265.640441 
L 1073.252443 265.640441 
L 1073.252443 265.640441 
" style="fill:none;stroke:#ff7f0e;stroke-linecap:square;stroke-width:2.5;"/>
   </g>
   <g id="line2d_31">
    <path clip-path="url(#pd54b59110f)" d="M 99.288807 265.640441 
L 1073.252443 265.640441 
L 1073.252443 265.640441 
" style="fill:none;stroke:#2ca02c;stroke-linecap:square;stroke-width:2.5;"/>
   </g>
   <g id="line2d_32">
    <path clip-path="url(#pd54b59110f)" d="M 99.288807 256.619781 
L 102.249763 255.660283 
L 105.115205 255.329366 
L 108.076161 255.177104 
L 111.037118 255.341488 
L 113.90256 255.768107 
L 116.863516 256.06237 
L 119.728958 256.580159 
L 122.689914 256.767947 
L 125.650871 256.409887 
L 128.325283 256.584788 
L 134.151681 255.846385 
L 137.112637 255.535776 
L 139.978079 255.438521 
L 142.939035 255.468206 
L 145.899992 255.988805 
L 157.552788 257.1416 
L 160.513745 257.019968 
L 163.283672 257.223648 
L 172.071026 256.140247 
L 177.897424 256.170831 
L 180.858381 256.371486 
L 186.684779 257.056777 
L 192.511177 257.602963 
L 198.146546 257.557005 
L 206.9339 256.829234 
L 209.799342 257.303191 
L 212.760298 256.780392 
L 215.721255 257.620045 
L 218.586697 257.334889 
L 221.547653 255.708949 
L 224.413095 256.620529 
L 227.374051 253.624059 
L 230.335008 254.375547 
L 233.00942 255.708298 
L 235.970376 256.666241 
L 238.835818 257.097359 
L 241.796774 257.28451 
L 250.584129 257.319218 
L 253.449571 257.753806 
L 256.410527 258.015198 
L 262.236925 258.317328 
L 267.872294 258.160545 
L 270.83325 257.870019 
L 282.486047 257.329024 
L 294.138843 258.353901 
L 300.060756 258.309827 
L 302.830683 258.302925 
L 311.618037 257.659013 
L 314.483479 257.765078 
L 320.405392 257.286865 
L 323.270834 257.912255 
L 326.23179 258.37512 
L 332.058188 258.525889 
L 337.693557 258.4428 
L 349.346353 257.758976 
L 352.30731 257.78051 
L 366.921062 258.501113 
L 375.517387 258.235649 
L 378.382829 258.059141 
L 381.343786 258.090829 
L 384.209227 257.852174 
L 390.13114 257.812733 
L 392.996582 257.925456 
L 395.957538 257.899563 
L 398.82298 257.687551 
L 401.783936 256.677087 
L 404.744893 256.837603 
L 407.419305 256.042668 
L 410.380262 257.046095 
L 419.072101 256.466424 
L 422.033058 256.509799 
L 424.994014 256.725726 
L 427.859456 257.059811 
L 430.820412 257.289368 
L 433.685854 257.361446 
L 442.377694 257.126986 
L 445.33865 256.922396 
L 448.204092 256.482515 
L 451.165048 256.253744 
L 454.03049 256.168265 
L 468.644243 257.018874 
L 474.566156 256.991505 
L 477.240568 256.967512 
L 488.893364 256.206052 
L 491.854321 256.237095 
L 497.680719 256.629232 
L 503.507117 256.969437 
L 509.42903 256.969705 
L 512.103442 256.952263 
L 523.756238 256.202046 
L 529.678151 256.340878 
L 535.504549 256.770175 
L 538.369991 256.940843 
L 544.291904 256.943324 
L 546.966316 256.926336 
L 558.619113 256.173906 
L 561.580069 256.181887 
L 564.541025 256.302604 
L 570.367424 256.744303 
L 573.232865 256.920248 
L 579.154778 256.925875 
L 581.924705 256.910518 
L 590.71206 256.265555 
L 593.577501 256.204183 
L 599.499414 256.370614 
L 605.325812 256.809838 
L 608.191254 256.984875 
L 614.113167 256.99029 
L 616.787579 256.974355 
L 628.440375 256.229396 
L 634.362288 256.366728 
L 640.188686 256.802758 
L 643.054128 256.977837 
L 648.976041 256.983205 
L 651.650453 256.967466 
L 657.476851 256.559014 
L 666.264206 256.385719 
L 669.225162 256.509973 
L 675.051561 256.934329 
L 677.917002 257.10235 
L 683.838915 257.104831 
L 686.513327 257.087235 
L 695.300682 256.442141 
L 701.12708 256.546777 
L 704.088037 256.625546 
L 709.914435 257.026508 
L 712.779876 257.185861 
L 718.701789 257.186107 
L 721.471716 257.167706 
L 733.124513 256.44938 
L 739.046425 256.561809 
L 744.872824 256.970826 
L 747.738265 257.136718 
L 753.660178 257.135409 
L 756.33459 257.117051 
L 765.121945 256.546891 
L 767.987387 256.451333 
L 773.909299 256.574033 
L 779.735698 256.981789 
L 782.601139 257.150041 
L 788.523052 257.148054 
L 791.197464 257.129805 
L 799.984819 256.500492 
L 805.811217 256.463837 
L 808.772174 256.571373 
L 814.598572 256.997285 
L 817.464013 257.16596 
L 823.385926 257.164492 
L 829.021295 257.036571 
L 834.847693 256.600985 
L 837.713135 256.513992 
L 840.674091 256.599963 
L 849.461446 257.191217 
L 855.287844 257.383139 
L 863.979684 257.210884 
L 869.806082 256.775153 
L 872.671524 256.696931 
L 875.642041 256.76968 
L 884.429349 257.324822 
L 890.255747 257.505911 
L 898.852072 257.3297 
L 904.67847 256.895018 
L 907.543912 256.815906 
L 910.504868 256.885886 
L 922.157665 257.552656 
L 928.079577 257.551382 
L 933.714946 257.418637 
L 939.541344 256.98502 
L 942.406786 256.904264 
L 945.367742 256.973865 
L 957.020539 257.627034 
L 962.942452 257.627248 
L 1000.575253 257.241022 
L 1003.536209 257.147315 
L 1009.362607 257.130536 
L 1012.228049 256.981593 
L 1015.189005 257.198079 
L 1023.97636 257.398824 
L 1026.841802 257.102649 
L 1029.802758 257.276451 
L 1035.438127 257.142683 
L 1038.399083 257.060983 
L 1041.264525 257.221242 
L 1044.225481 257.036651 
L 1047.090923 257.241515 
L 1050.05188 257.251043 
L 1053.003322 257.012582 
L 1055.868763 257.226053 
L 1058.82972 257.236557 
L 1061.695162 257.376965 
L 1070.291487 257.467608 
L 1073.252443 257.330272 
L 1073.252443 257.330272 
" style="fill:none;stroke:#d62728;stroke-linecap:square;stroke-width:2.5;"/>
   </g>
   <g id="line2d_33">
    <path clip-path="url(#pd54b59110f)" d="M 99.288807 231.7501 
L 102.249763 245.082331 
L 105.115205 231.35285 
L 108.076161 221.346821 
L 111.037118 203.984462 
L 113.90256 175.325193 
L 116.863516 164.689039 
L 119.728958 154.872421 
L 122.689914 164.802655 
L 125.650871 182.520037 
L 128.325283 186.769233 
L 131.286239 216.507693 
L 134.151681 232.473404 
L 137.112637 245.082331 
L 139.978079 235.883927 
L 142.939035 222.479029 
L 145.899992 203.984462 
L 148.765434 175.238434 
L 154.591832 154.872421 
L 157.552788 164.802655 
L 160.513745 182.520037 
L 163.283672 186.769233 
L 166.244628 216.507693 
L 169.11007 232.274094 
L 172.071026 245.082331 
L 174.936468 235.883927 
L 177.897424 220.994783 
L 180.858381 195.980787 
L 183.723822 175.325193 
L 186.684779 164.318598 
L 189.550221 154.872421 
L 192.511177 164.802655 
L 195.472133 182.520037 
L 198.146546 186.769233 
L 201.107502 216.507693 
L 203.972944 232.473404 
L 206.9339 245.076139 
L 209.799342 99.616079 
L 212.760298 217.57751 
L 215.721255 28.631127 
L 218.586697 173.685627 
L 221.547653 158.408296 
L 224.413095 154.872421 
L 227.374051 164.54002 
L 230.335008 182.520037 
L 233.00942 186.769233 
L 235.970376 216.507693 
L 238.835818 232.419322 
L 241.796774 244.830658 
L 244.662216 221.585062 
L 247.623173 219.475122 
L 250.584129 203.984462 
L 253.449571 175.325193 
L 259.275969 154.872421 
L 262.236925 164.802655 
L 265.197882 182.520037 
L 267.872294 186.769233 
L 270.83325 215.070979 
L 273.698692 232.439489 
L 276.659649 245.031689 
L 279.52509 228.797787 
L 282.486047 220.828919 
L 285.447003 201.054479 
L 288.312445 169.427933 
L 291.273401 157.809894 
L 294.138843 154.872421 
L 297.099799 164.802655 
L 300.060756 182.520037 
L 302.830683 186.769233 
L 305.791639 216.507693 
L 308.657081 232.473404 
L 311.618037 213.532898 
L 314.483479 174.296789 
L 317.444435 202.98838 
L 320.405392 203.984462 
L 323.270834 173.924604 
L 326.23179 164.734737 
L 329.097232 154.872421 
L 332.058188 164.802655 
L 335.019145 182.520037 
L 337.693557 186.768816 
L 340.654513 214.110253 
L 343.519955 232.473404 
L 346.480911 245.082331 
L 349.346353 235.883927 
L 352.30731 222.479029 
L 355.268266 183.297157 
L 358.133708 175.276531 
L 363.960106 154.872421 
L 366.921062 164.601729 
L 369.882019 182.520037 
L 372.556431 186.769233 
L 375.517387 216.507693 
L 378.382829 215.907043 
L 381.343786 169.595951 
L 384.209227 212.310698 
L 387.170184 176.79866 
L 390.13114 154.446093 
L 392.996582 175.325193 
L 398.82298 154.872421 
L 401.783936 164.802655 
L 404.744893 182.520037 
L 407.419305 186.769233 
L 410.380262 216.507693 
L 413.245703 232.473404 
L 416.20666 240.198186 
L 419.072101 235.729258 
L 422.033058 221.927839 
L 424.994014 203.984462 
L 427.859456 175.325193 
L 433.685854 154.872421 
L 436.646811 164.802655 
L 439.607767 182.520037 
L 442.377694 186.769233 
L 445.33865 216.352517 
L 448.204092 232.469043 
L 451.165048 244.528248 
L 454.03049 235.729258 
L 456.991447 153.487451 
L 459.952403 203.447717 
L 462.817845 175.325193 
L 468.644243 154.872421 
L 471.605199 164.802655 
L 474.566156 182.520037 
L 477.240568 186.769233 
L 480.201524 216.504776 
L 483.066966 230.849691 
L 486.027923 244.604053 
L 488.893364 235.729258 
L 494.815277 183.63942 
L 503.507117 154.872421 
L 506.468073 164.802655 
L 509.42903 182.520037 
L 512.103442 186.769233 
L 515.064399 216.504776 
L 517.92984 232.473404 
L 520.890797 245.082331 
L 523.756238 235.696458 
L 526.717195 215.675802 
L 529.678151 203.984462 
L 532.543593 175.325193 
L 538.369991 154.872421 
L 541.330948 164.802655 
L 544.291904 182.520037 
L 546.966316 186.769233 
L 549.927273 216.50158 
L 552.792714 232.473404 
L 555.753671 245.082331 
L 558.619113 234.295714 
L 561.580069 222.218746 
L 564.541025 203.984462 
L 567.406467 175.325193 
L 573.232865 154.872421 
L 576.193822 164.802655 
L 579.154778 182.520037 
L 581.924705 186.769233 
L 584.885662 216.504776 
L 587.751103 232.473404 
L 590.71206 237.793368 
L 593.577501 224.064862 
L 596.538458 198.652437 
L 599.499414 203.984462 
L 602.364856 169.867573 
L 605.325812 164.736216 
L 608.191254 154.872421 
L 611.15221 164.802655 
L 614.113167 182.520037 
L 616.787579 186.769233 
L 619.748536 216.504776 
L 622.613977 232.473404 
L 625.574934 244.56801 
L 628.440375 235.729258 
L 631.401332 215.916 
L 634.362288 203.984462 
L 637.22773 175.325193 
L 643.054128 154.872421 
L 646.015085 164.802655 
L 648.976041 182.520037 
L 651.650453 186.769233 
L 654.61141 216.504776 
L 657.476851 230.755091 
L 660.437808 173.670684 
L 663.30325 235.651943 
L 666.264206 217.52587 
L 669.225162 193.746277 
L 672.090604 167.73663 
L 675.051561 164.736216 
L 677.917002 154.872421 
L 680.877959 164.802655 
L 683.838915 182.520037 
L 686.513327 186.769233 
L 689.474284 216.504776 
L 692.339726 232.473404 
L 695.300682 245.082331 
L 698.166124 199.362659 
L 701.12708 174.586394 
L 704.088037 203.984462 
L 706.953478 175.325193 
L 709.914435 161.108347 
L 712.779876 154.872421 
L 715.740833 164.802655 
L 718.701789 182.520037 
L 721.471716 186.769233 
L 724.432673 216.504776 
L 727.298114 226.441912 
L 730.259071 245.074339 
L 733.124513 235.729258 
L 736.085469 222.218746 
L 739.046425 202.527083 
L 741.911867 175.325193 
L 747.738265 154.872421 
L 750.699222 164.802655 
L 753.660178 182.520037 
L 756.33459 186.769233 
L 759.295547 216.504776 
L 762.160988 232.473404 
L 765.121945 212.630048 
L 767.987387 235.729258 
L 770.948343 213.559221 
L 773.909299 203.984462 
L 776.774741 175.325193 
L 782.601139 154.868923 
L 785.562096 164.802655 
L 788.523052 182.520037 
L 791.197464 186.769233 
L 794.158421 216.504776 
L 797.023863 232.473404 
L 799.984819 236.152541 
L 802.850261 211.713963 
L 805.811217 221.582168 
L 808.772174 203.984462 
L 811.637615 163.352912 
L 814.598572 164.694251 
L 817.464013 154.872421 
L 820.42497 164.802655 
L 823.385926 182.520037 
L 826.060339 186.769233 
L 829.021295 163.112567 
L 831.886737 232.473404 
L 834.847693 245.082331 
L 837.713135 235.729258 
L 840.674091 184.770724 
L 843.635048 140.441578 
L 846.500489 175.325193 
L 849.461446 155.04426 
L 852.326888 154.872421 
L 855.287844 164.802655 
L 858.2488 182.520037 
L 861.018727 186.769233 
L 863.979684 163.112567 
L 866.845126 232.473404 
L 869.806082 245.082331 
L 872.671524 235.729258 
L 875.642041 184.770724 
L 878.602997 140.441578 
L 881.468392 175.325193 
L 884.429349 155.04426 
L 887.294791 154.872421 
L 890.255747 164.802655 
L 893.216703 182.520037 
L 895.891116 186.769233 
L 898.852072 163.112567 
L 901.717514 232.473404 
L 904.67847 245.082331 
L 907.543912 235.729258 
L 910.504868 184.770724 
L 913.465825 140.441578 
L 916.331266 175.325193 
L 919.292223 155.04426 
L 922.157665 154.872421 
L 925.118621 164.802655 
L 928.079577 182.520037 
L 930.75399 186.769233 
L 933.714946 163.112567 
L 936.580388 232.473404 
L 939.541344 245.082331 
L 942.406786 235.729258 
L 945.367742 184.770724 
L 948.328699 140.441578 
L 951.194141 175.325193 
L 954.155097 155.04426 
L 957.020539 154.872421 
L 959.981495 164.802655 
L 962.942452 182.520037 
L 965.616864 186.769233 
L 968.57782 163.112567 
L 971.443262 163.112567 
L 974.404218 143.965726 
L 977.26966 172.922629 
L 980.230617 159.881293 
L 983.191573 183.747666 
L 986.057015 190.310361 
L 989.017971 179.466618 
L 991.883413 186.668459 
L 994.844369 191.2232 
L 997.805326 167.707431 
L 1000.575253 217.975147 
L 1003.536209 218.78033 
L 1006.401651 194.113854 
L 1009.362607 202.577447 
L 1012.228049 228.813886 
L 1015.189005 160.059084 
L 1018.149962 167.109786 
L 1021.015404 185.408954 
L 1023.97636 143.241875 
L 1026.841802 234.513168 
L 1029.802758 167.528167 
L 1032.763715 207.934146 
L 1035.438127 199.352699 
L 1038.399083 213.227892 
L 1041.264525 165.518993 
L 1044.225481 222.197024 
L 1047.090923 158.976542 
L 1050.05188 176.264538 
L 1053.003322 236.645235 
L 1055.868763 163.463147 
L 1058.82972 178.968328 
L 1061.695162 153.575113 
L 1064.656118 169.100102 
L 1067.617074 183.905208 
L 1070.291487 161.010672 
L 1073.252443 207.378108 
L 1073.252443 207.378108 
" style="fill:none;stroke:#9467bd;stroke-linecap:square;stroke-width:2.5;"/>
   </g>
   <g id="line2d_34">
    <path clip-path="url(#pd54b59110f)" d="M 99.288807 290.685508 
L 102.249763 278.432382 
L 105.115205 285.956749 
L 108.076161 292.017946 
L 111.037118 305.584471 
L 113.90256 330.271918 
L 119.728958 345.444548 
L 122.689914 334.038787 
L 125.650871 316.212502 
L 128.325283 311.289107 
L 131.286239 285.93044 
L 134.151681 275.390792 
L 137.112637 271.194776 
L 139.978079 272.232648 
L 142.939035 279.225652 
L 145.899992 295.087629 
L 148.765434 321.805749 
L 154.591832 338.870679 
L 157.552788 327.958819 
L 160.513745 310.292349 
L 163.283672 305.60531 
L 166.244628 281.859475 
L 169.11007 274.046999 
L 172.071026 271.373274 
L 174.936468 271.445054 
L 177.897424 276.710197 
L 180.858381 298.116168 
L 183.723822 317.896457 
L 186.684779 327.256796 
L 189.550221 335.168483 
L 192.511177 324.272393 
L 195.472133 306.633793 
L 198.146546 302.20141 
L 201.107502 279.699277 
L 203.972944 273.739193 
L 206.9339 271.513867 
L 209.799342 391.4453 
L 212.760298 281.888609 
L 215.721255 457.253673 
L 218.586697 324.935538 
L 221.547653 337.394013 
L 224.413095 339.8337 
L 227.374051 337.350059 
L 230.335008 316.784986 
L 233.00942 308.124014 
L 235.970376 283.00226 
L 238.835818 277.077516 
L 241.796774 274.622324 
L 244.662216 282.4053 
L 247.623173 276.969352 
L 250.584129 287.632447 
L 253.449571 313.245378 
L 259.275969 330.29901 
L 262.236925 319.506982 
L 265.197882 302.472686 
L 267.872294 298.386507 
L 270.83325 278.957223 
L 273.698692 274.430425 
L 276.659649 272.733729 
L 279.52509 276.219408 
L 282.486047 274.031604 
L 285.447003 285.72647 
L 288.312445 314.200631 
L 291.273401 324.27744 
L 294.138843 327.678734 
L 297.099799 317.071034 
L 300.060756 299.743362 
L 302.830683 295.489245 
L 305.791639 276.583085 
L 308.657081 273.348727 
L 311.618037 294.259523 
L 314.483479 319.13046 
L 317.444435 286.217587 
L 320.405392 284.966095 
L 323.270834 310.774629 
L 326.23179 318.317368 
L 329.097232 326.493592 
L 332.058188 315.749245 
L 335.019145 298.340185 
L 337.693557 294.125406 
L 340.654513 276.744259 
L 343.519955 273.145553 
L 346.480911 271.881657 
L 349.346353 271.346208 
L 352.30731 271.886215 
L 355.268266 297.335155 
L 358.133708 307.074208 
L 363.960106 324.344966 
L 366.921062 313.852646 
L 369.882019 296.420267 
L 372.556431 292.255559 
L 375.517387 274.661295 
L 378.382829 283.82029 
L 381.343786 332.776002 
L 384.209227 286.153573 
L 387.170184 307.033193 
L 390.13114 323.239328 
L 392.996582 310.288898 
L 395.957538 318.283092 
L 398.82298 326.723049 
L 401.783936 319.211924 
L 404.744893 300.587822 
L 407.419305 294.484532 
L 410.380262 275.575763 
L 413.245703 273.280971 
L 416.20666 274.277158 
L 419.072101 271.513245 
L 422.033058 271.798736 
L 424.994014 278.598071 
L 427.859456 304.130167 
L 433.685854 321.31733 
L 436.646811 310.993633 
L 439.607767 293.852156 
L 442.377694 289.758582 
L 445.33865 273.834272 
L 448.204092 271.998939 
L 451.165048 271.13917 
L 454.03049 270.509309 
L 456.991447 331.845743 
L 459.952403 279.59009 
L 462.817845 304.296612 
L 468.644243 321.048913 
L 471.605199 310.307506 
L 474.566156 293.024784 
L 477.240568 288.814278 
L 480.201524 273.182156 
L 483.066966 272.456291 
L 486.027923 270.658576 
L 488.893364 270.143086 
L 491.854321 278.375826 
L 494.815277 292.296664 
L 497.680719 302.95993 
L 503.507117 319.752456 
L 506.468073 309.033936 
L 509.42903 291.788865 
L 512.103442 287.595598 
L 515.064399 272.613954 
L 517.92984 270.996646 
L 520.890797 270.126855 
L 523.756238 269.74261 
L 526.717195 273.552392 
L 529.678151 275.396809 
L 532.543593 301.02681 
L 538.369991 318.484329 
L 541.330948 307.978572 
L 544.291904 290.749535 
L 546.966316 286.57852 
L 549.927273 272.024607 
L 552.792714 270.492956 
L 555.753671 269.679261 
L 558.619113 269.864892 
L 561.580069 269.455965 
L 564.541025 274.524668 
L 567.406467 300.207881 
L 573.232865 317.704909 
L 576.193822 307.210347 
L 579.154778 289.972294 
L 581.924705 285.78309 
L 584.885662 271.532872 
L 587.751103 270.06073 
L 590.71206 274.113297 
L 593.577501 276.992208 
L 596.538458 287.718915 
L 599.499414 274.870284 
L 602.364856 303.255736 
L 605.325812 309.110562 
L 608.191254 317.3411 
L 611.15221 306.755298 
L 614.113167 289.476173 
L 616.787579 285.283119 
L 619.748536 271.182385 
L 622.613977 269.774598 
L 625.574934 269.162456 
L 628.440375 268.73942 
L 631.401332 272.37105 
L 634.362288 273.406663 
L 637.22773 298.944482 
L 643.054128 316.400305 
L 646.015085 305.933728 
L 648.976041 288.706301 
L 651.650453 284.556535 
L 654.61141 270.766213 
L 657.476851 270.101954 
L 660.437808 331.639939 
L 663.30325 270.653083 
L 666.264206 271.540869 
L 669.225162 279.873345 
L 672.090604 303.596356 
L 675.051561 308.525028 
L 677.917002 316.644858 
L 680.877959 305.967273 
L 683.838915 288.668785 
L 686.513327 284.46724 
L 689.474284 270.80621 
L 692.339726 269.508262 
L 695.300682 268.818487 
L 698.166124 298.101651 
L 701.12708 308.8386 
L 704.088037 275.048351 
L 706.953478 299.615712 
L 709.914435 309.90479 
L 712.779876 316.265084 
L 715.740833 305.588726 
L 718.701789 288.335115 
L 721.471716 284.145395 
L 724.432673 270.702583 
L 727.298114 272.451391 
L 730.259071 268.834621 
L 733.124513 268.569729 
L 736.085469 268.538927 
L 739.046425 272.774084 
L 741.911867 297.520992 
L 747.738265 314.806003 
L 750.699222 304.319394 
L 753.660178 287.147055 
L 756.33459 283.048989 
L 759.295547 270.105743 
L 762.160988 269.020966 
L 765.121945 294.506515 
L 767.987387 268.68742 
L 770.948343 272.952673 
L 773.909299 272.076541 
L 776.774741 297.13078 
L 782.601139 314.311477 
L 785.562096 303.830696 
L 788.523052 286.64935 
L 791.197464 282.547715 
L 794.158421 269.803838 
L 797.023863 268.793914 
L 799.984819 273.781402 
L 802.850261 286.377511 
L 805.811217 268.60477 
L 808.772174 271.632026 
L 811.637615 305.611387 
L 814.598572 305.728153 
L 817.464013 314.005982 
L 820.42497 303.489795 
L 823.385926 286.295869 
L 826.060339 282.182613 
L 829.021295 316.925518 
L 831.886737 269.960367 
L 834.847693 268.89695 
L 837.713135 268.433875 
L 843.635048 328.745176 
L 846.500489 300.293105 
L 849.461446 312.742222 
L 852.326888 315.794573 
L 855.287844 304.832469 
L 858.2488 287.491742 
L 861.018727 283.188488 
L 863.979684 315.552626 
L 866.845126 270.500327 
L 869.806082 269.650692 
L 872.671524 269.268268 
L 875.642041 297.37147 
L 878.602997 327.587485 
L 881.468392 300.228714 
L 884.429349 312.359502 
L 887.294791 315.764787 
L 890.255747 304.851306 
L 893.216703 287.657367 
L 895.891116 283.454274 
L 898.852072 314.693558 
L 901.717514 270.686516 
L 904.67847 269.915339 
L 907.543912 269.58992 
L 910.504868 296.72156 
L 913.465825 326.7712 
L 916.331266 299.900757 
L 919.292223 311.886819 
L 922.157665 315.437947 
L 925.118621 304.594011 
L 928.079577 287.491729 
L 930.75399 283.352091 
L 933.714946 314.046121 
L 936.580388 270.71219 
L 939.541344 270.001755 
L 942.406786 269.710491 
L 945.367742 296.173631 
L 948.328699 326.073133 
L 951.194141 299.572286 
L 954.155097 311.337052 
L 957.020539 315.11568 
L 959.981495 304.296662 
L 962.942452 287.269342 
L 965.616864 283.159681 
L 968.57782 313.491897 
L 971.443262 311.803916 
L 974.404218 322.39699 
L 977.26966 304.743541 
L 980.230617 311.025229 
L 983.191573 297.984798 
L 986.057015 294.279021 
L 989.017971 298.700493 
L 991.883413 294.779472 
L 994.844369 292.322811 
L 997.805326 304.100108 
L 1000.575253 282.528395 
L 1003.536209 281.435805 
L 1006.401651 289.896455 
L 1009.362607 285.796275 
L 1012.228049 278.207347 
L 1015.189005 309.7836 
L 1018.149962 303.92586 
L 1021.015404 292.621874 
L 1023.97636 322.753756 
L 1026.841802 278.032813 
L 1029.802758 302.910529 
L 1032.763715 283.298538 
L 1035.438127 285.320863 
L 1038.399083 281.090912 
L 1041.264525 304.575383 
L 1044.225481 279.175306 
L 1047.090923 309.864128 
L 1050.05188 296.130204 
L 1053.003322 276.553451 
L 1055.868763 306.1289 
L 1058.82972 294.065804 
L 1061.695162 313.973161 
L 1064.656118 300.281686 
L 1067.617074 290.766048 
L 1070.291487 306.430707 
L 1073.252443 282.781832 
L 1073.252443 282.781832 
" style="fill:none;stroke:#8c564b;stroke-linecap:square;stroke-width:2.5;"/>
   </g>
   <g id="line2d_35">
    <path clip-path="url(#pd54b59110f)" d="M 99.288807 266.26086 
L 145.899992 266.40537 
L 267.872294 266.575945 
L 1058.82972 266.745519 
L 1073.252443 266.760985 
L 1073.252443 266.760985 
" style="fill:none;stroke:#e377c2;stroke-linecap:square;stroke-width:2.5;"/>
   </g>
   <g id="line2d_36">
    <path clip-path="url(#pd54b59110f)" d="M 99.288807 275.721409 
L 102.249763 275.400459 
L 113.90256 275.331786 
L 221.547653 275.418109 
L 241.796774 275.46101 
L 323.270834 275.479259 
L 335.019145 275.493587 
L 337.693557 275.656277 
L 378.382829 275.665597 
L 404.744893 275.795653 
L 407.419305 277.263157 
L 430.820412 277.207557 
L 439.607767 277.214865 
L 442.377694 277.418184 
L 468.644243 277.432328 
L 471.605199 277.598694 
L 503.507117 277.596434 
L 506.468073 278.914502 
L 509.42903 278.78305 
L 512.103442 278.231986 
L 520.890797 278.118497 
L 529.678151 278.193229 
L 544.291904 278.258041 
L 637.22773 278.246486 
L 651.650453 278.283855 
L 666.264206 278.219024 
L 689.474284 278.270796 
L 698.166124 278.243068 
L 704.088037 278.249997 
L 718.701789 278.320714 
L 730.259071 278.237636 
L 733.124513 278.753403 
L 739.046425 278.775183 
L 744.872824 278.496482 
L 759.295547 278.437275 
L 770.948343 278.401288 
L 797.023863 278.421788 
L 808.772174 278.42168 
L 817.464013 278.525833 
L 831.886737 278.437542 
L 837.713135 278.4017 
L 843.635048 278.554954 
L 846.500489 278.488386 
L 855.287844 278.548771 
L 875.642041 278.501339 
L 878.602997 278.574669 
L 881.468392 278.505566 
L 890.255747 278.56588 
L 910.504868 278.518903 
L 913.465825 278.592346 
L 916.331266 278.522392 
L 925.118621 278.582896 
L 945.367742 278.536138 
L 948.328699 278.610354 
L 951.194141 278.5402 
L 959.981495 278.60151 
L 968.57782 278.653256 
L 1058.82972 278.595356 
L 1064.656118 278.6329 
L 1073.252443 278.562103 
L 1073.252443 278.562103 
" style="fill:none;stroke:#7f7f7f;stroke-linecap:square;stroke-width:2.5;"/>
   </g>
   <g id="line2d_37">
    <path clip-path="url(#pd54b59110f)" d="M 99.288807 292.70267 
L 102.249763 292.87992 
L 105.115205 293.409188 
L 108.076161 294.093621 
L 111.037118 295.110498 
L 113.90256 296.549431 
L 119.728958 299.178778 
L 122.689914 300.002139 
L 125.650871 300.29297 
L 128.325283 300.671244 
L 134.151681 299.736207 
L 137.112637 299.151035 
L 139.978079 299.062794 
L 142.939035 299.287327 
L 145.899992 299.897837 
L 154.591832 303.28463 
L 157.552788 303.961213 
L 160.513745 304.07311 
L 163.283672 304.349139 
L 172.071026 302.268795 
L 174.936468 302.066867 
L 177.897424 302.243563 
L 180.858381 302.864779 
L 186.684779 305.11123 
L 189.550221 306.224492 
L 192.511177 306.877078 
L 198.146546 307.110943 
L 206.9339 304.844486 
L 209.799342 306.102336 
L 212.760298 305.765381 
L 215.721255 308.342099 
L 218.586697 308.907868 
L 221.547653 308.314702 
L 224.413095 309.882646 
L 227.374051 304.347049 
L 230.335008 305.357869 
L 233.00942 308.270683 
L 235.970376 309.898921 
L 238.835818 310.558826 
L 244.662216 309.62006 
L 247.623173 309.396859 
L 250.584129 309.696087 
L 253.449571 310.82538 
L 259.275969 312.876841 
L 262.236925 313.400505 
L 267.872294 313.200056 
L 276.659649 310.332095 
L 279.52509 310.027448 
L 282.486047 310.007686 
L 285.447003 310.599265 
L 294.138843 314.143823 
L 297.099799 314.626566 
L 300.060756 314.530781 
L 302.830683 314.609848 
L 305.791639 313.55959 
L 311.618037 311.937089 
L 314.483479 312.231949 
L 317.444435 312.061633 
L 320.405392 312.29649 
L 326.23179 315.039997 
L 329.097232 316.058488 
L 332.058188 316.518646 
L 337.693557 316.390709 
L 343.519955 314.435239 
L 346.480911 313.37762 
L 349.346353 313.070737 
L 352.30731 313.060501 
L 355.268266 313.743452 
L 358.133708 314.825401 
L 361.094664 315.818478 
L 363.960106 316.956731 
L 366.921062 317.452216 
L 372.556431 317.318439 
L 378.382829 315.607028 
L 381.343786 315.37544 
L 384.209227 314.833691 
L 387.170184 315.287267 
L 390.13114 316.10003 
L 395.957538 318.112761 
L 398.82298 318.795439 
L 401.783936 316.629786 
L 404.744893 316.998754 
L 407.419305 318.247841 
L 410.380262 319.505908 
L 416.20666 316.951202 
L 419.072101 316.405676 
L 422.033058 316.300088 
L 424.994014 316.792046 
L 430.820412 319.152205 
L 433.685854 320.136191 
L 436.646811 320.436349 
L 442.377694 320.14675 
L 445.33865 319.050703 
L 448.204092 317.799362 
L 451.165048 316.725478 
L 454.03049 316.337992 
L 456.991447 316.954048 
L 459.952403 317.334497 
L 462.817845 318.517109 
L 465.778801 319.557827 
L 468.644243 320.692024 
L 471.605199 321.135971 
L 474.566156 320.960217 
L 477.240568 320.948092 
L 486.027923 317.680112 
L 488.893364 317.271884 
L 491.854321 317.356377 
L 494.815277 317.964622 
L 497.680719 319.117448 
L 503.507117 321.310158 
L 506.468073 321.624085 
L 509.42903 321.350027 
L 512.103442 321.292004 
L 520.890797 317.944667 
L 523.756238 317.521279 
L 526.717195 317.556306 
L 529.678151 317.991022 
L 532.543593 319.172835 
L 535.504549 320.216664 
L 538.369991 321.353831 
L 541.330948 321.803665 
L 544.291904 321.624261 
L 546.966316 321.613808 
L 555.753671 318.328742 
L 558.619113 317.948652 
L 561.580069 317.924999 
L 564.541025 318.3792 
L 567.406467 319.575317 
L 573.232865 321.779572 
L 576.193822 322.237189 
L 579.154778 322.059651 
L 581.924705 322.054322 
L 590.71206 318.837991 
L 593.577501 318.531535 
L 596.538458 318.691008 
L 599.499414 319.10828 
L 602.364856 320.353963 
L 605.325812 321.396112 
L 608.191254 322.545405 
L 611.15221 322.968487 
L 614.113167 322.774111 
L 616.787579 322.751778 
L 625.574934 319.40086 
L 628.440375 318.981646 
L 631.401332 319.015599 
L 634.362288 319.460809 
L 637.22773 320.664526 
L 643.054128 322.881623 
L 646.015085 323.311314 
L 648.976041 323.122684 
L 651.650453 323.105311 
L 657.476851 320.913041 
L 663.30325 319.856582 
L 666.264206 319.863361 
L 669.225162 320.39716 
L 672.090604 321.648506 
L 677.917002 323.818262 
L 680.877959 324.223684 
L 683.838915 324.007374 
L 686.513327 323.965421 
L 695.300682 320.510993 
L 698.166124 320.409884 
L 704.088037 321.108673 
L 706.953478 322.312714 
L 712.779876 324.501891 
L 715.740833 324.900047 
L 718.701789 324.666511 
L 721.471716 324.615261 
L 730.259071 321.141676 
L 733.124513 320.692041 
L 736.085469 320.641889 
L 739.046425 321.105574 
L 741.911867 322.322263 
L 747.738265 324.517638 
L 750.699222 324.941501 
L 753.660178 324.722673 
L 756.33459 324.684007 
L 762.160988 322.395452 
L 765.121945 321.520593 
L 767.987387 321.018117 
L 770.948343 321.055909 
L 773.909299 321.493935 
L 776.774741 322.720877 
L 782.601139 324.931958 
L 785.562096 325.342292 
L 788.523052 325.116662 
L 791.197464 325.073271 
L 797.023863 322.764462 
L 799.984819 321.65849 
L 802.850261 321.410809 
L 805.811217 321.329732 
L 808.772174 321.780664 
L 811.637615 323.127708 
L 814.598572 324.165937 
L 817.464013 325.309296 
L 820.42497 325.717828 
L 823.385926 325.486088 
L 826.060339 325.440566 
L 829.021295 324.75999 
L 834.847693 322.273038 
L 837.713135 321.81653 
L 840.674091 322.132212 
L 843.635048 323.156525 
L 852.326888 326.546503 
L 855.287844 326.908704 
L 858.2488 326.620807 
L 861.018727 326.535123 
L 863.979684 325.79897 
L 869.806082 323.213967 
L 872.671524 322.713218 
L 875.642041 323.015564 
L 878.602997 324.034654 
L 887.294791 327.393237 
L 890.255747 327.726315 
L 893.216703 327.408116 
L 895.891116 327.302857 
L 898.852072 326.539102 
L 904.67847 323.904182 
L 907.543912 323.387643 
L 910.504868 323.681832 
L 913.465825 324.697207 
L 919.292223 326.97434 
L 922.157665 328.051165 
L 925.118621 328.369652 
L 928.079577 328.037049 
L 930.75399 327.922488 
L 933.714946 327.148644 
L 939.541344 324.479658 
L 942.406786 323.957779 
L 945.367742 324.248112 
L 948.328699 325.279709 
L 954.155097 327.548343 
L 957.020539 328.619921 
L 959.981495 328.941631 
L 962.942452 328.59618 
L 965.616864 328.476677 
L 968.57782 327.693424 
L 971.443262 327.544153 
L 974.404218 327.976262 
L 977.26966 327.43458 
L 980.230617 327.608831 
L 983.191573 327.026505 
L 986.057015 326.599044 
L 989.017971 326.569587 
L 994.844369 325.93658 
L 997.805326 326.299538 
L 1000.575253 325.148673 
L 1003.536209 324.533127 
L 1006.401651 324.613969 
L 1009.362607 324.23399 
L 1012.228049 323.331381 
L 1015.189005 324.435422 
L 1018.149962 324.610225 
L 1021.015404 324.353488 
L 1023.97636 325.36216 
L 1026.841802 323.583247 
L 1029.802758 324.487946 
L 1032.763715 323.676115 
L 1035.438127 323.551659 
L 1038.399083 322.994459 
L 1041.264525 323.79411 
L 1044.225481 322.665824 
L 1047.090923 323.719307 
L 1050.05188 323.663655 
L 1053.003322 322.269393 
L 1055.868763 323.357892 
L 1058.82972 323.30372 
L 1061.695162 324.010109 
L 1064.656118 324.026566 
L 1067.617074 323.809869 
L 1070.291487 324.316969 
L 1073.252443 323.410064 
L 1073.252443 323.410064 
" style="fill:none;stroke:#bcbd22;stroke-linecap:square;stroke-width:2.5;"/>
   </g>
   <g id="line2d_38">
    <path clip-path="url(#pd54b59110f)" d="M 99.288807 265.640441 
L 1073.252443 265.640441 
L 1073.252443 265.640441 
" style="fill:none;stroke:#17becf;stroke-linecap:square;stroke-width:2.5;"/>
   </g>
   <g id="patch_3">
    <path d="M 50.590625 478.6848 
L 50.590625 7.2 
" style="fill:none;stroke:#000000;stroke-linecap:square;stroke-linejoin:miter;stroke-width:0.8;"/>
   </g>
   <g id="patch_4">
    <path d="M 1121.950625 478.6848 
L 1121.950625 7.2 
" style="fill:none;stroke:#000000;stroke-linecap:square;stroke-linejoin:miter;stroke-width:0.8;"/>
   </g>
   <g id="patch_5">
    <path d="M 50.590625 478.6848 
L 1121.950625 478.6848 
" style="fill:none;stroke:#000000;stroke-linecap:square;stroke-linejoin:miter;stroke-width:0.8;"/>
   </g>
   <g id="patch_6">
    <path d="M 50.590625 7.2 
L 1121.950625 7.2 
" style="fill:none;stroke:#000000;stroke-linecap:square;stroke-linejoin:miter;stroke-width:0.8;"/>
   </g>
   <g id="legend_1">
    <g id="patch_7">
     <path d="M 57.590625 164.7625 
L 203.715625 164.7625 
Q 205.715625 164.7625 205.715625 162.7625 
L 205.715625 14.2 
Q 205.715625 12.2 203.715625 12.2 
L 57.590625 12.2 
Q 55.590625 12.2 55.590625 14.2 
L 55.590625 162.7625 
Q 55.590625 164.7625 57.590625 164.7625 
z
" style="fill:#ffffff;opacity:0.8;stroke:#cccccc;stroke-linejoin:miter;"/>
    </g>
    <g id="line2d_39">
     <path d="M 59.590625 20.298437 
L 79.590625 20.298437 
" style="fill:none;stroke:#1f77b4;stroke-linecap:square;stroke-width:2.5;"/>
    </g>
    <g id="line2d_40"/>
    <g id="text_16">
     <!-- STORAGE_IN -->
     <defs>
      <path d="M 53.515625 70.515625 
L 53.515625 60.890625 
Q 47.90625 63.578125 42.921875 64.890625 
Q 37.9375 66.21875 33.296875 66.21875 
Q 25.25 66.21875 20.875 63.09375 
Q 16.5 59.96875 16.5 54.203125 
Q 16.5 49.359375 19.40625 46.890625 
Q 22.3125 44.4375 30.421875 42.921875 
L 36.375 41.703125 
Q 47.40625 39.59375 52.65625 34.296875 
Q 57.90625 29 57.90625 20.125 
Q 57.90625 9.515625 50.796875 4.046875 
Q 43.703125 -1.421875 29.984375 -1.421875 
Q 24.8125 -1.421875 18.96875 -0.25 
Q 13.140625 0.921875 6.890625 3.21875 
L 6.890625 13.375 
Q 12.890625 10.015625 18.65625 8.296875 
Q 24.421875 6.59375 29.984375 6.59375 
Q 38.421875 6.59375 43.015625 9.90625 
Q 47.609375 13.234375 47.609375 19.390625 
Q 47.609375 24.75 44.3125 27.78125 
Q 41.015625 30.8125 33.5 32.328125 
L 27.484375 33.5 
Q 16.453125 35.6875 11.515625 40.375 
Q 6.59375 45.0625 6.59375 53.421875 
Q 6.59375 63.09375 13.40625 68.65625 
Q 20.21875 74.21875 32.171875 74.21875 
Q 37.3125 74.21875 42.625 73.28125 
Q 47.953125 72.359375 53.515625 70.515625 
z
" id="DejaVuSans-83"/>
      <path d="M -0.296875 72.90625 
L 61.375 72.90625 
L 61.375 64.59375 
L 35.5 64.59375 
L 35.5 0 
L 25.59375 0 
L 25.59375 64.59375 
L -0.296875 64.59375 
z
" id="DejaVuSans-84"/>
      <path d="M 39.40625 66.21875 
Q 28.65625 66.21875 22.328125 58.203125 
Q 16.015625 50.203125 16.015625 36.375 
Q 16.015625 22.609375 22.328125 14.59375 
Q 28.65625 6.59375 39.40625 6.59375 
Q 50.140625 6.59375 56.421875 14.59375 
Q 62.703125 22.609375 62.703125 36.375 
Q 62.703125 50.203125 56.421875 58.203125 
Q 50.140625 66.21875 39.40625 66.21875 
z
M 39.40625 74.21875 
Q 54.734375 74.21875 63.90625 63.9375 
Q 73.09375 53.65625 73.09375 36.375 
Q 73.09375 19.140625 63.90625 8.859375 
Q 54.734375 -1.421875 39.40625 -1.421875 
Q 24.03125 -1.421875 14.8125 8.828125 
Q 5.609375 19.09375 5.609375 36.375 
Q 5.609375 53.65625 14.8125 63.9375 
Q 24.03125 74.21875 39.40625 74.21875 
z
" id="DejaVuSans-79"/>
      <path d="M 44.390625 34.1875 
Q 47.5625 33.109375 50.5625 29.59375 
Q 53.5625 26.078125 56.59375 19.921875 
L 66.609375 0 
L 56 0 
L 46.6875 18.703125 
Q 43.0625 26.03125 39.671875 28.421875 
Q 36.28125 30.8125 30.421875 30.8125 
L 19.671875 30.8125 
L 19.671875 0 
L 9.8125 0 
L 9.8125 72.90625 
L 32.078125 72.90625 
Q 44.578125 72.90625 50.734375 67.671875 
Q 56.890625 62.453125 56.890625 51.90625 
Q 56.890625 45.015625 53.6875 40.46875 
Q 50.484375 35.9375 44.390625 34.1875 
z
M 19.671875 64.796875 
L 19.671875 38.921875 
L 32.078125 38.921875 
Q 39.203125 38.921875 42.84375 42.21875 
Q 46.484375 45.515625 46.484375 51.90625 
Q 46.484375 58.296875 42.84375 61.546875 
Q 39.203125 64.796875 32.078125 64.796875 
z
" id="DejaVuSans-82"/>
      <path d="M 34.1875 63.1875 
L 20.796875 26.90625 
L 47.609375 26.90625 
z
M 28.609375 72.90625 
L 39.796875 72.90625 
L 67.578125 0 
L 57.328125 0 
L 50.6875 18.703125 
L 17.828125 18.703125 
L 11.1875 0 
L 0.78125 0 
z
" id="DejaVuSans-65"/>
      <path d="M 59.515625 10.40625 
L 59.515625 29.984375 
L 43.40625 29.984375 
L 43.40625 38.09375 
L 69.28125 38.09375 
L 69.28125 6.78125 
Q 63.578125 2.734375 56.6875 0.65625 
Q 49.8125 -1.421875 42 -1.421875 
Q 24.90625 -1.421875 15.25 8.5625 
Q 5.609375 18.5625 5.609375 36.375 
Q 5.609375 54.25 15.25 64.234375 
Q 24.90625 74.21875 42 74.21875 
Q 49.125 74.21875 55.546875 72.453125 
Q 61.96875 70.703125 67.390625 67.28125 
L 67.390625 56.78125 
Q 61.921875 61.421875 55.765625 63.765625 
Q 49.609375 66.109375 42.828125 66.109375 
Q 29.4375 66.109375 22.71875 58.640625 
Q 16.015625 51.171875 16.015625 36.375 
Q 16.015625 21.625 22.71875 14.15625 
Q 29.4375 6.6875 42.828125 6.6875 
Q 48.046875 6.6875 52.140625 7.59375 
Q 56.25 8.5 59.515625 10.40625 
z
" id="DejaVuSans-71"/>
      <path d="M 9.8125 72.90625 
L 55.90625 72.90625 
L 55.90625 64.59375 
L 19.671875 64.59375 
L 19.671875 43.015625 
L 54.390625 43.015625 
L 54.390625 34.71875 
L 19.671875 34.71875 
L 19.671875 8.296875 
L 56.78125 8.296875 
L 56.78125 0 
L 9.8125 0 
z
" id="DejaVuSans-69"/>
      <path d="M 50.984375 -16.609375 
L 50.984375 -23.578125 
L -0.984375 -23.578125 
L -0.984375 -16.609375 
z
" id="DejaVuSans-95"/>
      <path d="M 9.8125 72.90625 
L 19.671875 72.90625 
L 19.671875 0 
L 9.8125 0 
z
" id="DejaVuSans-73"/>
      <path d="M 9.8125 72.90625 
L 23.09375 72.90625 
L 55.421875 11.921875 
L 55.421875 72.90625 
L 64.984375 72.90625 
L 64.984375 0 
L 51.703125 0 
L 19.390625 60.984375 
L 19.390625 0 
L 9.8125 0 
z
" id="DejaVuSans-78"/>
     </defs>
     <g transform="translate(87.590625 23.798437)scale(0.1 -0.1)">
      <use xlink:href="#DejaVuSans-83"/>
      <use x="63.476562" xlink:href="#DejaVuSans-84"/>
      <use x="124.560547" xlink:href="#DejaVuSans-79"/>
      <use x="203.271484" xlink:href="#DejaVuSans-82"/>
      <use x="268.753906" xlink:href="#DejaVuSans-65"/>
      <use x="335.412109" xlink:href="#DejaVuSans-71"/>
      <use x="412.902344" xlink:href="#DejaVuSans-69"/>
      <use x="476.085938" xlink:href="#DejaVuSans-95"/>
      <use x="526.085938" xlink:href="#DejaVuSans-73"/>
      <use x="555.578125" xlink:href="#DejaVuSans-78"/>
     </g>
    </g>
    <g id="line2d_41">
     <path d="M 59.590625 35.254687 
L 79.590625 35.254687 
" style="fill:none;stroke:#ff7f0e;stroke-linecap:square;stroke-width:2.5;"/>
    </g>
    <g id="line2d_42"/>
    <g id="text_17">
     <!-- CONSTANT_HEAD_IN -->
     <defs>
      <path d="M 64.40625 67.28125 
L 64.40625 56.890625 
Q 59.421875 61.53125 53.78125 63.8125 
Q 48.140625 66.109375 41.796875 66.109375 
Q 29.296875 66.109375 22.65625 58.46875 
Q 16.015625 50.828125 16.015625 36.375 
Q 16.015625 21.96875 22.65625 14.328125 
Q 29.296875 6.6875 41.796875 6.6875 
Q 48.140625 6.6875 53.78125 8.984375 
Q 59.421875 11.28125 64.40625 15.921875 
L 64.40625 5.609375 
Q 59.234375 2.09375 53.4375 0.328125 
Q 47.65625 -1.421875 41.21875 -1.421875 
Q 24.65625 -1.421875 15.125 8.703125 
Q 5.609375 18.84375 5.609375 36.375 
Q 5.609375 53.953125 15.125 64.078125 
Q 24.65625 74.21875 41.21875 74.21875 
Q 47.75 74.21875 53.53125 72.484375 
Q 59.328125 70.75 64.40625 67.28125 
z
" id="DejaVuSans-67"/>
      <path d="M 9.8125 72.90625 
L 19.671875 72.90625 
L 19.671875 43.015625 
L 55.515625 43.015625 
L 55.515625 72.90625 
L 65.375 72.90625 
L 65.375 0 
L 55.515625 0 
L 55.515625 34.71875 
L 19.671875 34.71875 
L 19.671875 0 
L 9.8125 0 
z
" id="DejaVuSans-72"/>
      <path d="M 19.671875 64.796875 
L 19.671875 8.109375 
L 31.59375 8.109375 
Q 46.6875 8.109375 53.6875 14.9375 
Q 60.6875 21.78125 60.6875 36.53125 
Q 60.6875 51.171875 53.6875 57.984375 
Q 46.6875 64.796875 31.59375 64.796875 
z
M 9.8125 72.90625 
L 30.078125 72.90625 
Q 51.265625 72.90625 61.171875 64.09375 
Q 71.09375 55.28125 71.09375 36.53125 
Q 71.09375 17.671875 61.125 8.828125 
Q 51.171875 0 30.078125 0 
L 9.8125 0 
z
" id="DejaVuSans-68"/>
     </defs>
     <g transform="translate(87.590625 38.754687)scale(0.1 -0.1)">
      <use xlink:href="#DejaVuSans-67"/>
      <use x="69.824219" xlink:href="#DejaVuSans-79"/>
      <use x="148.535156" xlink:href="#DejaVuSans-78"/>
      <use x="223.339844" xlink:href="#DejaVuSans-83"/>
      <use x="286.816406" xlink:href="#DejaVuSans-84"/>
      <use x="340.150391" xlink:href="#DejaVuSans-65"/>
      <use x="408.558594" xlink:href="#DejaVuSans-78"/>
      <use x="483.363281" xlink:href="#DejaVuSans-84"/>
      <use x="544.447266" xlink:href="#DejaVuSans-95"/>
      <use x="594.447266" xlink:href="#DejaVuSans-72"/>
      <use x="669.642578" xlink:href="#DejaVuSans-69"/>
      <use x="732.826172" xlink:href="#DejaVuSans-65"/>
      <use x="801.234375" xlink:href="#DejaVuSans-68"/>
      <use x="878.236328" xlink:href="#DejaVuSans-95"/>
      <use x="928.236328" xlink:href="#DejaVuSans-73"/>
      <use x="957.728516" xlink:href="#DejaVuSans-78"/>
     </g>
    </g>
    <g id="line2d_43">
     <path d="M 59.590625 50.210937 
L 79.590625 50.210937 
" style="fill:none;stroke:#2ca02c;stroke-linecap:square;stroke-width:2.5;"/>
    </g>
    <g id="line2d_44"/>
    <g id="text_18">
     <!-- WELLS_IN -->
     <defs>
      <path d="M 3.328125 72.90625 
L 13.28125 72.90625 
L 28.609375 11.28125 
L 43.890625 72.90625 
L 54.984375 72.90625 
L 70.3125 11.28125 
L 85.59375 72.90625 
L 95.609375 72.90625 
L 77.296875 0 
L 64.890625 0 
L 49.515625 63.28125 
L 33.984375 0 
L 21.578125 0 
z
" id="DejaVuSans-87"/>
      <path d="M 9.8125 72.90625 
L 19.671875 72.90625 
L 19.671875 8.296875 
L 55.171875 8.296875 
L 55.171875 0 
L 9.8125 0 
z
" id="DejaVuSans-76"/>
     </defs>
     <g transform="translate(87.590625 53.710937)scale(0.1 -0.1)">
      <use xlink:href="#DejaVuSans-87"/>
      <use x="98.876953" xlink:href="#DejaVuSans-69"/>
      <use x="162.060547" xlink:href="#DejaVuSans-76"/>
      <use x="217.773438" xlink:href="#DejaVuSans-76"/>
      <use x="273.486328" xlink:href="#DejaVuSans-83"/>
      <use x="336.962891" xlink:href="#DejaVuSans-95"/>
      <use x="386.962891" xlink:href="#DejaVuSans-73"/>
      <use x="416.455078" xlink:href="#DejaVuSans-78"/>
     </g>
    </g>
    <g id="line2d_45">
     <path d="M 59.590625 65.167187 
L 79.590625 65.167187 
" style="fill:none;stroke:#d62728;stroke-linecap:square;stroke-width:2.5;"/>
    </g>
    <g id="line2d_46"/>
    <g id="text_19">
     <!-- RIVER_LEAKAGE_IN -->
     <defs>
      <path d="M 28.609375 0 
L 0.78125 72.90625 
L 11.078125 72.90625 
L 34.1875 11.53125 
L 57.328125 72.90625 
L 67.578125 72.90625 
L 39.796875 0 
z
" id="DejaVuSans-86"/>
      <path d="M 9.8125 72.90625 
L 19.671875 72.90625 
L 19.671875 42.09375 
L 52.390625 72.90625 
L 65.09375 72.90625 
L 28.90625 38.921875 
L 67.671875 0 
L 54.6875 0 
L 19.671875 35.109375 
L 19.671875 0 
L 9.8125 0 
z
" id="DejaVuSans-75"/>
     </defs>
     <g transform="translate(87.590625 68.667187)scale(0.1 -0.1)">
      <use xlink:href="#DejaVuSans-82"/>
      <use x="69.482422" xlink:href="#DejaVuSans-73"/>
      <use x="98.974609" xlink:href="#DejaVuSans-86"/>
      <use x="167.382812" xlink:href="#DejaVuSans-69"/>
      <use x="230.566406" xlink:href="#DejaVuSans-82"/>
      <use x="300.048828" xlink:href="#DejaVuSans-95"/>
      <use x="350.048828" xlink:href="#DejaVuSans-76"/>
      <use x="405.761719" xlink:href="#DejaVuSans-69"/>
      <use x="468.945312" xlink:href="#DejaVuSans-65"/>
      <use x="537.353516" xlink:href="#DejaVuSans-75"/>
      <use x="601.179688" xlink:href="#DejaVuSans-65"/>
      <use x="667.837891" xlink:href="#DejaVuSans-71"/>
      <use x="745.328125" xlink:href="#DejaVuSans-69"/>
      <use x="808.511719" xlink:href="#DejaVuSans-95"/>
      <use x="858.511719" xlink:href="#DejaVuSans-73"/>
      <use x="888.003906" xlink:href="#DejaVuSans-78"/>
     </g>
    </g>
    <g id="line2d_47">
     <path d="M 59.590625 80.123437 
L 79.590625 80.123437 
" style="fill:none;stroke:#9467bd;stroke-linecap:square;stroke-width:2.5;"/>
    </g>
    <g id="line2d_48"/>
    <g id="text_20">
     <!-- RECHARGE_IN -->
     <g transform="translate(87.590625 83.623437)scale(0.1 -0.1)">
      <use xlink:href="#DejaVuSans-82"/>
      <use x="69.482422" xlink:href="#DejaVuSans-69"/>
      <use x="132.666016" xlink:href="#DejaVuSans-67"/>
      <use x="202.490234" xlink:href="#DejaVuSans-72"/>
      <use x="277.685547" xlink:href="#DejaVuSans-65"/>
      <use x="346.09375" xlink:href="#DejaVuSans-82"/>
      <use x="415.576172" xlink:href="#DejaVuSans-71"/>
      <use x="493.066406" xlink:href="#DejaVuSans-69"/>
      <use x="556.25" xlink:href="#DejaVuSans-95"/>
      <use x="606.25" xlink:href="#DejaVuSans-73"/>
      <use x="635.742188" xlink:href="#DejaVuSans-78"/>
     </g>
    </g>
    <g id="line2d_49">
     <path d="M 59.590625 95.079687 
L 79.590625 95.079687 
" style="fill:none;stroke:#8c564b;stroke-linecap:square;stroke-width:2.5;"/>
    </g>
    <g id="line2d_50"/>
    <g id="text_21">
     <!-- STORAGE_OUT -->
     <defs>
      <path d="M 8.6875 72.90625 
L 18.609375 72.90625 
L 18.609375 28.609375 
Q 18.609375 16.890625 22.84375 11.734375 
Q 27.09375 6.59375 36.625 6.59375 
Q 46.09375 6.59375 50.34375 11.734375 
Q 54.59375 16.890625 54.59375 28.609375 
L 54.59375 72.90625 
L 64.5 72.90625 
L 64.5 27.390625 
Q 64.5 13.140625 57.4375 5.859375 
Q 50.390625 -1.421875 36.625 -1.421875 
Q 22.796875 -1.421875 15.734375 5.859375 
Q 8.6875 13.140625 8.6875 27.390625 
z
" id="DejaVuSans-85"/>
     </defs>
     <g transform="translate(87.590625 98.579687)scale(0.1 -0.1)">
      <use xlink:href="#DejaVuSans-83"/>
      <use x="63.476562" xlink:href="#DejaVuSans-84"/>
      <use x="124.560547" xlink:href="#DejaVuSans-79"/>
      <use x="203.271484" xlink:href="#DejaVuSans-82"/>
      <use x="268.753906" xlink:href="#DejaVuSans-65"/>
      <use x="335.412109" xlink:href="#DejaVuSans-71"/>
      <use x="412.902344" xlink:href="#DejaVuSans-69"/>
      <use x="476.085938" xlink:href="#DejaVuSans-95"/>
      <use x="526.085938" xlink:href="#DejaVuSans-79"/>
      <use x="604.796875" xlink:href="#DejaVuSans-85"/>
      <use x="677.990234" xlink:href="#DejaVuSans-84"/>
     </g>
    </g>
    <g id="line2d_51">
     <path d="M 59.590625 110.035937 
L 79.590625 110.035937 
" style="fill:none;stroke:#e377c2;stroke-linecap:square;stroke-width:2.5;"/>
    </g>
    <g id="line2d_52"/>
    <g id="text_22">
     <!-- CONSTANT_HEAD_OUT -->
     <g transform="translate(87.590625 113.535937)scale(0.1 -0.1)">
      <use xlink:href="#DejaVuSans-67"/>
      <use x="69.824219" xlink:href="#DejaVuSans-79"/>
      <use x="148.535156" xlink:href="#DejaVuSans-78"/>
      <use x="223.339844" xlink:href="#DejaVuSans-83"/>
      <use x="286.816406" xlink:href="#DejaVuSans-84"/>
      <use x="340.150391" xlink:href="#DejaVuSans-65"/>
      <use x="408.558594" xlink:href="#DejaVuSans-78"/>
      <use x="483.363281" xlink:href="#DejaVuSans-84"/>
      <use x="544.447266" xlink:href="#DejaVuSans-95"/>
      <use x="594.447266" xlink:href="#DejaVuSans-72"/>
      <use x="669.642578" xlink:href="#DejaVuSans-69"/>
      <use x="732.826172" xlink:href="#DejaVuSans-65"/>
      <use x="801.234375" xlink:href="#DejaVuSans-68"/>
      <use x="878.236328" xlink:href="#DejaVuSans-95"/>
      <use x="928.236328" xlink:href="#DejaVuSans-79"/>
      <use x="1006.947266" xlink:href="#DejaVuSans-85"/>
      <use x="1080.140625" xlink:href="#DejaVuSans-84"/>
     </g>
    </g>
    <g id="line2d_53">
     <path d="M 59.590625 124.992187 
L 79.590625 124.992187 
" style="fill:none;stroke:#7f7f7f;stroke-linecap:square;stroke-width:2.5;"/>
    </g>
    <g id="line2d_54"/>
    <g id="text_23">
     <!-- WELLS_OUT -->
     <g transform="translate(87.590625 128.492187)scale(0.1 -0.1)">
      <use xlink:href="#DejaVuSans-87"/>
      <use x="98.876953" xlink:href="#DejaVuSans-69"/>
      <use x="162.060547" xlink:href="#DejaVuSans-76"/>
      <use x="217.773438" xlink:href="#DejaVuSans-76"/>
      <use x="273.486328" xlink:href="#DejaVuSans-83"/>
      <use x="336.962891" xlink:href="#DejaVuSans-95"/>
      <use x="386.962891" xlink:href="#DejaVuSans-79"/>
      <use x="465.673828" xlink:href="#DejaVuSans-85"/>
      <use x="538.867188" xlink:href="#DejaVuSans-84"/>
     </g>
    </g>
    <g id="line2d_55">
     <path d="M 59.590625 139.948437 
L 79.590625 139.948437 
" style="fill:none;stroke:#bcbd22;stroke-linecap:square;stroke-width:2.5;"/>
    </g>
    <g id="line2d_56"/>
    <g id="text_24">
     <!-- RIVER_LEAKAGE_OUT -->
     <g transform="translate(87.590625 143.448437)scale(0.1 -0.1)">
      <use xlink:href="#DejaVuSans-82"/>
      <use x="69.482422" xlink:href="#DejaVuSans-73"/>
      <use x="98.974609" xlink:href="#DejaVuSans-86"/>
      <use x="167.382812" xlink:href="#DejaVuSans-69"/>
      <use x="230.566406" xlink:href="#DejaVuSans-82"/>
      <use x="300.048828" xlink:href="#DejaVuSans-95"/>
      <use x="350.048828" xlink:href="#DejaVuSans-76"/>
      <use x="405.761719" xlink:href="#DejaVuSans-69"/>
      <use x="468.945312" xlink:href="#DejaVuSans-65"/>
      <use x="537.353516" xlink:href="#DejaVuSans-75"/>
      <use x="601.179688" xlink:href="#DejaVuSans-65"/>
      <use x="667.837891" xlink:href="#DejaVuSans-71"/>
      <use x="745.328125" xlink:href="#DejaVuSans-69"/>
      <use x="808.511719" xlink:href="#DejaVuSans-95"/>
      <use x="858.511719" xlink:href="#DejaVuSans-79"/>
      <use x="937.222656" xlink:href="#DejaVuSans-85"/>
      <use x="1010.416016" xlink:href="#DejaVuSans-84"/>
     </g>
    </g>
    <g id="line2d_57">
     <path d="M 59.590625 154.904687 
L 79.590625 154.904687 
" style="fill:none;stroke:#17becf;stroke-linecap:square;stroke-width:2.5;"/>
    </g>
    <g id="line2d_58"/>
    <g id="text_25">
     <!-- RECHARGE_OUT -->
     <g transform="translate(87.590625 158.404687)scale(0.1 -0.1)">
      <use xlink:href="#DejaVuSans-82"/>
      <use x="69.482422" xlink:href="#DejaVuSans-69"/>
      <use x="132.666016" xlink:href="#DejaVuSans-67"/>
      <use x="202.490234" xlink:href="#DejaVuSans-72"/>
      <use x="277.685547" xlink:href="#DejaVuSans-65"/>
      <use x="346.09375" xlink:href="#DejaVuSans-82"/>
      <use x="415.576172" xlink:href="#DejaVuSans-71"/>
      <use x="493.066406" xlink:href="#DejaVuSans-69"/>
      <use x="556.25" xlink:href="#DejaVuSans-95"/>
      <use x="606.25" xlink:href="#DejaVuSans-79"/>
      <use x="684.960938" xlink:href="#DejaVuSans-85"/>
      <use x="758.154297" xlink:href="#DejaVuSans-84"/>
     </g>
    </g>
   </g>
  </g>
 </g>
 <defs>
  <clipPath id="pd54b59110f">
   <rect height="471.4848" width="1071.36" x="50.590625" y="7.2"/>
  </clipPath>
 </defs>
</svg>
