<?xml version="1.0" encoding="utf-8" standalone="no"?>
<!DOCTYPE svg PUBLIC "-//W3C//DTD SVG 1.1//EN"
  "http://www.w3.org/Graphics/SVG/1.1/DTD/svg11.dtd">
<!-- Created with matplotlib (https://matplotlib.org/) -->
<svg height="528.81104pt" version="1.1" viewBox="0 0 1129.150625 528.81104" width="1129.150625pt" xmlns="http://www.w3.org/2000/svg" xmlns:xlink="http://www.w3.org/1999/xlink">
 <defs>
  <style type="text/css">
*{stroke-linecap:butt;stroke-linejoin:round;}
  </style>
 </defs>
 <g id="figure_1">
  <g id="patch_1">
   <path d="M -0 528.81104 
L 1129.150625 528.81104 
L 1129.150625 0 
L -0 0 
z
" style="fill:#ffffff;"/>
  </g>
  <g id="axes_1">
   <g id="patch_2">
    <path d="M 50.590625 489.283237 
L 1121.950625 489.283237 
L 1121.950625 17.798437 
L 50.590625 17.798437 
z
" style="fill:#ffffff;"/>
   </g>
   <g id="matplotlib.axis_1">
    <g id="xtick_1">
     <g id="line2d_1">
      <path clip-path="url(#p73e4df83db)" d="M 160.513745 489.283237 
L 160.513745 17.798437 
" style="fill:none;stroke:#b0b0b0;stroke-linecap:square;stroke-width:0.8;"/>
     </g>
     <g id="line2d_2">
      <defs>
       <path d="M 0 0 
L 0 3.5 
" id="m2a2346c664" style="stroke:#000000;stroke-width:0.8;"/>
      </defs>
      <g>
       <use style="stroke:#000000;stroke-width:0.8;" x="160.513745" xlink:href="#m2a2346c664" y="489.283237"/>
      </g>
     </g>
     <g id="text_1">
      <!-- 1996 -->
      <defs>
       <path d="M 12.40625 8.296875 
L 28.515625 8.296875 
L 28.515625 63.921875 
L 10.984375 60.40625 
L 10.984375 69.390625 
L 28.421875 72.90625 
L 38.28125 72.90625 
L 38.28125 8.296875 
L 54.390625 8.296875 
L 54.390625 0 
L 12.40625 0 
z
" id="DejaVuSans-49"/>
       <path d="M 10.984375 1.515625 
L 10.984375 10.5 
Q 14.703125 8.734375 18.5 7.8125 
Q 22.3125 6.890625 25.984375 6.890625 
Q 35.75 6.890625 40.890625 13.453125 
Q 46.046875 20.015625 46.78125 33.40625 
Q 43.953125 29.203125 39.59375 26.953125 
Q 35.25 24.703125 29.984375 24.703125 
Q 19.046875 24.703125 12.671875 31.3125 
Q 6.296875 37.9375 6.296875 49.421875 
Q 6.296875 60.640625 12.9375 67.421875 
Q 19.578125 74.21875 30.609375 74.21875 
Q 43.265625 74.21875 49.921875 64.515625 
Q 56.59375 54.828125 56.59375 36.375 
Q 56.59375 19.140625 48.40625 8.859375 
Q 40.234375 -1.421875 26.421875 -1.421875 
Q 22.703125 -1.421875 18.890625 -0.6875 
Q 15.09375 0.046875 10.984375 1.515625 
z
M 30.609375 32.421875 
Q 37.25 32.421875 41.125 36.953125 
Q 45.015625 41.5 45.015625 49.421875 
Q 45.015625 57.28125 41.125 61.84375 
Q 37.25 66.40625 30.609375 66.40625 
Q 23.96875 66.40625 20.09375 61.84375 
Q 16.21875 57.28125 16.21875 49.421875 
Q 16.21875 41.5 20.09375 36.953125 
Q 23.96875 32.421875 30.609375 32.421875 
z
" id="DejaVuSans-57"/>
       <path d="M 33.015625 40.375 
Q 26.375 40.375 22.484375 35.828125 
Q 18.609375 31.296875 18.609375 23.390625 
Q 18.609375 15.53125 22.484375 10.953125 
Q 26.375 6.390625 33.015625 6.390625 
Q 39.65625 6.390625 43.53125 10.953125 
Q 47.40625 15.53125 47.40625 23.390625 
Q 47.40625 31.296875 43.53125 35.828125 
Q 39.65625 40.375 33.015625 40.375 
z
M 52.59375 71.296875 
L 52.59375 62.3125 
Q 48.875 64.0625 45.09375 64.984375 
Q 41.3125 65.921875 37.59375 65.921875 
Q 27.828125 65.921875 22.671875 59.328125 
Q 17.53125 52.734375 16.796875 39.40625 
Q 19.671875 43.65625 24.015625 45.921875 
Q 28.375 48.1875 33.59375 48.1875 
Q 44.578125 48.1875 50.953125 41.515625 
Q 57.328125 34.859375 57.328125 23.390625 
Q 57.328125 12.15625 50.6875 5.359375 
Q 44.046875 -1.421875 33.015625 -1.421875 
Q 20.359375 -1.421875 13.671875 8.265625 
Q 6.984375 17.96875 6.984375 36.375 
Q 6.984375 53.65625 15.1875 63.9375 
Q 23.390625 74.21875 37.203125 74.21875 
Q 40.921875 74.21875 44.703125 73.484375 
Q 48.484375 72.75 52.59375 71.296875 
z
" id="DejaVuSans-54"/>
      </defs>
      <g transform="translate(132.817516 519.449765)rotate(-30)scale(0.12 -0.12)">
       <use xlink:href="#DejaVuSans-49"/>
       <use x="63.623047" xlink:href="#DejaVuSans-57"/>
       <use x="127.246094" xlink:href="#DejaVuSans-57"/>
       <use x="190.869141" xlink:href="#DejaVuSans-54"/>
      </g>
     </g>
    </g>
    <g id="xtick_2">
     <g id="line2d_3">
      <path clip-path="url(#p73e4df83db)" d="M 300.060756 489.283237 
L 300.060756 17.798437 
" style="fill:none;stroke:#b0b0b0;stroke-linecap:square;stroke-width:0.8;"/>
     </g>
     <g id="line2d_4">
      <g>
       <use style="stroke:#000000;stroke-width:0.8;" x="300.060756" xlink:href="#m2a2346c664" y="489.283237"/>
      </g>
     </g>
     <g id="text_2">
      <!-- 2000 -->
      <defs>
       <path d="M 19.1875 8.296875 
L 53.609375 8.296875 
L 53.609375 0 
L 7.328125 0 
L 7.328125 8.296875 
Q 12.9375 14.109375 22.625 23.890625 
Q 32.328125 33.6875 34.8125 36.53125 
Q 39.546875 41.84375 41.421875 45.53125 
Q 43.3125 49.21875 43.3125 52.78125 
Q 43.3125 58.59375 39.234375 62.25 
Q 35.15625 65.921875 28.609375 65.921875 
Q 23.96875 65.921875 18.8125 64.3125 
Q 13.671875 62.703125 7.8125 59.421875 
L 7.8125 69.390625 
Q 13.765625 71.78125 18.9375 73 
Q 24.125 74.21875 28.421875 74.21875 
Q 39.75 74.21875 46.484375 68.546875 
Q 53.21875 62.890625 53.21875 53.421875 
Q 53.21875 48.921875 51.53125 44.890625 
Q 49.859375 40.875 45.40625 35.40625 
Q 44.1875 33.984375 37.640625 27.21875 
Q 31.109375 20.453125 19.1875 8.296875 
z
" id="DejaVuSans-50"/>
       <path d="M 31.78125 66.40625 
Q 24.171875 66.40625 20.328125 58.90625 
Q 16.5 51.421875 16.5 36.375 
Q 16.5 21.390625 20.328125 13.890625 
Q 24.171875 6.390625 31.78125 6.390625 
Q 39.453125 6.390625 43.28125 13.890625 
Q 47.125 21.390625 47.125 36.375 
Q 47.125 51.421875 43.28125 58.90625 
Q 39.453125 66.40625 31.78125 66.40625 
z
M 31.78125 74.21875 
Q 44.046875 74.21875 50.515625 64.515625 
Q 56.984375 54.828125 56.984375 36.375 
Q 56.984375 17.96875 50.515625 8.265625 
Q 44.046875 -1.421875 31.78125 -1.421875 
Q 19.53125 -1.421875 13.0625 8.265625 
Q 6.59375 17.96875 6.59375 36.375 
Q 6.59375 54.828125 13.0625 64.515625 
Q 19.53125 74.21875 31.78125 74.21875 
z
" id="DejaVuSans-48"/>
      </defs>
      <g transform="translate(272.364527 519.449765)rotate(-30)scale(0.12 -0.12)">
       <use xlink:href="#DejaVuSans-50"/>
       <use x="63.623047" xlink:href="#DejaVuSans-48"/>
       <use x="127.246094" xlink:href="#DejaVuSans-48"/>
       <use x="190.869141" xlink:href="#DejaVuSans-48"/>
      </g>
     </g>
    </g>
    <g id="xtick_3">
     <g id="line2d_5">
      <path clip-path="url(#p73e4df83db)" d="M 439.607767 489.283237 
L 439.607767 17.798437 
" style="fill:none;stroke:#b0b0b0;stroke-linecap:square;stroke-width:0.8;"/>
     </g>
     <g id="line2d_6">
      <g>
       <use style="stroke:#000000;stroke-width:0.8;" x="439.607767" xlink:href="#m2a2346c664" y="489.283237"/>
      </g>
     </g>
     <g id="text_3">
      <!-- 2004 -->
      <defs>
       <path d="M 37.796875 64.3125 
L 12.890625 25.390625 
L 37.796875 25.390625 
z
M 35.203125 72.90625 
L 47.609375 72.90625 
L 47.609375 25.390625 
L 58.015625 25.390625 
L 58.015625 17.1875 
L 47.609375 17.1875 
L 47.609375 0 
L 37.796875 0 
L 37.796875 17.1875 
L 4.890625 17.1875 
L 4.890625 26.703125 
z
" id="DejaVuSans-52"/>
      </defs>
      <g transform="translate(411.911539 519.449765)rotate(-30)scale(0.12 -0.12)">
       <use xlink:href="#DejaVuSans-50"/>
       <use x="63.623047" xlink:href="#DejaVuSans-48"/>
       <use x="127.246094" xlink:href="#DejaVuSans-48"/>
       <use x="190.869141" xlink:href="#DejaVuSans-52"/>
      </g>
     </g>
    </g>
    <g id="xtick_4">
     <g id="line2d_7">
      <path clip-path="url(#p73e4df83db)" d="M 579.154778 489.283237 
L 579.154778 17.798437 
" style="fill:none;stroke:#b0b0b0;stroke-linecap:square;stroke-width:0.8;"/>
     </g>
     <g id="line2d_8">
      <g>
       <use style="stroke:#000000;stroke-width:0.8;" x="579.154778" xlink:href="#m2a2346c664" y="489.283237"/>
      </g>
     </g>
     <g id="text_4">
      <!-- 2008 -->
      <defs>
       <path d="M 31.78125 34.625 
Q 24.75 34.625 20.71875 30.859375 
Q 16.703125 27.09375 16.703125 20.515625 
Q 16.703125 13.921875 20.71875 10.15625 
Q 24.75 6.390625 31.78125 6.390625 
Q 38.8125 6.390625 42.859375 10.171875 
Q 46.921875 13.96875 46.921875 20.515625 
Q 46.921875 27.09375 42.890625 30.859375 
Q 38.875 34.625 31.78125 34.625 
z
M 21.921875 38.8125 
Q 15.578125 40.375 12.03125 44.71875 
Q 8.5 49.078125 8.5 55.328125 
Q 8.5 64.0625 14.71875 69.140625 
Q 20.953125 74.21875 31.78125 74.21875 
Q 42.671875 74.21875 48.875 69.140625 
Q 55.078125 64.0625 55.078125 55.328125 
Q 55.078125 49.078125 51.53125 44.71875 
Q 48 40.375 41.703125 38.8125 
Q 48.828125 37.15625 52.796875 32.3125 
Q 56.78125 27.484375 56.78125 20.515625 
Q 56.78125 9.90625 50.3125 4.234375 
Q 43.84375 -1.421875 31.78125 -1.421875 
Q 19.734375 -1.421875 13.25 4.234375 
Q 6.78125 9.90625 6.78125 20.515625 
Q 6.78125 27.484375 10.78125 32.3125 
Q 14.796875 37.15625 21.921875 38.8125 
z
M 18.3125 54.390625 
Q 18.3125 48.734375 21.84375 45.5625 
Q 25.390625 42.390625 31.78125 42.390625 
Q 38.140625 42.390625 41.71875 45.5625 
Q 45.3125 48.734375 45.3125 54.390625 
Q 45.3125 60.0625 41.71875 63.234375 
Q 38.140625 66.40625 31.78125 66.40625 
Q 25.390625 66.40625 21.84375 63.234375 
Q 18.3125 60.0625 18.3125 54.390625 
z
" id="DejaVuSans-56"/>
      </defs>
      <g transform="translate(551.45855 519.449765)rotate(-30)scale(0.12 -0.12)">
       <use xlink:href="#DejaVuSans-50"/>
       <use x="63.623047" xlink:href="#DejaVuSans-48"/>
       <use x="127.246094" xlink:href="#DejaVuSans-48"/>
       <use x="190.869141" xlink:href="#DejaVuSans-56"/>
      </g>
     </g>
    </g>
    <g id="xtick_5">
     <g id="line2d_9">
      <path clip-path="url(#p73e4df83db)" d="M 718.701789 489.283237 
L 718.701789 17.798437 
" style="fill:none;stroke:#b0b0b0;stroke-linecap:square;stroke-width:0.8;"/>
     </g>
     <g id="line2d_10">
      <g>
       <use style="stroke:#000000;stroke-width:0.8;" x="718.701789" xlink:href="#m2a2346c664" y="489.283237"/>
      </g>
     </g>
     <g id="text_5">
      <!-- 2012 -->
      <g transform="translate(691.005561 519.449765)rotate(-30)scale(0.12 -0.12)">
       <use xlink:href="#DejaVuSans-50"/>
       <use x="63.623047" xlink:href="#DejaVuSans-48"/>
       <use x="127.246094" xlink:href="#DejaVuSans-49"/>
       <use x="190.869141" xlink:href="#DejaVuSans-50"/>
      </g>
     </g>
    </g>
    <g id="xtick_6">
     <g id="line2d_11">
      <path clip-path="url(#p73e4df83db)" d="M 858.2488 489.283237 
L 858.2488 17.798437 
" style="fill:none;stroke:#b0b0b0;stroke-linecap:square;stroke-width:0.8;"/>
     </g>
     <g id="line2d_12">
      <g>
       <use style="stroke:#000000;stroke-width:0.8;" x="858.2488" xlink:href="#m2a2346c664" y="489.283237"/>
      </g>
     </g>
     <g id="text_6">
      <!-- 2016 -->
      <g transform="translate(830.552572 519.449765)rotate(-30)scale(0.12 -0.12)">
       <use xlink:href="#DejaVuSans-50"/>
       <use x="63.623047" xlink:href="#DejaVuSans-48"/>
       <use x="127.246094" xlink:href="#DejaVuSans-49"/>
       <use x="190.869141" xlink:href="#DejaVuSans-54"/>
      </g>
     </g>
    </g>
    <g id="xtick_7">
     <g id="line2d_13">
      <path clip-path="url(#p73e4df83db)" d="M 997.795812 489.283237 
L 997.795812 17.798437 
" style="fill:none;stroke:#b0b0b0;stroke-linecap:square;stroke-width:0.8;"/>
     </g>
     <g id="line2d_14">
      <g>
       <use style="stroke:#000000;stroke-width:0.8;" x="997.795812" xlink:href="#m2a2346c664" y="489.283237"/>
      </g>
     </g>
     <g id="text_7">
      <!-- 2020 -->
      <g transform="translate(970.099583 519.449765)rotate(-30)scale(0.12 -0.12)">
       <use xlink:href="#DejaVuSans-50"/>
       <use x="63.623047" xlink:href="#DejaVuSans-48"/>
       <use x="127.246094" xlink:href="#DejaVuSans-50"/>
       <use x="190.869141" xlink:href="#DejaVuSans-48"/>
      </g>
     </g>
    </g>
   </g>
   <g id="matplotlib.axis_2">
    <g id="ytick_1">
     <g id="line2d_15">
      <path clip-path="url(#p73e4df83db)" d="M 50.590625 444.482604 
L 1121.950625 444.482604 
" style="fill:none;stroke:#b0b0b0;stroke-linecap:square;stroke-width:0.8;"/>
     </g>
     <g id="line2d_16">
      <defs>
       <path d="M 0 0 
L -3.5 0 
" id="m0d955b28f2" style="stroke:#000000;stroke-width:0.8;"/>
      </defs>
      <g>
       <use style="stroke:#000000;stroke-width:0.8;" x="50.590625" xlink:href="#m0d955b28f2" y="444.482604"/>
      </g>
     </g>
     <g id="text_8">
      <!-- −6 -->
      <defs>
       <path d="M 10.59375 35.5 
L 73.1875 35.5 
L 73.1875 27.203125 
L 10.59375 27.203125 
z
" id="DejaVuSans-8722"/>
      </defs>
      <g transform="translate(25.9 449.041667)scale(0.12 -0.12)">
       <use xlink:href="#DejaVuSans-8722"/>
       <use x="83.789062" xlink:href="#DejaVuSans-54"/>
      </g>
     </g>
    </g>
    <g id="ytick_2">
     <g id="line2d_17">
      <path clip-path="url(#p73e4df83db)" d="M 50.590625 388.401362 
L 1121.950625 388.401362 
" style="fill:none;stroke:#b0b0b0;stroke-linecap:square;stroke-width:0.8;"/>
     </g>
     <g id="line2d_18">
      <g>
       <use style="stroke:#000000;stroke-width:0.8;" x="50.590625" xlink:href="#m0d955b28f2" y="388.401362"/>
      </g>
     </g>
     <g id="text_9">
      <!-- −4 -->
      <g transform="translate(25.9 392.960425)scale(0.12 -0.12)">
       <use xlink:href="#DejaVuSans-8722"/>
       <use x="83.789062" xlink:href="#DejaVuSans-52"/>
      </g>
     </g>
    </g>
    <g id="ytick_3">
     <g id="line2d_19">
      <path clip-path="url(#p73e4df83db)" d="M 50.590625 332.32012 
L 1121.950625 332.32012 
" style="fill:none;stroke:#b0b0b0;stroke-linecap:square;stroke-width:0.8;"/>
     </g>
     <g id="line2d_20">
      <g>
       <use style="stroke:#000000;stroke-width:0.8;" x="50.590625" xlink:href="#m0d955b28f2" y="332.32012"/>
      </g>
     </g>
     <g id="text_10">
      <!-- −2 -->
      <g transform="translate(25.9 336.879183)scale(0.12 -0.12)">
       <use xlink:href="#DejaVuSans-8722"/>
       <use x="83.789062" xlink:href="#DejaVuSans-50"/>
      </g>
     </g>
    </g>
    <g id="ytick_4">
     <g id="line2d_21">
      <path clip-path="url(#p73e4df83db)" d="M 50.590625 276.238878 
L 1121.950625 276.238878 
" style="fill:none;stroke:#b0b0b0;stroke-linecap:square;stroke-width:0.8;"/>
     </g>
     <g id="line2d_22">
      <g>
       <use style="stroke:#000000;stroke-width:0.8;" x="50.590625" xlink:href="#m0d955b28f2" y="276.238878"/>
      </g>
     </g>
     <g id="text_11">
      <!-- 0 -->
      <g transform="translate(35.955625 280.797941)scale(0.12 -0.12)">
       <use xlink:href="#DejaVuSans-48"/>
      </g>
     </g>
    </g>
    <g id="ytick_5">
     <g id="line2d_23">
      <path clip-path="url(#p73e4df83db)" d="M 50.590625 220.157636 
L 1121.950625 220.157636 
" style="fill:none;stroke:#b0b0b0;stroke-linecap:square;stroke-width:0.8;"/>
     </g>
     <g id="line2d_24">
      <g>
       <use style="stroke:#000000;stroke-width:0.8;" x="50.590625" xlink:href="#m0d955b28f2" y="220.157636"/>
      </g>
     </g>
     <g id="text_12">
      <!-- 2 -->
      <g transform="translate(35.955625 224.716699)scale(0.12 -0.12)">
       <use xlink:href="#DejaVuSans-50"/>
      </g>
     </g>
    </g>
    <g id="ytick_6">
     <g id="line2d_25">
      <path clip-path="url(#p73e4df83db)" d="M 50.590625 164.076394 
L 1121.950625 164.076394 
" style="fill:none;stroke:#b0b0b0;stroke-linecap:square;stroke-width:0.8;"/>
     </g>
     <g id="line2d_26">
      <g>
       <use style="stroke:#000000;stroke-width:0.8;" x="50.590625" xlink:href="#m0d955b28f2" y="164.076394"/>
      </g>
     </g>
     <g id="text_13">
      <!-- 4 -->
      <g transform="translate(35.955625 168.635457)scale(0.12 -0.12)">
       <use xlink:href="#DejaVuSans-52"/>
      </g>
     </g>
    </g>
    <g id="ytick_7">
     <g id="line2d_27">
      <path clip-path="url(#p73e4df83db)" d="M 50.590625 107.995152 
L 1121.950625 107.995152 
" style="fill:none;stroke:#b0b0b0;stroke-linecap:square;stroke-width:0.8;"/>
     </g>
     <g id="line2d_28">
      <g>
       <use style="stroke:#000000;stroke-width:0.8;" x="50.590625" xlink:href="#m0d955b28f2" y="107.995152"/>
      </g>
     </g>
     <g id="text_14">
      <!-- 6 -->
      <g transform="translate(35.955625 112.554215)scale(0.12 -0.12)">
       <use xlink:href="#DejaVuSans-54"/>
      </g>
     </g>
    </g>
    <g id="ytick_8">
     <g id="line2d_29">
      <path clip-path="url(#p73e4df83db)" d="M 50.590625 51.91391 
L 1121.950625 51.91391 
" style="fill:none;stroke:#b0b0b0;stroke-linecap:square;stroke-width:0.8;"/>
     </g>
     <g id="line2d_30">
      <g>
       <use style="stroke:#000000;stroke-width:0.8;" x="50.590625" xlink:href="#m0d955b28f2" y="51.91391"/>
      </g>
     </g>
     <g id="text_15">
      <!-- 8 -->
      <g transform="translate(35.955625 56.472973)scale(0.12 -0.12)">
       <use xlink:href="#DejaVuSans-56"/>
      </g>
     </g>
    </g>
    <g id="text_16">
     <!-- Balance ($m^3/s$) -->
     <defs>
      <path d="M 19.671875 34.8125 
L 19.671875 8.109375 
L 35.5 8.109375 
Q 43.453125 8.109375 47.28125 11.40625 
Q 51.125 14.703125 51.125 21.484375 
Q 51.125 28.328125 47.28125 31.5625 
Q 43.453125 34.8125 35.5 34.8125 
z
M 19.671875 64.796875 
L 19.671875 42.828125 
L 34.28125 42.828125 
Q 41.5 42.828125 45.03125 45.53125 
Q 48.578125 48.25 48.578125 53.8125 
Q 48.578125 59.328125 45.03125 62.0625 
Q 41.5 64.796875 34.28125 64.796875 
z
M 9.8125 72.90625 
L 35.015625 72.90625 
Q 46.296875 72.90625 52.390625 68.21875 
Q 58.5 63.53125 58.5 54.890625 
Q 58.5 48.1875 55.375 44.234375 
Q 52.25 40.28125 46.1875 39.3125 
Q 53.46875 37.75 57.5 32.78125 
Q 61.53125 27.828125 61.53125 20.40625 
Q 61.53125 10.640625 54.890625 5.3125 
Q 48.25 0 35.984375 0 
L 9.8125 0 
z
" id="DejaVuSans-66"/>
      <path d="M 34.28125 27.484375 
Q 23.390625 27.484375 19.1875 25 
Q 14.984375 22.515625 14.984375 16.5 
Q 14.984375 11.71875 18.140625 8.90625 
Q 21.296875 6.109375 26.703125 6.109375 
Q 34.1875 6.109375 38.703125 11.40625 
Q 43.21875 16.703125 43.21875 25.484375 
L 43.21875 27.484375 
z
M 52.203125 31.203125 
L 52.203125 0 
L 43.21875 0 
L 43.21875 8.296875 
Q 40.140625 3.328125 35.546875 0.953125 
Q 30.953125 -1.421875 24.3125 -1.421875 
Q 15.921875 -1.421875 10.953125 3.296875 
Q 6 8.015625 6 15.921875 
Q 6 25.140625 12.171875 29.828125 
Q 18.359375 34.515625 30.609375 34.515625 
L 43.21875 34.515625 
L 43.21875 35.40625 
Q 43.21875 41.609375 39.140625 45 
Q 35.0625 48.390625 27.6875 48.390625 
Q 23 48.390625 18.546875 47.265625 
Q 14.109375 46.140625 10.015625 43.890625 
L 10.015625 52.203125 
Q 14.9375 54.109375 19.578125 55.046875 
Q 24.21875 56 28.609375 56 
Q 40.484375 56 46.34375 49.84375 
Q 52.203125 43.703125 52.203125 31.203125 
z
" id="DejaVuSans-97"/>
      <path d="M 9.421875 75.984375 
L 18.40625 75.984375 
L 18.40625 0 
L 9.421875 0 
z
" id="DejaVuSans-108"/>
      <path d="M 54.890625 33.015625 
L 54.890625 0 
L 45.90625 0 
L 45.90625 32.71875 
Q 45.90625 40.484375 42.875 44.328125 
Q 39.84375 48.1875 33.796875 48.1875 
Q 26.515625 48.1875 22.3125 43.546875 
Q 18.109375 38.921875 18.109375 30.90625 
L 18.109375 0 
L 9.078125 0 
L 9.078125 54.6875 
L 18.109375 54.6875 
L 18.109375 46.1875 
Q 21.34375 51.125 25.703125 53.5625 
Q 30.078125 56 35.796875 56 
Q 45.21875 56 50.046875 50.171875 
Q 54.890625 44.34375 54.890625 33.015625 
z
" id="DejaVuSans-110"/>
      <path d="M 48.78125 52.59375 
L 48.78125 44.1875 
Q 44.96875 46.296875 41.140625 47.34375 
Q 37.3125 48.390625 33.40625 48.390625 
Q 24.65625 48.390625 19.8125 42.84375 
Q 14.984375 37.3125 14.984375 27.296875 
Q 14.984375 17.28125 19.8125 11.734375 
Q 24.65625 6.203125 33.40625 6.203125 
Q 37.3125 6.203125 41.140625 7.25 
Q 44.96875 8.296875 48.78125 10.40625 
L 48.78125 2.09375 
Q 45.015625 0.34375 40.984375 -0.53125 
Q 36.96875 -1.421875 32.421875 -1.421875 
Q 20.0625 -1.421875 12.78125 6.34375 
Q 5.515625 14.109375 5.515625 27.296875 
Q 5.515625 40.671875 12.859375 48.328125 
Q 20.21875 56 33.015625 56 
Q 37.15625 56 41.109375 55.140625 
Q 45.0625 54.296875 48.78125 52.59375 
z
" id="DejaVuSans-99"/>
      <path d="M 56.203125 29.59375 
L 56.203125 25.203125 
L 14.890625 25.203125 
Q 15.484375 15.921875 20.484375 11.0625 
Q 25.484375 6.203125 34.421875 6.203125 
Q 39.59375 6.203125 44.453125 7.46875 
Q 49.3125 8.734375 54.109375 11.28125 
L 54.109375 2.78125 
Q 49.265625 0.734375 44.1875 -0.34375 
Q 39.109375 -1.421875 33.890625 -1.421875 
Q 20.796875 -1.421875 13.15625 6.1875 
Q 5.515625 13.8125 5.515625 26.8125 
Q 5.515625 40.234375 12.765625 48.109375 
Q 20.015625 56 32.328125 56 
Q 43.359375 56 49.78125 48.890625 
Q 56.203125 41.796875 56.203125 29.59375 
z
M 47.21875 32.234375 
Q 47.125 39.59375 43.09375 43.984375 
Q 39.0625 48.390625 32.421875 48.390625 
Q 24.90625 48.390625 20.390625 44.140625 
Q 15.875 39.890625 15.1875 32.171875 
z
" id="DejaVuSans-101"/>
      <path id="DejaVuSans-32"/>
      <path d="M 31 75.875 
Q 24.46875 64.65625 21.28125 53.65625 
Q 18.109375 42.671875 18.109375 31.390625 
Q 18.109375 20.125 21.3125 9.0625 
Q 24.515625 -2 31 -13.1875 
L 23.1875 -13.1875 
Q 15.875 -1.703125 12.234375 9.375 
Q 8.59375 20.453125 8.59375 31.390625 
Q 8.59375 42.28125 12.203125 53.3125 
Q 15.828125 64.359375 23.1875 75.875 
z
" id="DejaVuSans-40"/>
      <path d="M 89.796875 33.015625 
L 83.40625 0 
L 74.421875 0 
L 80.71875 32.71875 
Q 81.109375 34.8125 81.296875 36.328125 
Q 81.5 37.84375 81.5 38.921875 
Q 81.5 43.3125 79.046875 45.75 
Q 76.609375 48.1875 72.21875 48.1875 
Q 65.671875 48.1875 60.546875 43.28125 
Q 55.421875 38.375 53.90625 30.515625 
L 47.90625 0 
L 38.921875 0 
L 45.3125 32.71875 
Q 45.703125 34.515625 45.890625 36.046875 
Q 46.09375 37.59375 46.09375 38.8125 
Q 46.09375 43.265625 43.65625 45.71875 
Q 41.21875 48.1875 36.921875 48.1875 
Q 30.28125 48.1875 25.140625 43.28125 
Q 20.015625 38.375 18.5 30.515625 
L 12.5 0 
L 3.515625 0 
L 14.203125 54.6875 
L 23.1875 54.6875 
L 21.484375 46.1875 
Q 25.140625 50.984375 30.046875 53.484375 
Q 34.96875 56 40.578125 56 
Q 46.53125 56 50.359375 52.875 
Q 54.203125 49.75 54.984375 44.1875 
Q 59.078125 49.953125 64.46875 52.96875 
Q 69.875 56 75.875 56 
Q 82.90625 56 86.734375 51.953125 
Q 90.578125 47.90625 90.578125 40.484375 
Q 90.578125 38.875 90.375 36.9375 
Q 90.1875 35.015625 89.796875 33.015625 
z
" id="DejaVuSans-Oblique-109"/>
      <path d="M 40.578125 39.3125 
Q 47.65625 37.796875 51.625 33 
Q 55.609375 28.21875 55.609375 21.1875 
Q 55.609375 10.40625 48.1875 4.484375 
Q 40.765625 -1.421875 27.09375 -1.421875 
Q 22.515625 -1.421875 17.65625 -0.515625 
Q 12.796875 0.390625 7.625 2.203125 
L 7.625 11.71875 
Q 11.71875 9.328125 16.59375 8.109375 
Q 21.484375 6.890625 26.8125 6.890625 
Q 36.078125 6.890625 40.9375 10.546875 
Q 45.796875 14.203125 45.796875 21.1875 
Q 45.796875 27.640625 41.28125 31.265625 
Q 36.765625 34.90625 28.71875 34.90625 
L 20.21875 34.90625 
L 20.21875 43.015625 
L 29.109375 43.015625 
Q 36.375 43.015625 40.234375 45.921875 
Q 44.09375 48.828125 44.09375 54.296875 
Q 44.09375 59.90625 40.109375 62.90625 
Q 36.140625 65.921875 28.71875 65.921875 
Q 24.65625 65.921875 20.015625 65.03125 
Q 15.375 64.15625 9.8125 62.3125 
L 9.8125 71.09375 
Q 15.4375 72.65625 20.34375 73.4375 
Q 25.25 74.21875 29.59375 74.21875 
Q 40.828125 74.21875 47.359375 69.109375 
Q 53.90625 64.015625 53.90625 55.328125 
Q 53.90625 49.265625 50.4375 45.09375 
Q 46.96875 40.921875 40.578125 39.3125 
z
" id="DejaVuSans-51"/>
      <path d="M 25.390625 72.90625 
L 33.6875 72.90625 
L 8.296875 -9.28125 
L 0 -9.28125 
z
" id="DejaVuSans-47"/>
      <path d="M 50 53.078125 
L 48.296875 44.578125 
Q 44.734375 46.53125 40.765625 47.5 
Q 36.8125 48.484375 32.625 48.484375 
Q 25.53125 48.484375 21.453125 46.0625 
Q 17.390625 43.65625 17.390625 39.5 
Q 17.390625 34.671875 26.859375 32.078125 
Q 27.59375 31.890625 27.9375 31.78125 
L 30.8125 30.90625 
Q 39.796875 28.421875 42.796875 25.6875 
Q 45.796875 22.953125 45.796875 18.21875 
Q 45.796875 9.515625 38.890625 4.046875 
Q 31.984375 -1.421875 20.796875 -1.421875 
Q 16.453125 -1.421875 11.671875 -0.578125 
Q 6.890625 0.25 1.125 2 
L 2.875 11.28125 
Q 7.8125 8.734375 12.59375 7.421875 
Q 17.390625 6.109375 21.78125 6.109375 
Q 28.375 6.109375 32.5 8.9375 
Q 36.625 11.765625 36.625 16.109375 
Q 36.625 20.796875 25.78125 23.6875 
L 24.859375 23.921875 
L 21.78125 24.703125 
Q 14.9375 26.515625 11.765625 29.46875 
Q 8.59375 32.421875 8.59375 37.015625 
Q 8.59375 45.75 15.15625 50.875 
Q 21.734375 56 33.015625 56 
Q 37.453125 56 41.671875 55.265625 
Q 45.90625 54.546875 50 53.078125 
z
" id="DejaVuSans-Oblique-115"/>
      <path d="M 8.015625 75.875 
L 15.828125 75.875 
Q 23.140625 64.359375 26.78125 53.3125 
Q 30.421875 42.28125 30.421875 31.390625 
Q 30.421875 20.453125 26.78125 9.375 
Q 23.140625 -1.703125 15.828125 -13.1875 
L 8.015625 -13.1875 
Q 14.5 -2 17.703125 9.0625 
Q 20.90625 20.125 20.90625 31.390625 
Q 20.90625 42.671875 17.703125 53.65625 
Q 14.5 64.65625 8.015625 75.875 
z
" id="DejaVuSans-41"/>
     </defs>
     <g transform="translate(18.988438 305.620837)rotate(-90)scale(0.14 -0.14)">
      <use transform="translate(0 0.765625)" xlink:href="#DejaVuSans-66"/>
      <use transform="translate(68.603516 0.765625)" xlink:href="#DejaVuSans-97"/>
      <use transform="translate(129.882812 0.765625)" xlink:href="#DejaVuSans-108"/>
      <use transform="translate(157.666016 0.765625)" xlink:href="#DejaVuSans-97"/>
      <use transform="translate(218.945312 0.765625)" xlink:href="#DejaVuSans-110"/>
      <use transform="translate(282.324219 0.765625)" xlink:href="#DejaVuSans-99"/>
      <use transform="translate(337.304688 0.765625)" xlink:href="#DejaVuSans-101"/>
      <use transform="translate(398.828125 0.765625)" xlink:href="#DejaVuSans-32"/>
      <use transform="translate(430.615234 0.765625)" xlink:href="#DejaVuSans-40"/>
      <use transform="translate(469.628906 0.765625)" xlink:href="#DejaVuSans-Oblique-109"/>
      <use transform="translate(571.690911 39.046875)scale(0.7)" xlink:href="#DejaVuSans-51"/>
      <use transform="translate(618.961419 0.765625)" xlink:href="#DejaVuSans-47"/>
      <use transform="translate(652.652826 0.765625)" xlink:href="#DejaVuSans-Oblique-115"/>
      <use transform="translate(704.752435 0.765625)" xlink:href="#DejaVuSans-41"/>
     </g>
    </g>
    <g id="text_17">
     <!-- 1e−5 -->
     <defs>
      <path d="M 10.796875 72.90625 
L 49.515625 72.90625 
L 49.515625 64.59375 
L 19.828125 64.59375 
L 19.828125 46.734375 
Q 21.96875 47.46875 24.109375 47.828125 
Q 26.265625 48.1875 28.421875 48.1875 
Q 40.625 48.1875 47.75 41.5 
Q 54.890625 34.8125 54.890625 23.390625 
Q 54.890625 11.625 47.5625 5.09375 
Q 40.234375 -1.421875 26.90625 -1.421875 
Q 22.3125 -1.421875 17.546875 -0.640625 
Q 12.796875 0.140625 7.71875 1.703125 
L 7.71875 11.625 
Q 12.109375 9.234375 16.796875 8.0625 
Q 21.484375 6.890625 26.703125 6.890625 
Q 35.15625 6.890625 40.078125 11.328125 
Q 45.015625 15.765625 45.015625 23.390625 
Q 45.015625 31 40.078125 35.4375 
Q 35.15625 39.890625 26.703125 39.890625 
Q 22.75 39.890625 18.8125 39.015625 
Q 14.890625 38.140625 10.796875 36.28125 
z
" id="DejaVuSans-53"/>
     </defs>
     <g transform="translate(50.590625 14.798437)scale(0.1 -0.1)">
      <use xlink:href="#DejaVuSans-49"/>
      <use x="63.623047" xlink:href="#DejaVuSans-101"/>
      <use x="125.146484" xlink:href="#DejaVuSans-8722"/>
      <use x="208.935547" xlink:href="#DejaVuSans-53"/>
     </g>
    </g>
   </g>
   <g id="line2d_31">
    <path clip-path="url(#p73e4df83db)" d="M 99.288807 256.341257 
L 102.249763 256.349457 
L 105.115205 262.37762 
L 108.076161 265.798122 
L 111.037118 268.412533 
L 113.90256 270.51011 
L 116.863516 271.629848 
L 119.728958 272.326844 
L 122.689914 272.782674 
L 128.325283 273.066764 
L 131.286239 269.5387 
L 134.151681 264.934844 
L 137.112637 257.420479 
L 139.978079 265.765009 
L 142.939035 271.91818 
L 145.899992 273.414611 
L 148.765434 274.024512 
L 157.552788 274.461163 
L 163.283672 274.375623 
L 166.244628 269.426518 
L 169.11007 262.53503 
L 172.071026 253.456617 
L 177.897424 272.197264 
L 180.858381 274.969936 
L 183.723822 274.304674 
L 189.550221 274.666521 
L 192.511177 274.720575 
L 198.146546 274.638392 
L 201.107502 268.402369 
L 206.9339 250.035512 
L 209.799342 273.805059 
L 212.760298 266.190351 
L 215.721255 276.217728 
L 218.586697 263.246549 
L 221.547653 268.239669 
L 224.413095 266.84084 
L 227.374051 268.097069 
L 230.335008 268.896623 
L 233.00942 269.074016 
L 235.970376 261.899751 
L 238.835818 250.851398 
L 241.796774 241.191239 
L 244.662216 257.148383 
L 247.623173 264.94012 
L 250.584129 269.422466 
L 253.449571 270.906892 
L 259.275969 271.850907 
L 262.236925 272.019887 
L 265.197882 271.549254 
L 267.872294 271.532925 
L 270.83325 263.916981 
L 273.698692 252.160888 
L 276.659649 242.490393 
L 279.52509 255.652128 
L 282.486047 265.882111 
L 285.447003 273.095587 
L 288.312445 274.769763 
L 291.273401 274.826197 
L 294.138843 273.001565 
L 297.099799 273.163931 
L 300.060756 272.941984 
L 302.830683 272.873703 
L 305.791639 263.339064 
L 308.657081 251.608069 
L 311.618037 250.660634 
L 314.483479 264.589012 
L 317.444435 269.188257 
L 320.405392 269.485821 
L 323.270834 271.706493 
L 326.23179 271.545411 
L 329.097232 272.094202 
L 332.058188 272.407302 
L 337.693557 272.115171 
L 340.654513 263.32405 
L 343.519955 249.775063 
L 346.480911 239.722473 
L 349.346353 249.817838 
L 355.268266 275.550329 
L 358.133708 272.556587 
L 361.094664 272.990712 
L 366.921062 273.430309 
L 369.882019 273.129007 
L 372.556431 273.099858 
L 375.517387 262.026626 
L 378.382829 254.445389 
L 381.343786 251.949828 
L 384.209227 256.651206 
L 387.170184 270.815512 
L 390.13114 276.13801 
L 392.996582 267.124547 
L 395.957538 268.680182 
L 398.82298 269.614661 
L 401.783936 270.324474 
L 404.744893 270.691768 
L 407.419305 270.632064 
L 413.245703 245.401167 
L 416.20666 238.211643 
L 419.072101 246.156599 
L 422.033058 259.744531 
L 424.994014 270.185385 
L 427.859456 271.770337 
L 430.820412 272.257284 
L 433.685854 272.586131 
L 436.646811 272.733259 
L 439.607767 272.406976 
L 442.377694 272.266659 
L 445.33865 259.917148 
L 448.204092 247.334258 
L 451.165048 237.448213 
L 454.03049 247.356159 
L 456.991447 267.398361 
L 459.952403 269.264565 
L 462.817845 271.247429 
L 465.778801 272.026267 
L 468.644243 272.415217 
L 471.605199 272.58742 
L 474.566156 272.39317 
L 477.240568 272.393119 
L 483.066966 247.256168 
L 486.027923 236.691046 
L 488.893364 246.592489 
L 491.854321 264.10888 
L 494.815277 275.621988 
L 497.680719 272.947547 
L 500.641675 272.766206 
L 503.507117 272.98826 
L 506.468073 272.095915 
L 509.42903 272.077251 
L 512.103442 272.64815 
L 517.92984 246.248855 
L 520.890797 235.926651 
L 523.756238 246.161242 
L 526.717195 262.305708 
L 529.678151 271.593334 
L 532.543593 273.168488 
L 535.504549 273.454113 
L 541.330948 273.653399 
L 544.291904 273.402902 
L 546.966316 273.354804 
L 552.792714 246.376997 
L 555.753671 235.979685 
L 558.619113 247.050381 
L 564.541025 272.126637 
L 567.406467 273.625673 
L 570.367424 273.870351 
L 576.193822 274.009706 
L 579.154778 273.765419 
L 581.924705 273.727718 
L 587.751103 246.386329 
L 590.71206 238.312018 
L 593.577501 249.52519 
L 596.538458 263.964595 
L 599.499414 270.963405 
L 602.364856 275.157516 
L 605.325812 273.19008 
L 608.191254 273.475406 
L 611.15221 273.651626 
L 614.113167 273.464874 
L 616.787579 273.449031 
L 622.613977 245.935081 
L 625.574934 235.861776 
L 628.440375 245.639328 
L 631.401332 261.755012 
L 634.362288 272.079831 
L 637.22773 273.717276 
L 640.188686 273.995691 
L 646.015085 274.134911 
L 648.976041 273.890906 
L 651.650453 273.826177 
L 654.61141 259.257577 
L 657.476851 246.951914 
L 660.437808 243.013983 
L 663.30325 242.746009 
L 666.264206 259.960035 
L 669.225162 274.729169 
L 672.090604 275.482817 
L 675.051561 272.310898 
L 677.917002 272.746873 
L 680.877959 273.036959 
L 683.838915 272.891223 
L 686.513327 272.905522 
L 689.474284 258.242569 
L 692.339726 244.906333 
L 695.300682 234.428328 
L 698.166124 250.924217 
L 701.12708 264.481087 
L 704.088037 268.46452 
L 709.914435 273.730408 
L 712.779876 272.334255 
L 715.740833 272.632416 
L 718.701789 272.460333 
L 721.471716 272.473399 
L 724.432673 257.615741 
L 727.298114 247.201118 
L 730.259071 233.668666 
L 733.124513 243.304691 
L 736.085469 256.891907 
L 739.046425 271.759118 
L 741.911867 272.955495 
L 744.872824 273.494381 
L 750.699222 273.749195 
L 753.660178 273.48997 
L 756.33459 273.404232 
L 759.295547 258.042834 
L 762.160988 244.506228 
L 765.121945 239.886808 
L 767.987387 243.226296 
L 770.948343 261.054314 
L 773.909299 270.956245 
L 776.774741 273.060496 
L 779.735698 273.539833 
L 785.562096 273.807346 
L 788.523052 273.563546 
L 791.197464 273.48165 
L 794.158421 257.936209 
L 797.023863 244.332705 
L 799.984819 237.013325 
L 802.850261 249.109972 
L 805.811217 257.119152 
L 808.772174 271.113909 
L 811.637615 276.106094 
L 814.598572 273.420022 
L 820.42497 273.749296 
L 823.385926 273.523322 
L 826.060339 273.455315 
L 829.021295 263.079166 
L 831.886737 242.286634 
L 834.847693 232.233214 
L 837.713135 242.601025 
L 840.674091 263.067444 
L 843.635048 275.738295 
L 846.500489 268.037443 
L 849.461446 274.502875 
L 852.326888 270.370393 
L 855.287844 270.995864 
L 858.2488 270.972814 
L 861.018727 271.138434 
L 863.979684 263.185277 
L 866.845126 240.540258 
L 869.806082 230.323946 
L 872.671524 240.647732 
L 875.642041 263.032559 
L 878.602997 275.822236 
L 881.468392 267.046631 
L 884.429349 273.855621 
L 887.294791 269.393028 
L 890.255747 270.001806 
L 893.216703 269.862677 
L 895.891116 269.950112 
L 898.852072 263.150046 
L 901.717514 239.487957 
L 904.67847 229.217364 
L 907.543912 239.500808 
L 910.504868 262.867704 
L 913.465825 275.836214 
L 916.331266 266.573967 
L 919.292223 273.538092 
L 922.157665 268.942314 
L 925.118621 269.497424 
L 928.079577 269.277634 
L 930.75399 269.312821 
L 933.714946 263.069985 
L 936.580388 238.755103 
L 939.541344 228.437404 
L 942.406786 238.694453 
L 945.367742 262.733365 
L 948.328699 275.840971 
L 951.194141 266.218365 
L 954.155097 273.406402 
L 957.020539 268.593195 
L 959.981495 269.121364 
L 962.942452 268.837208 
L 965.616864 268.848227 
L 968.57782 262.973975 
L 971.443262 264.820078 
L 974.404218 272.81603 
L 977.26966 262.167763 
L 980.230617 268.681175 
L 983.191573 258.552158 
L 986.057015 256.188422 
L 989.017971 262.607639 
L 991.883413 259.676021 
L 994.844369 257.948462 
L 997.805326 269.201245 
L 1000.575253 241.932195 
L 1003.536209 242.924759 
L 1006.401651 258.9864 
L 1009.362607 255.071989 
L 1012.228049 237.538781 
L 1015.189005 273.262052 
L 1018.149962 271.842128 
L 1021.015404 265.167736 
L 1023.97636 275.913373 
L 1026.841802 231.621915 
L 1029.802758 272.524023 
L 1032.763715 252.748172 
L 1035.438127 259.428859 
L 1038.399083 250.456972 
L 1041.264525 273.621787 
L 1044.225481 243.772556 
L 1047.090923 274.912068 
L 1050.05188 271.427031 
L 1053.003322 232.388141 
L 1055.868763 274.544861 
L 1058.82972 271.166067 
L 1061.695162 275.735462 
L 1064.656118 273.885521 
L 1067.617074 268.862445 
L 1070.291487 275.433666 
L 1073.252443 253.858152 
L 1073.252443 253.858152 
" style="fill:none;stroke:#1f77b4;stroke-linecap:square;stroke-width:1.5;"/>
   </g>
   <g id="line2d_32">
    <path clip-path="url(#p73e4df83db)" d="M 99.288807 276.238878 
L 1073.252443 276.238878 
L 1073.252443 276.238878 
" style="fill:none;stroke:#ff7f0e;stroke-linecap:square;stroke-width:1.5;"/>
   </g>
   <g id="line2d_33">
    <path clip-path="url(#p73e4df83db)" d="M 99.288807 276.238878 
L 1073.252443 276.238878 
L 1073.252443 276.238878 
" style="fill:none;stroke:#2ca02c;stroke-linecap:square;stroke-width:1.5;"/>
   </g>
   <g id="line2d_34">
    <path clip-path="url(#p73e4df83db)" d="M 99.288807 267.218218 
L 102.249763 266.258721 
L 105.115205 265.927803 
L 108.076161 265.775542 
L 111.037118 265.939925 
L 113.90256 266.366544 
L 116.863516 266.660807 
L 119.728958 267.178596 
L 122.689914 267.366385 
L 125.650871 267.008325 
L 128.325283 267.183226 
L 134.151681 266.444822 
L 137.112637 266.134214 
L 139.978079 266.036958 
L 142.939035 266.066644 
L 145.899992 266.587243 
L 157.552788 267.740038 
L 160.513745 267.618405 
L 163.283672 267.822086 
L 172.071026 266.738685 
L 177.897424 266.769268 
L 180.858381 266.969924 
L 186.684779 267.655214 
L 192.511177 268.201401 
L 198.146546 268.155442 
L 206.9339 267.427671 
L 209.799342 267.901628 
L 212.760298 267.378829 
L 215.721255 268.218482 
L 218.586697 267.933326 
L 221.547653 266.307387 
L 224.413095 267.218966 
L 227.374051 264.222496 
L 230.335008 264.973984 
L 233.00942 266.306736 
L 235.970376 267.264678 
L 238.835818 267.695797 
L 241.796774 267.882947 
L 250.584129 267.917656 
L 253.449571 268.352244 
L 256.410527 268.613635 
L 262.236925 268.915765 
L 267.872294 268.758982 
L 270.83325 268.468457 
L 282.486047 267.927462 
L 294.138843 268.952338 
L 300.060756 268.908265 
L 302.830683 268.901363 
L 311.618037 268.257451 
L 314.483479 268.363516 
L 320.405392 267.885302 
L 323.270834 268.510693 
L 326.23179 268.973558 
L 332.058188 269.124326 
L 337.693557 269.041237 
L 349.346353 268.357414 
L 352.30731 268.378947 
L 366.921062 269.09955 
L 375.517387 268.834086 
L 378.382829 268.657578 
L 381.343786 268.689267 
L 384.209227 268.450611 
L 390.13114 268.41117 
L 392.996582 268.523894 
L 395.957538 268.498001 
L 398.82298 268.285989 
L 401.783936 267.275524 
L 404.744893 267.436041 
L 407.419305 266.641106 
L 410.380262 267.644532 
L 419.072101 267.064862 
L 422.033058 267.108237 
L 424.994014 267.324163 
L 427.859456 267.658249 
L 430.820412 267.887805 
L 433.685854 267.959883 
L 442.377694 267.725423 
L 445.33865 267.520833 
L 448.204092 267.080952 
L 451.165048 266.852181 
L 454.03049 266.766702 
L 468.644243 267.617312 
L 474.566156 267.589943 
L 477.240568 267.565949 
L 488.893364 266.80449 
L 491.854321 266.835533 
L 497.680719 267.22767 
L 503.507117 267.567874 
L 509.42903 267.568143 
L 512.103442 267.5507 
L 523.756238 266.800483 
L 529.678151 266.939315 
L 535.504549 267.368612 
L 538.369991 267.53928 
L 544.291904 267.541762 
L 546.966316 267.524774 
L 558.619113 266.772343 
L 561.580069 266.780325 
L 564.541025 266.901042 
L 570.367424 267.342741 
L 573.232865 267.518685 
L 579.154778 267.524312 
L 581.924705 267.508956 
L 590.71206 266.863992 
L 593.577501 266.802621 
L 599.499414 266.969051 
L 605.325812 267.408276 
L 608.191254 267.583313 
L 614.113167 267.588727 
L 616.787579 267.572793 
L 628.440375 266.827834 
L 634.362288 266.965165 
L 640.188686 267.401195 
L 643.054128 267.576275 
L 648.976041 267.581642 
L 651.650453 267.565904 
L 657.476851 267.157452 
L 666.264206 266.984157 
L 669.225162 267.108411 
L 675.051561 267.532767 
L 677.917002 267.700787 
L 683.838915 267.703268 
L 686.513327 267.685673 
L 695.300682 267.040579 
L 701.12708 267.145214 
L 704.088037 267.223983 
L 709.914435 267.624945 
L 712.779876 267.784298 
L 718.701789 267.784545 
L 721.471716 267.766143 
L 733.124513 267.047818 
L 739.046425 267.160246 
L 744.872824 267.569264 
L 747.738265 267.735156 
L 753.660178 267.733846 
L 756.33459 267.715488 
L 765.121945 267.145329 
L 767.987387 267.049771 
L 773.909299 267.17247 
L 779.735698 267.580226 
L 782.601139 267.748478 
L 788.523052 267.746492 
L 791.197464 267.728243 
L 799.984819 267.09893 
L 805.811217 267.062274 
L 808.772174 267.16981 
L 814.598572 267.595722 
L 817.464013 267.764398 
L 823.385926 267.76293 
L 829.021295 267.635009 
L 834.847693 267.199423 
L 837.713135 267.112429 
L 840.674091 267.198401 
L 849.461446 267.789655 
L 855.287844 267.981576 
L 863.979684 267.809322 
L 869.806082 267.37359 
L 872.671524 267.295368 
L 875.642041 267.368117 
L 884.429349 267.92326 
L 890.255747 268.104348 
L 898.852072 267.928137 
L 904.67847 267.493456 
L 907.543912 267.414344 
L 910.504868 267.484323 
L 922.157665 268.151093 
L 928.079577 268.14982 
L 933.714946 268.017075 
L 939.541344 267.583458 
L 942.406786 267.502702 
L 945.367742 267.572303 
L 957.020539 268.225471 
L 962.942452 268.225686 
L 1000.575253 267.839459 
L 1003.536209 267.745752 
L 1009.362607 267.728973 
L 1012.228049 267.58003 
L 1015.189005 267.796516 
L 1023.97636 267.997262 
L 1026.841802 267.701087 
L 1029.802758 267.874888 
L 1035.438127 267.741121 
L 1038.399083 267.65942 
L 1041.264525 267.819679 
L 1044.225481 267.635089 
L 1047.090923 267.839953 
L 1050.05188 267.84948 
L 1053.003322 267.61102 
L 1055.868763 267.824491 
L 1058.82972 267.834994 
L 1061.695162 267.975402 
L 1070.291487 268.066045 
L 1073.252443 267.928709 
L 1073.252443 267.928709 
" style="fill:none;stroke:#d62728;stroke-linecap:square;stroke-width:1.5;"/>
   </g>
   <g id="line2d_35">
    <path clip-path="url(#p73e4df83db)" d="M 99.288807 242.348537 
L 102.249763 255.680769 
L 105.115205 241.951288 
L 108.076161 231.945259 
L 111.037118 214.5829 
L 113.90256 185.923631 
L 116.863516 175.287477 
L 119.728958 165.470859 
L 122.689914 175.401093 
L 125.650871 193.118475 
L 128.325283 197.367671 
L 131.286239 227.106131 
L 134.151681 243.071842 
L 137.112637 255.680769 
L 139.978079 246.482365 
L 142.939035 233.077466 
L 145.899992 214.5829 
L 148.765434 185.836872 
L 154.591832 165.470859 
L 157.552788 175.401093 
L 160.513745 193.118475 
L 163.283672 197.367671 
L 166.244628 227.106131 
L 169.11007 242.872532 
L 172.071026 255.680769 
L 174.936468 246.482365 
L 177.897424 231.59322 
L 180.858381 206.579225 
L 183.723822 185.923631 
L 186.684779 174.917035 
L 189.550221 165.470859 
L 192.511177 175.401093 
L 195.472133 193.118475 
L 198.146546 197.367671 
L 201.107502 227.106131 
L 203.972944 243.071842 
L 206.9339 255.674577 
L 209.799342 110.214517 
L 212.760298 228.175948 
L 215.721255 39.229565 
L 218.586697 184.284065 
L 221.547653 169.006734 
L 224.413095 165.470859 
L 227.374051 175.138457 
L 230.335008 193.118475 
L 233.00942 197.367671 
L 235.970376 227.106131 
L 238.835818 243.01776 
L 241.796774 255.429095 
L 244.662216 232.183499 
L 247.623173 230.07356 
L 250.584129 214.5829 
L 253.449571 185.923631 
L 259.275969 165.470859 
L 262.236925 175.401093 
L 265.197882 193.118475 
L 267.872294 197.367671 
L 270.83325 225.669417 
L 273.698692 243.037926 
L 276.659649 255.630126 
L 279.52509 239.396224 
L 282.486047 231.427356 
L 285.447003 211.652916 
L 288.312445 180.02637 
L 291.273401 168.408332 
L 294.138843 165.470859 
L 297.099799 175.401093 
L 300.060756 193.118475 
L 302.830683 197.367671 
L 305.791639 227.106131 
L 308.657081 243.071842 
L 311.618037 224.131335 
L 314.483479 184.895226 
L 317.444435 213.586818 
L 320.405392 214.5829 
L 323.270834 184.523042 
L 326.23179 175.333174 
L 329.097232 165.470859 
L 332.058188 175.401093 
L 335.019145 193.118475 
L 337.693557 197.367254 
L 340.654513 224.70869 
L 343.519955 243.071842 
L 346.480911 255.680769 
L 349.346353 246.482365 
L 352.30731 233.077466 
L 355.268266 193.895594 
L 358.133708 185.874969 
L 363.960106 165.470859 
L 366.921062 175.200166 
L 369.882019 193.118475 
L 372.556431 197.367671 
L 375.517387 227.106131 
L 378.382829 226.505481 
L 381.343786 180.194389 
L 384.209227 222.909136 
L 387.170184 187.397098 
L 390.13114 165.044531 
L 392.996582 185.923631 
L 398.82298 165.470859 
L 401.783936 175.401093 
L 404.744893 193.118475 
L 407.419305 197.367671 
L 410.380262 227.106131 
L 413.245703 243.071842 
L 416.20666 250.796623 
L 419.072101 246.327696 
L 422.033058 232.526276 
L 424.994014 214.5829 
L 427.859456 185.923631 
L 433.685854 165.470859 
L 436.646811 175.401093 
L 439.607767 193.118475 
L 442.377694 197.367671 
L 445.33865 226.950954 
L 448.204092 243.067481 
L 451.165048 255.126685 
L 454.03049 246.327696 
L 456.991447 164.085888 
L 459.952403 214.046154 
L 462.817845 185.923631 
L 468.644243 165.470859 
L 471.605199 175.401093 
L 474.566156 193.118475 
L 477.240568 197.367671 
L 480.201524 227.103214 
L 483.066966 241.448129 
L 486.027923 255.202491 
L 488.893364 246.327696 
L 494.815277 194.237858 
L 503.507117 165.470859 
L 506.468073 175.401093 
L 509.42903 193.118475 
L 512.103442 197.367671 
L 515.064399 227.103214 
L 517.92984 243.071842 
L 520.890797 255.680769 
L 523.756238 246.294896 
L 526.717195 226.274239 
L 529.678151 214.5829 
L 532.543593 185.923631 
L 538.369991 165.470859 
L 541.330948 175.401093 
L 544.291904 193.118475 
L 546.966316 197.367671 
L 549.927273 227.100018 
L 552.792714 243.071842 
L 555.753671 255.680769 
L 558.619113 244.894151 
L 561.580069 232.817184 
L 564.541025 214.5829 
L 567.406467 185.923631 
L 573.232865 165.470859 
L 576.193822 175.401093 
L 579.154778 193.118475 
L 581.924705 197.367671 
L 584.885662 227.103214 
L 587.751103 243.071842 
L 590.71206 248.391806 
L 593.577501 234.663299 
L 596.538458 209.250875 
L 599.499414 214.5829 
L 602.364856 180.46601 
L 605.325812 175.334653 
L 608.191254 165.470859 
L 611.15221 175.401093 
L 614.113167 193.118475 
L 616.787579 197.367671 
L 619.748536 227.103214 
L 622.613977 243.071842 
L 625.574934 255.166448 
L 628.440375 246.327696 
L 631.401332 226.514437 
L 634.362288 214.5829 
L 637.22773 185.923631 
L 643.054128 165.470859 
L 646.015085 175.401093 
L 648.976041 193.118475 
L 651.650453 197.367671 
L 654.61141 227.103214 
L 657.476851 241.353529 
L 660.437808 184.269122 
L 663.30325 246.250381 
L 666.264206 228.124308 
L 669.225162 204.344714 
L 672.090604 178.335068 
L 675.051561 175.334653 
L 677.917002 165.470859 
L 680.877959 175.401093 
L 683.838915 193.118475 
L 686.513327 197.367671 
L 689.474284 227.103214 
L 692.339726 243.071842 
L 695.300682 255.680769 
L 698.166124 209.961097 
L 701.12708 185.184831 
L 704.088037 214.5829 
L 706.953478 185.923631 
L 709.914435 171.706785 
L 712.779876 165.470859 
L 715.740833 175.401093 
L 718.701789 193.118475 
L 721.471716 197.367671 
L 724.432673 227.103214 
L 727.298114 237.04035 
L 730.259071 255.672776 
L 733.124513 246.327696 
L 736.085469 232.817184 
L 739.046425 213.125521 
L 741.911867 185.923631 
L 747.738265 165.470859 
L 750.699222 175.401093 
L 753.660178 193.118475 
L 756.33459 197.367671 
L 759.295547 227.103214 
L 762.160988 243.071842 
L 765.121945 223.228486 
L 767.987387 246.327696 
L 770.948343 224.157659 
L 773.909299 214.5829 
L 776.774741 185.923631 
L 782.601139 165.467361 
L 785.562096 175.401093 
L 788.523052 193.118475 
L 791.197464 197.367671 
L 794.158421 227.103214 
L 797.023863 243.071842 
L 799.984819 246.750978 
L 802.850261 222.312401 
L 805.811217 232.180606 
L 808.772174 214.5829 
L 811.637615 173.951349 
L 814.598572 175.292688 
L 817.464013 165.470859 
L 820.42497 175.401093 
L 823.385926 193.118475 
L 826.060339 197.367671 
L 829.021295 173.711005 
L 831.886737 243.071842 
L 834.847693 255.680769 
L 837.713135 246.327696 
L 840.674091 195.369161 
L 843.635048 151.040016 
L 846.500489 185.923631 
L 849.461446 165.642698 
L 852.326888 165.470859 
L 855.287844 175.401093 
L 858.2488 193.118475 
L 861.018727 197.367671 
L 863.979684 173.711005 
L 866.845126 243.071842 
L 869.806082 255.680769 
L 872.671524 246.327696 
L 875.642041 195.369161 
L 878.602997 151.040016 
L 881.468392 185.923631 
L 884.429349 165.642698 
L 887.294791 165.470859 
L 890.255747 175.401093 
L 893.216703 193.118475 
L 895.891116 197.367671 
L 898.852072 173.711005 
L 901.717514 243.071842 
L 904.67847 255.680769 
L 907.543912 246.327696 
L 910.504868 195.369161 
L 913.465825 151.040016 
L 916.331266 185.923631 
L 919.292223 165.642698 
L 922.157665 165.470859 
L 925.118621 175.401093 
L 928.079577 193.118475 
L 930.75399 197.367671 
L 933.714946 173.711005 
L 936.580388 243.071842 
L 939.541344 255.680769 
L 942.406786 246.327696 
L 945.367742 195.369161 
L 948.328699 151.040016 
L 951.194141 185.923631 
L 954.155097 165.642698 
L 957.020539 165.470859 
L 959.981495 175.401093 
L 962.942452 193.118475 
L 965.616864 197.367671 
L 968.57782 173.711005 
L 971.443262 173.711005 
L 974.404218 154.564163 
L 977.26966 183.521067 
L 980.230617 170.479731 
L 983.191573 194.346104 
L 986.057015 200.908798 
L 989.017971 190.065056 
L 991.883413 197.266896 
L 994.844369 201.821637 
L 997.805326 178.305868 
L 1000.575253 228.573584 
L 1003.536209 229.378768 
L 1006.401651 204.712291 
L 1009.362607 213.175884 
L 1012.228049 239.412323 
L 1015.189005 170.657521 
L 1018.149962 177.708223 
L 1021.015404 196.007392 
L 1023.97636 153.840313 
L 1026.841802 245.111606 
L 1029.802758 178.126605 
L 1032.763715 218.532584 
L 1035.438127 209.951137 
L 1038.399083 223.82633 
L 1041.264525 176.117431 
L 1044.225481 232.795462 
L 1047.090923 169.574979 
L 1050.05188 186.862975 
L 1053.003322 247.243672 
L 1055.868763 174.061585 
L 1058.82972 189.566765 
L 1061.695162 164.173551 
L 1064.656118 179.698539 
L 1067.617074 194.503645 
L 1070.291487 171.609109 
L 1073.252443 217.976546 
L 1073.252443 217.976546 
" style="fill:none;stroke:#9467bd;stroke-linecap:square;stroke-width:1.5;"/>
   </g>
   <g id="line2d_36">
    <path clip-path="url(#p73e4df83db)" d="M 99.288807 301.283945 
L 102.249763 289.030819 
L 105.115205 296.555186 
L 108.076161 302.616384 
L 111.037118 316.182909 
L 113.90256 340.870356 
L 119.728958 356.042986 
L 122.689914 344.637225 
L 125.650871 326.81094 
L 128.325283 321.887544 
L 131.286239 296.528877 
L 134.151681 285.989229 
L 137.112637 281.793214 
L 139.978079 282.831085 
L 142.939035 289.824089 
L 145.899992 305.686066 
L 148.765434 332.404186 
L 154.591832 349.469117 
L 157.552788 338.557256 
L 160.513745 320.890787 
L 163.283672 316.203747 
L 166.244628 292.457912 
L 169.11007 284.645436 
L 172.071026 281.971712 
L 174.936468 282.043492 
L 177.897424 287.308634 
L 180.858381 308.714606 
L 183.723822 328.494894 
L 186.684779 337.855233 
L 189.550221 345.76692 
L 192.511177 334.87083 
L 195.472133 317.232231 
L 198.146546 312.799848 
L 201.107502 290.297714 
L 203.972944 284.337631 
L 206.9339 282.112305 
L 209.799342 402.043737 
L 212.760298 292.487047 
L 215.721255 467.85211 
L 218.586697 335.533975 
L 221.547653 347.992451 
L 224.413095 350.432138 
L 227.374051 347.948496 
L 230.335008 327.383423 
L 233.00942 318.722451 
L 235.970376 293.600697 
L 238.835818 287.675954 
L 241.796774 285.220762 
L 244.662216 293.003738 
L 247.623173 287.56779 
L 250.584129 298.230884 
L 253.449571 323.843816 
L 259.275969 340.897448 
L 262.236925 330.105419 
L 265.197882 313.071123 
L 267.872294 308.984945 
L 270.83325 289.555661 
L 273.698692 285.028863 
L 276.659649 283.332167 
L 279.52509 286.817845 
L 282.486047 284.630042 
L 285.447003 296.324907 
L 288.312445 324.799069 
L 291.273401 334.875878 
L 294.138843 338.277171 
L 297.099799 327.669471 
L 300.060756 310.341799 
L 302.830683 306.087682 
L 305.791639 287.181523 
L 308.657081 283.947164 
L 311.618037 304.857961 
L 314.483479 329.728897 
L 317.444435 296.816024 
L 320.405392 295.564533 
L 323.270834 321.373066 
L 326.23179 328.915805 
L 329.097232 337.09203 
L 332.058188 326.347682 
L 335.019145 308.938622 
L 337.693557 304.723843 
L 340.654513 287.342696 
L 343.519955 283.74399 
L 346.480911 282.480094 
L 349.346353 281.944646 
L 352.30731 282.484652 
L 355.268266 307.933592 
L 358.133708 317.672645 
L 363.960106 334.943403 
L 366.921062 324.451083 
L 369.882019 307.018704 
L 372.556431 302.853996 
L 375.517387 285.259733 
L 378.382829 294.418728 
L 381.343786 343.374439 
L 384.209227 296.75201 
L 387.170184 317.631631 
L 390.13114 333.837766 
L 392.996582 320.887336 
L 395.957538 328.881529 
L 398.82298 337.321487 
L 401.783936 329.810362 
L 404.744893 311.186259 
L 407.419305 305.082969 
L 410.380262 286.174201 
L 413.245703 283.879409 
L 416.20666 284.875595 
L 419.072101 282.111683 
L 422.033058 282.397173 
L 424.994014 289.196508 
L 427.859456 314.728605 
L 433.685854 331.915767 
L 436.646811 321.59207 
L 439.607767 304.450593 
L 442.377694 300.35702 
L 445.33865 284.432709 
L 448.204092 282.597377 
L 451.165048 281.737607 
L 454.03049 281.107747 
L 456.991447 342.44418 
L 459.952403 290.188528 
L 462.817845 314.89505 
L 468.644243 331.647351 
L 471.605199 320.905944 
L 474.566156 303.623221 
L 477.240568 299.412716 
L 480.201524 283.780593 
L 483.066966 283.054729 
L 486.027923 281.257013 
L 488.893364 280.741524 
L 491.854321 288.974263 
L 494.815277 302.895101 
L 497.680719 313.558368 
L 503.507117 330.350893 
L 506.468073 319.632374 
L 509.42903 302.387302 
L 512.103442 298.194036 
L 515.064399 283.212392 
L 517.92984 281.595083 
L 520.890797 280.725292 
L 523.756238 280.341048 
L 526.717195 284.150829 
L 529.678151 285.995247 
L 532.543593 311.625247 
L 538.369991 329.082767 
L 541.330948 318.577009 
L 544.291904 301.347973 
L 546.966316 297.176958 
L 549.927273 282.623044 
L 552.792714 281.091394 
L 555.753671 280.277699 
L 558.619113 280.46333 
L 561.580069 280.054403 
L 564.541025 285.123105 
L 567.406467 310.806318 
L 573.232865 328.303347 
L 576.193822 317.808784 
L 579.154778 300.570731 
L 581.924705 296.381528 
L 584.885662 282.13131 
L 587.751103 280.659167 
L 590.71206 284.711735 
L 593.577501 287.590645 
L 596.538458 298.317352 
L 599.499414 285.468722 
L 602.364856 313.854174 
L 605.325812 319.708999 
L 608.191254 327.939537 
L 611.15221 317.353735 
L 614.113167 300.074611 
L 616.787579 295.881557 
L 619.748536 281.780823 
L 622.613977 280.373036 
L 625.574934 279.760893 
L 628.440375 279.337858 
L 631.401332 282.969487 
L 634.362288 284.0051 
L 637.22773 309.54292 
L 643.054128 326.998743 
L 646.015085 316.532165 
L 648.976041 299.304738 
L 651.650453 295.154973 
L 654.61141 281.364651 
L 657.476851 280.700392 
L 660.437808 342.238376 
L 663.30325 281.251521 
L 666.264206 282.139307 
L 669.225162 290.471782 
L 672.090604 314.194794 
L 675.051561 319.123466 
L 677.917002 327.243296 
L 680.877959 316.565711 
L 683.838915 299.267222 
L 686.513327 295.065677 
L 689.474284 281.404647 
L 692.339726 280.1067 
L 695.300682 279.416925 
L 698.166124 308.700088 
L 701.12708 319.437037 
L 704.088037 285.646788 
L 706.953478 310.21415 
L 709.914435 320.503228 
L 712.779876 326.863522 
L 715.740833 316.187164 
L 718.701789 298.933553 
L 721.471716 294.743833 
L 724.432673 281.301021 
L 727.298114 283.049829 
L 730.259071 279.433059 
L 733.124513 279.168166 
L 736.085469 279.137365 
L 739.046425 283.372522 
L 741.911867 308.119429 
L 747.738265 325.40444 
L 750.699222 314.917831 
L 753.660178 297.745493 
L 756.33459 293.647426 
L 759.295547 280.704181 
L 762.160988 279.619404 
L 765.121945 305.104952 
L 767.987387 279.285858 
L 770.948343 283.55111 
L 773.909299 282.674979 
L 776.774741 307.729217 
L 782.601139 324.909915 
L 785.562096 314.429134 
L 788.523052 297.247787 
L 791.197464 293.146153 
L 794.158421 280.402276 
L 797.023863 279.392351 
L 799.984819 284.379839 
L 802.850261 296.975949 
L 805.811217 279.203207 
L 808.772174 282.230464 
L 811.637615 316.209825 
L 814.598572 316.32659 
L 817.464013 324.604419 
L 820.42497 314.088232 
L 823.385926 296.894306 
L 826.060339 292.781051 
L 829.021295 327.523956 
L 831.886737 280.558805 
L 834.847693 279.495388 
L 837.713135 279.032312 
L 843.635048 339.343614 
L 846.500489 310.891542 
L 849.461446 323.340659 
L 852.326888 326.39301 
L 855.287844 315.430906 
L 858.2488 298.09018 
L 861.018727 293.786926 
L 863.979684 326.151064 
L 866.845126 281.098764 
L 869.806082 280.24913 
L 872.671524 279.866705 
L 875.642041 307.969908 
L 878.602997 338.185922 
L 881.468392 310.827151 
L 884.429349 322.95794 
L 887.294791 326.363224 
L 890.255747 315.449744 
L 893.216703 298.255805 
L 895.891116 294.052712 
L 898.852072 325.291995 
L 901.717514 281.284954 
L 904.67847 280.513777 
L 907.543912 280.188358 
L 910.504868 307.319998 
L 913.465825 337.369638 
L 916.331266 310.499194 
L 919.292223 322.485256 
L 922.157665 326.036385 
L 925.118621 315.192449 
L 928.079577 298.090167 
L 930.75399 293.950529 
L 933.714946 324.644559 
L 936.580388 281.310627 
L 939.541344 280.600192 
L 942.406786 280.308929 
L 945.367742 306.772068 
L 948.328699 336.671571 
L 951.194141 310.170723 
L 954.155097 321.93549 
L 957.020539 325.714118 
L 959.981495 314.8951 
L 962.942452 297.867779 
L 965.616864 293.758118 
L 968.57782 324.090335 
L 971.443262 322.402354 
L 974.404218 332.995428 
L 977.26966 315.341979 
L 980.230617 321.623667 
L 983.191573 308.583235 
L 986.057015 304.877458 
L 989.017971 309.29893 
L 991.883413 305.377909 
L 994.844369 302.921248 
L 997.805326 314.698546 
L 1000.575253 293.126833 
L 1003.536209 292.034243 
L 1006.401651 300.494892 
L 1009.362607 296.394713 
L 1012.228049 288.805784 
L 1015.189005 320.382037 
L 1018.149962 314.524297 
L 1021.015404 303.220311 
L 1023.97636 333.352194 
L 1026.841802 288.63125 
L 1029.802758 313.508967 
L 1032.763715 293.896975 
L 1035.438127 295.9193 
L 1038.399083 291.68935 
L 1041.264525 315.17382 
L 1044.225481 289.773743 
L 1047.090923 320.462566 
L 1050.05188 306.728642 
L 1053.003322 287.151889 
L 1055.868763 316.727337 
L 1058.82972 304.664242 
L 1061.695162 324.571599 
L 1064.656118 310.880124 
L 1067.617074 301.364486 
L 1070.291487 317.029144 
L 1073.252443 293.38027 
L 1073.252443 293.38027 
" style="fill:none;stroke:#8c564b;stroke-linecap:square;stroke-width:1.5;"/>
   </g>
   <g id="line2d_37">
    <path clip-path="url(#p73e4df83db)" d="M 99.288807 276.859297 
L 145.899992 277.003807 
L 267.872294 277.174383 
L 1058.82972 277.343956 
L 1073.252443 277.359422 
L 1073.252443 277.359422 
" style="fill:none;stroke:#e377c2;stroke-linecap:square;stroke-width:1.5;"/>
   </g>
   <g id="line2d_38">
    <path clip-path="url(#p73e4df83db)" d="M 99.288807 286.319846 
L 102.249763 285.998897 
L 113.90256 285.930224 
L 221.547653 286.016546 
L 241.796774 286.059448 
L 323.270834 286.077696 
L 335.019145 286.092024 
L 337.693557 286.254715 
L 378.382829 286.264034 
L 404.744893 286.394091 
L 407.419305 287.861595 
L 430.820412 287.805995 
L 439.607767 287.813302 
L 442.377694 288.016622 
L 468.644243 288.030765 
L 471.605199 288.197131 
L 503.507117 288.194872 
L 506.468073 289.51294 
L 509.42903 289.381487 
L 512.103442 288.830423 
L 520.890797 288.716935 
L 529.678151 288.791666 
L 544.291904 288.856478 
L 637.22773 288.844923 
L 651.650453 288.882293 
L 666.264206 288.817461 
L 689.474284 288.869234 
L 698.166124 288.841506 
L 704.088037 288.848435 
L 718.701789 288.919151 
L 730.259071 288.836074 
L 733.124513 289.35184 
L 739.046425 289.373621 
L 744.872824 289.09492 
L 759.295547 289.035712 
L 770.948343 288.999725 
L 797.023863 289.020225 
L 808.772174 289.020118 
L 817.464013 289.12427 
L 831.886737 289.03598 
L 837.713135 289.000138 
L 843.635048 289.153392 
L 846.500489 289.086823 
L 855.287844 289.147209 
L 875.642041 289.099776 
L 878.602997 289.173106 
L 881.468392 289.104004 
L 890.255747 289.164317 
L 910.504868 289.11734 
L 913.465825 289.190783 
L 916.331266 289.120829 
L 925.118621 289.181334 
L 945.367742 289.134575 
L 948.328699 289.208791 
L 951.194141 289.138638 
L 959.981495 289.199948 
L 968.57782 289.251694 
L 1058.82972 289.193794 
L 1064.656118 289.231338 
L 1073.252443 289.16054 
L 1073.252443 289.16054 
" style="fill:none;stroke:#7f7f7f;stroke-linecap:square;stroke-width:1.5;"/>
   </g>
   <g id="line2d_39">
    <path clip-path="url(#p73e4df83db)" d="M 99.288807 303.301107 
L 102.249763 303.478357 
L 105.115205 304.007626 
L 108.076161 304.692059 
L 111.037118 305.708936 
L 113.90256 307.147868 
L 119.728958 309.777216 
L 122.689914 310.600576 
L 125.650871 310.891407 
L 128.325283 311.269681 
L 134.151681 310.334645 
L 137.112637 309.749472 
L 139.978079 309.661231 
L 142.939035 309.885764 
L 145.899992 310.496274 
L 154.591832 313.883068 
L 157.552788 314.55965 
L 160.513745 314.671547 
L 163.283672 314.947576 
L 172.071026 312.867232 
L 174.936468 312.665305 
L 177.897424 312.842001 
L 180.858381 313.463216 
L 186.684779 315.709668 
L 189.550221 316.822929 
L 192.511177 317.475516 
L 198.146546 317.70938 
L 206.9339 315.442924 
L 209.799342 316.700773 
L 212.760298 316.363818 
L 215.721255 318.940537 
L 218.586697 319.506306 
L 221.547653 318.913139 
L 224.413095 320.481083 
L 227.374051 314.945487 
L 230.335008 315.956307 
L 233.00942 318.86912 
L 235.970376 320.497358 
L 238.835818 321.157264 
L 244.662216 320.218497 
L 247.623173 319.995297 
L 250.584129 320.294524 
L 253.449571 321.423817 
L 259.275969 323.475279 
L 262.236925 323.998942 
L 267.872294 323.798494 
L 276.659649 320.930533 
L 279.52509 320.625885 
L 282.486047 320.606124 
L 285.447003 321.197703 
L 294.138843 324.742261 
L 297.099799 325.225004 
L 300.060756 325.129218 
L 302.830683 325.208285 
L 305.791639 324.158027 
L 311.618037 322.535526 
L 314.483479 322.830387 
L 317.444435 322.660071 
L 320.405392 322.894928 
L 326.23179 325.638434 
L 329.097232 326.656926 
L 332.058188 327.117084 
L 337.693557 326.989147 
L 343.519955 325.033676 
L 346.480911 323.976058 
L 349.346353 323.669174 
L 352.30731 323.658938 
L 355.268266 324.341889 
L 358.133708 325.423838 
L 361.094664 326.416916 
L 363.960106 327.555168 
L 366.921062 328.050653 
L 372.556431 327.916876 
L 378.382829 326.205465 
L 381.343786 325.973878 
L 384.209227 325.432129 
L 387.170184 325.885705 
L 390.13114 326.698468 
L 395.957538 328.711198 
L 398.82298 329.393876 
L 401.783936 327.228223 
L 404.744893 327.597192 
L 407.419305 328.846278 
L 410.380262 330.104345 
L 416.20666 327.549639 
L 419.072101 327.004113 
L 422.033058 326.898526 
L 424.994014 327.390484 
L 430.820412 329.750643 
L 433.685854 330.734629 
L 436.646811 331.034786 
L 442.377694 330.745187 
L 445.33865 329.64914 
L 448.204092 328.3978 
L 451.165048 327.323915 
L 454.03049 326.936429 
L 456.991447 327.552486 
L 459.952403 327.932934 
L 462.817845 329.115546 
L 465.778801 330.156264 
L 468.644243 331.290461 
L 471.605199 331.734409 
L 474.566156 331.558655 
L 477.240568 331.546529 
L 486.027923 328.278549 
L 488.893364 327.870322 
L 491.854321 327.954815 
L 494.815277 328.563059 
L 497.680719 329.715885 
L 503.507117 331.908595 
L 506.468073 332.222522 
L 509.42903 331.948465 
L 512.103442 331.890442 
L 520.890797 328.543104 
L 523.756238 328.119716 
L 526.717195 328.154744 
L 529.678151 328.589459 
L 532.543593 329.771273 
L 535.504549 330.815101 
L 538.369991 331.952268 
L 541.330948 332.402103 
L 544.291904 332.222698 
L 546.966316 332.212245 
L 555.753671 328.92718 
L 558.619113 328.547089 
L 561.580069 328.523436 
L 564.541025 328.977637 
L 567.406467 330.173755 
L 573.232865 332.378009 
L 576.193822 332.835626 
L 579.154778 332.658088 
L 581.924705 332.652759 
L 590.71206 329.436428 
L 593.577501 329.129973 
L 596.538458 329.289445 
L 599.499414 329.706717 
L 602.364856 330.9524 
L 605.325812 331.99455 
L 608.191254 333.143842 
L 611.15221 333.566925 
L 614.113167 333.372548 
L 616.787579 333.350216 
L 625.574934 329.999298 
L 628.440375 329.580083 
L 631.401332 329.614037 
L 634.362288 330.059246 
L 637.22773 331.262964 
L 643.054128 333.480061 
L 646.015085 333.909752 
L 648.976041 333.721121 
L 651.650453 333.703748 
L 657.476851 331.511478 
L 663.30325 330.455019 
L 666.264206 330.461798 
L 669.225162 330.995597 
L 672.090604 332.246944 
L 677.917002 334.4167 
L 680.877959 334.822122 
L 683.838915 334.605812 
L 686.513327 334.563858 
L 695.300682 331.109431 
L 698.166124 331.008322 
L 704.088037 331.707111 
L 706.953478 332.911151 
L 712.779876 335.100328 
L 715.740833 335.498484 
L 718.701789 335.264948 
L 721.471716 335.213698 
L 730.259071 331.740114 
L 733.124513 331.290479 
L 736.085469 331.240326 
L 739.046425 331.704012 
L 741.911867 332.920701 
L 747.738265 335.116075 
L 750.699222 335.539939 
L 753.660178 335.321111 
L 756.33459 335.282444 
L 762.160988 332.99389 
L 765.121945 332.11903 
L 767.987387 331.616555 
L 770.948343 331.654347 
L 773.909299 332.092372 
L 776.774741 333.319314 
L 782.601139 335.530395 
L 785.562096 335.94073 
L 788.523052 335.715099 
L 791.197464 335.671708 
L 797.023863 333.362899 
L 799.984819 332.256927 
L 802.850261 332.009246 
L 805.811217 331.928169 
L 808.772174 332.379101 
L 811.637615 333.726145 
L 814.598572 334.764374 
L 817.464013 335.907733 
L 820.42497 336.316266 
L 823.385926 336.084526 
L 826.060339 336.039004 
L 829.021295 335.358427 
L 834.847693 332.871476 
L 837.713135 332.414968 
L 840.674091 332.73065 
L 843.635048 333.754963 
L 852.326888 337.144941 
L 855.287844 337.507142 
L 858.2488 337.219245 
L 861.018727 337.13356 
L 863.979684 336.397408 
L 869.806082 333.812405 
L 872.671524 333.311655 
L 875.642041 333.614002 
L 878.602997 334.633092 
L 887.294791 337.991675 
L 890.255747 338.324753 
L 893.216703 338.006553 
L 895.891116 337.901295 
L 898.852072 337.137539 
L 904.67847 334.502619 
L 907.543912 333.986081 
L 910.504868 334.28027 
L 913.465825 335.295644 
L 919.292223 337.572777 
L 922.157665 338.649602 
L 925.118621 338.96809 
L 928.079577 338.635487 
L 930.75399 338.520926 
L 933.714946 337.747081 
L 939.541344 335.078096 
L 942.406786 334.556217 
L 945.367742 334.846549 
L 948.328699 335.878146 
L 954.155097 338.146781 
L 957.020539 339.218359 
L 959.981495 339.540068 
L 962.942452 339.194618 
L 965.616864 339.075115 
L 968.57782 338.291862 
L 971.443262 338.14259 
L 974.404218 338.574699 
L 977.26966 338.033018 
L 980.230617 338.207269 
L 983.191573 337.624943 
L 986.057015 337.197482 
L 989.017971 337.168024 
L 994.844369 336.535017 
L 997.805326 336.897976 
L 1000.575253 335.74711 
L 1003.536209 335.131564 
L 1006.401651 335.212407 
L 1009.362607 334.832428 
L 1012.228049 333.929819 
L 1015.189005 335.033859 
L 1018.149962 335.208662 
L 1021.015404 334.951925 
L 1023.97636 335.960597 
L 1026.841802 334.181684 
L 1029.802758 335.086383 
L 1032.763715 334.274553 
L 1035.438127 334.150096 
L 1038.399083 333.592896 
L 1041.264525 334.392548 
L 1044.225481 333.264261 
L 1047.090923 334.317745 
L 1050.05188 334.262093 
L 1053.003322 332.867831 
L 1055.868763 333.95633 
L 1058.82972 333.902157 
L 1061.695162 334.608547 
L 1064.656118 334.625004 
L 1067.617074 334.408307 
L 1070.291487 334.915407 
L 1073.252443 334.008501 
L 1073.252443 334.008501 
" style="fill:none;stroke:#bcbd22;stroke-linecap:square;stroke-width:1.5;"/>
   </g>
   <g id="line2d_40">
    <path clip-path="url(#p73e4df83db)" d="M 99.288807 276.238878 
L 1073.252443 276.238878 
L 1073.252443 276.238878 
" style="fill:none;stroke:#17becf;stroke-linecap:square;stroke-width:1.5;"/>
   </g>
   <g id="patch_3">
    <path d="M 50.590625 489.283237 
L 50.590625 17.798437 
" style="fill:none;stroke:#000000;stroke-linecap:square;stroke-linejoin:miter;stroke-width:0.8;"/>
   </g>
   <g id="patch_4">
    <path d="M 1121.950625 489.283237 
L 1121.950625 17.798437 
" style="fill:none;stroke:#000000;stroke-linecap:square;stroke-linejoin:miter;stroke-width:0.8;"/>
   </g>
   <g id="patch_5">
    <path d="M 50.590625 489.283237 
L 1121.950625 489.283237 
" style="fill:none;stroke:#000000;stroke-linecap:square;stroke-linejoin:miter;stroke-width:0.8;"/>
   </g>
   <g id="patch_6">
    <path d="M 50.590625 17.798437 
L 1121.950625 17.798437 
" style="fill:none;stroke:#000000;stroke-linecap:square;stroke-linejoin:miter;stroke-width:0.8;"/>
   </g>
   <g id="legend_1">
    <g id="patch_7">
     <path d="M 57.590625 175.360937 
L 203.715625 175.360937 
Q 205.715625 175.360937 205.715625 173.360937 
L 205.715625 24.798437 
Q 205.715625 22.798437 203.715625 22.798437 
L 57.590625 22.798437 
Q 55.590625 22.798437 55.590625 24.798437 
L 55.590625 173.360937 
Q 55.590625 175.360937 57.590625 175.360937 
z
" style="fill:#ffffff;opacity:0.8;stroke:#cccccc;stroke-linejoin:miter;"/>
    </g>
    <g id="line2d_41">
     <path d="M 59.590625 30.896875 
L 79.590625 30.896875 
" style="fill:none;stroke:#1f77b4;stroke-linecap:square;stroke-width:1.5;"/>
    </g>
    <g id="line2d_42"/>
    <g id="text_18">
     <!-- STORAGE_IN -->
     <defs>
      <path d="M 53.515625 70.515625 
L 53.515625 60.890625 
Q 47.90625 63.578125 42.921875 64.890625 
Q 37.9375 66.21875 33.296875 66.21875 
Q 25.25 66.21875 20.875 63.09375 
Q 16.5 59.96875 16.5 54.203125 
Q 16.5 49.359375 19.40625 46.890625 
Q 22.3125 44.4375 30.421875 42.921875 
L 36.375 41.703125 
Q 47.40625 39.59375 52.65625 34.296875 
Q 57.90625 29 57.90625 20.125 
Q 57.90625 9.515625 50.796875 4.046875 
Q 43.703125 -1.421875 29.984375 -1.421875 
Q 24.8125 -1.421875 18.96875 -0.25 
Q 13.140625 0.921875 6.890625 3.21875 
L 6.890625 13.375 
Q 12.890625 10.015625 18.65625 8.296875 
Q 24.421875 6.59375 29.984375 6.59375 
Q 38.421875 6.59375 43.015625 9.90625 
Q 47.609375 13.234375 47.609375 19.390625 
Q 47.609375 24.75 44.3125 27.78125 
Q 41.015625 30.8125 33.5 32.328125 
L 27.484375 33.5 
Q 16.453125 35.6875 11.515625 40.375 
Q 6.59375 45.0625 6.59375 53.421875 
Q 6.59375 63.09375 13.40625 68.65625 
Q 20.21875 74.21875 32.171875 74.21875 
Q 37.3125 74.21875 42.625 73.28125 
Q 47.953125 72.359375 53.515625 70.515625 
z
" id="DejaVuSans-83"/>
      <path d="M -0.296875 72.90625 
L 61.375 72.90625 
L 61.375 64.59375 
L 35.5 64.59375 
L 35.5 0 
L 25.59375 0 
L 25.59375 64.59375 
L -0.296875 64.59375 
z
" id="DejaVuSans-84"/>
      <path d="M 39.40625 66.21875 
Q 28.65625 66.21875 22.328125 58.203125 
Q 16.015625 50.203125 16.015625 36.375 
Q 16.015625 22.609375 22.328125 14.59375 
Q 28.65625 6.59375 39.40625 6.59375 
Q 50.140625 6.59375 56.421875 14.59375 
Q 62.703125 22.609375 62.703125 36.375 
Q 62.703125 50.203125 56.421875 58.203125 
Q 50.140625 66.21875 39.40625 66.21875 
z
M 39.40625 74.21875 
Q 54.734375 74.21875 63.90625 63.9375 
Q 73.09375 53.65625 73.09375 36.375 
Q 73.09375 19.140625 63.90625 8.859375 
Q 54.734375 -1.421875 39.40625 -1.421875 
Q 24.03125 -1.421875 14.8125 8.828125 
Q 5.609375 19.09375 5.609375 36.375 
Q 5.609375 53.65625 14.8125 63.9375 
Q 24.03125 74.21875 39.40625 74.21875 
z
" id="DejaVuSans-79"/>
      <path d="M 44.390625 34.1875 
Q 47.5625 33.109375 50.5625 29.59375 
Q 53.5625 26.078125 56.59375 19.921875 
L 66.609375 0 
L 56 0 
L 46.6875 18.703125 
Q 43.0625 26.03125 39.671875 28.421875 
Q 36.28125 30.8125 30.421875 30.8125 
L 19.671875 30.8125 
L 19.671875 0 
L 9.8125 0 
L 9.8125 72.90625 
L 32.078125 72.90625 
Q 44.578125 72.90625 50.734375 67.671875 
Q 56.890625 62.453125 56.890625 51.90625 
Q 56.890625 45.015625 53.6875 40.46875 
Q 50.484375 35.9375 44.390625 34.1875 
z
M 19.671875 64.796875 
L 19.671875 38.921875 
L 32.078125 38.921875 
Q 39.203125 38.921875 42.84375 42.21875 
Q 46.484375 45.515625 46.484375 51.90625 
Q 46.484375 58.296875 42.84375 61.546875 
Q 39.203125 64.796875 32.078125 64.796875 
z
" id="DejaVuSans-82"/>
      <path d="M 34.1875 63.1875 
L 20.796875 26.90625 
L 47.609375 26.90625 
z
M 28.609375 72.90625 
L 39.796875 72.90625 
L 67.578125 0 
L 57.328125 0 
L 50.6875 18.703125 
L 17.828125 18.703125 
L 11.1875 0 
L 0.78125 0 
z
" id="DejaVuSans-65"/>
      <path d="M 59.515625 10.40625 
L 59.515625 29.984375 
L 43.40625 29.984375 
L 43.40625 38.09375 
L 69.28125 38.09375 
L 69.28125 6.78125 
Q 63.578125 2.734375 56.6875 0.65625 
Q 49.8125 -1.421875 42 -1.421875 
Q 24.90625 -1.421875 15.25 8.5625 
Q 5.609375 18.5625 5.609375 36.375 
Q 5.609375 54.25 15.25 64.234375 
Q 24.90625 74.21875 42 74.21875 
Q 49.125 74.21875 55.546875 72.453125 
Q 61.96875 70.703125 67.390625 67.28125 
L 67.390625 56.78125 
Q 61.921875 61.421875 55.765625 63.765625 
Q 49.609375 66.109375 42.828125 66.109375 
Q 29.4375 66.109375 22.71875 58.640625 
Q 16.015625 51.171875 16.015625 36.375 
Q 16.015625 21.625 22.71875 14.15625 
Q 29.4375 6.6875 42.828125 6.6875 
Q 48.046875 6.6875 52.140625 7.59375 
Q 56.25 8.5 59.515625 10.40625 
z
" id="DejaVuSans-71"/>
      <path d="M 9.8125 72.90625 
L 55.90625 72.90625 
L 55.90625 64.59375 
L 19.671875 64.59375 
L 19.671875 43.015625 
L 54.390625 43.015625 
L 54.390625 34.71875 
L 19.671875 34.71875 
L 19.671875 8.296875 
L 56.78125 8.296875 
L 56.78125 0 
L 9.8125 0 
z
" id="DejaVuSans-69"/>
      <path d="M 50.984375 -16.609375 
L 50.984375 -23.578125 
L -0.984375 -23.578125 
L -0.984375 -16.609375 
z
" id="DejaVuSans-95"/>
      <path d="M 9.8125 72.90625 
L 19.671875 72.90625 
L 19.671875 0 
L 9.8125 0 
z
" id="DejaVuSans-73"/>
      <path d="M 9.8125 72.90625 
L 23.09375 72.90625 
L 55.421875 11.921875 
L 55.421875 72.90625 
L 64.984375 72.90625 
L 64.984375 0 
L 51.703125 0 
L 19.390625 60.984375 
L 19.390625 0 
L 9.8125 0 
z
" id="DejaVuSans-78"/>
     </defs>
     <g transform="translate(87.590625 34.396875)scale(0.1 -0.1)">
      <use xlink:href="#DejaVuSans-83"/>
      <use x="63.476562" xlink:href="#DejaVuSans-84"/>
      <use x="124.560547" xlink:href="#DejaVuSans-79"/>
      <use x="203.271484" xlink:href="#DejaVuSans-82"/>
      <use x="268.753906" xlink:href="#DejaVuSans-65"/>
      <use x="335.412109" xlink:href="#DejaVuSans-71"/>
      <use x="412.902344" xlink:href="#DejaVuSans-69"/>
      <use x="476.085938" xlink:href="#DejaVuSans-95"/>
      <use x="526.085938" xlink:href="#DejaVuSans-73"/>
      <use x="555.578125" xlink:href="#DejaVuSans-78"/>
     </g>
    </g>
    <g id="line2d_43">
     <path d="M 59.590625 45.853125 
L 79.590625 45.853125 
" style="fill:none;stroke:#ff7f0e;stroke-linecap:square;stroke-width:1.5;"/>
    </g>
    <g id="line2d_44"/>
    <g id="text_19">
     <!-- CONSTANT_HEAD_IN -->
     <defs>
      <path d="M 64.40625 67.28125 
L 64.40625 56.890625 
Q 59.421875 61.53125 53.78125 63.8125 
Q 48.140625 66.109375 41.796875 66.109375 
Q 29.296875 66.109375 22.65625 58.46875 
Q 16.015625 50.828125 16.015625 36.375 
Q 16.015625 21.96875 22.65625 14.328125 
Q 29.296875 6.6875 41.796875 6.6875 
Q 48.140625 6.6875 53.78125 8.984375 
Q 59.421875 11.28125 64.40625 15.921875 
L 64.40625 5.609375 
Q 59.234375 2.09375 53.4375 0.328125 
Q 47.65625 -1.421875 41.21875 -1.421875 
Q 24.65625 -1.421875 15.125 8.703125 
Q 5.609375 18.84375 5.609375 36.375 
Q 5.609375 53.953125 15.125 64.078125 
Q 24.65625 74.21875 41.21875 74.21875 
Q 47.75 74.21875 53.53125 72.484375 
Q 59.328125 70.75 64.40625 67.28125 
z
" id="DejaVuSans-67"/>
      <path d="M 9.8125 72.90625 
L 19.671875 72.90625 
L 19.671875 43.015625 
L 55.515625 43.015625 
L 55.515625 72.90625 
L 65.375 72.90625 
L 65.375 0 
L 55.515625 0 
L 55.515625 34.71875 
L 19.671875 34.71875 
L 19.671875 0 
L 9.8125 0 
z
" id="DejaVuSans-72"/>
      <path d="M 19.671875 64.796875 
L 19.671875 8.109375 
L 31.59375 8.109375 
Q 46.6875 8.109375 53.6875 14.9375 
Q 60.6875 21.78125 60.6875 36.53125 
Q 60.6875 51.171875 53.6875 57.984375 
Q 46.6875 64.796875 31.59375 64.796875 
z
M 9.8125 72.90625 
L 30.078125 72.90625 
Q 51.265625 72.90625 61.171875 64.09375 
Q 71.09375 55.28125 71.09375 36.53125 
Q 71.09375 17.671875 61.125 8.828125 
Q 51.171875 0 30.078125 0 
L 9.8125 0 
z
" id="DejaVuSans-68"/>
     </defs>
     <g transform="translate(87.590625 49.353125)scale(0.1 -0.1)">
      <use xlink:href="#DejaVuSans-67"/>
      <use x="69.824219" xlink:href="#DejaVuSans-79"/>
      <use x="148.535156" xlink:href="#DejaVuSans-78"/>
      <use x="223.339844" xlink:href="#DejaVuSans-83"/>
      <use x="286.816406" xlink:href="#DejaVuSans-84"/>
      <use x="340.150391" xlink:href="#DejaVuSans-65"/>
      <use x="408.558594" xlink:href="#DejaVuSans-78"/>
      <use x="483.363281" xlink:href="#DejaVuSans-84"/>
      <use x="544.447266" xlink:href="#DejaVuSans-95"/>
      <use x="594.447266" xlink:href="#DejaVuSans-72"/>
      <use x="669.642578" xlink:href="#DejaVuSans-69"/>
      <use x="732.826172" xlink:href="#DejaVuSans-65"/>
      <use x="801.234375" xlink:href="#DejaVuSans-68"/>
      <use x="878.236328" xlink:href="#DejaVuSans-95"/>
      <use x="928.236328" xlink:href="#DejaVuSans-73"/>
      <use x="957.728516" xlink:href="#DejaVuSans-78"/>
     </g>
    </g>
    <g id="line2d_45">
     <path d="M 59.590625 60.809375 
L 79.590625 60.809375 
" style="fill:none;stroke:#2ca02c;stroke-linecap:square;stroke-width:1.5;"/>
    </g>
    <g id="line2d_46"/>
    <g id="text_20">
     <!-- WELLS_IN -->
     <defs>
      <path d="M 3.328125 72.90625 
L 13.28125 72.90625 
L 28.609375 11.28125 
L 43.890625 72.90625 
L 54.984375 72.90625 
L 70.3125 11.28125 
L 85.59375 72.90625 
L 95.609375 72.90625 
L 77.296875 0 
L 64.890625 0 
L 49.515625 63.28125 
L 33.984375 0 
L 21.578125 0 
z
" id="DejaVuSans-87"/>
      <path d="M 9.8125 72.90625 
L 19.671875 72.90625 
L 19.671875 8.296875 
L 55.171875 8.296875 
L 55.171875 0 
L 9.8125 0 
z
" id="DejaVuSans-76"/>
     </defs>
     <g transform="translate(87.590625 64.309375)scale(0.1 -0.1)">
      <use xlink:href="#DejaVuSans-87"/>
      <use x="98.876953" xlink:href="#DejaVuSans-69"/>
      <use x="162.060547" xlink:href="#DejaVuSans-76"/>
      <use x="217.773438" xlink:href="#DejaVuSans-76"/>
      <use x="273.486328" xlink:href="#DejaVuSans-83"/>
      <use x="336.962891" xlink:href="#DejaVuSans-95"/>
      <use x="386.962891" xlink:href="#DejaVuSans-73"/>
      <use x="416.455078" xlink:href="#DejaVuSans-78"/>
     </g>
    </g>
    <g id="line2d_47">
     <path d="M 59.590625 75.765625 
L 79.590625 75.765625 
" style="fill:none;stroke:#d62728;stroke-linecap:square;stroke-width:1.5;"/>
    </g>
    <g id="line2d_48"/>
    <g id="text_21">
     <!-- RIVER_LEAKAGE_IN -->
     <defs>
      <path d="M 28.609375 0 
L 0.78125 72.90625 
L 11.078125 72.90625 
L 34.1875 11.53125 
L 57.328125 72.90625 
L 67.578125 72.90625 
L 39.796875 0 
z
" id="DejaVuSans-86"/>
      <path d="M 9.8125 72.90625 
L 19.671875 72.90625 
L 19.671875 42.09375 
L 52.390625 72.90625 
L 65.09375 72.90625 
L 28.90625 38.921875 
L 67.671875 0 
L 54.6875 0 
L 19.671875 35.109375 
L 19.671875 0 
L 9.8125 0 
z
" id="DejaVuSans-75"/>
     </defs>
     <g transform="translate(87.590625 79.265625)scale(0.1 -0.1)">
      <use xlink:href="#DejaVuSans-82"/>
      <use x="69.482422" xlink:href="#DejaVuSans-73"/>
      <use x="98.974609" xlink:href="#DejaVuSans-86"/>
      <use x="167.382812" xlink:href="#DejaVuSans-69"/>
      <use x="230.566406" xlink:href="#DejaVuSans-82"/>
      <use x="300.048828" xlink:href="#DejaVuSans-95"/>
      <use x="350.048828" xlink:href="#DejaVuSans-76"/>
      <use x="405.761719" xlink:href="#DejaVuSans-69"/>
      <use x="468.945312" xlink:href="#DejaVuSans-65"/>
      <use x="537.353516" xlink:href="#DejaVuSans-75"/>
      <use x="601.179688" xlink:href="#DejaVuSans-65"/>
      <use x="667.837891" xlink:href="#DejaVuSans-71"/>
      <use x="745.328125" xlink:href="#DejaVuSans-69"/>
      <use x="808.511719" xlink:href="#DejaVuSans-95"/>
      <use x="858.511719" xlink:href="#DejaVuSans-73"/>
      <use x="888.003906" xlink:href="#DejaVuSans-78"/>
     </g>
    </g>
    <g id="line2d_49">
     <path d="M 59.590625 90.721875 
L 79.590625 90.721875 
" style="fill:none;stroke:#9467bd;stroke-linecap:square;stroke-width:1.5;"/>
    </g>
    <g id="line2d_50"/>
    <g id="text_22">
     <!-- RECHARGE_IN -->
     <g transform="translate(87.590625 94.221875)scale(0.1 -0.1)">
      <use xlink:href="#DejaVuSans-82"/>
      <use x="69.482422" xlink:href="#DejaVuSans-69"/>
      <use x="132.666016" xlink:href="#DejaVuSans-67"/>
      <use x="202.490234" xlink:href="#DejaVuSans-72"/>
      <use x="277.685547" xlink:href="#DejaVuSans-65"/>
      <use x="346.09375" xlink:href="#DejaVuSans-82"/>
      <use x="415.576172" xlink:href="#DejaVuSans-71"/>
      <use x="493.066406" xlink:href="#DejaVuSans-69"/>
      <use x="556.25" xlink:href="#DejaVuSans-95"/>
      <use x="606.25" xlink:href="#DejaVuSans-73"/>
      <use x="635.742188" xlink:href="#DejaVuSans-78"/>
     </g>
    </g>
    <g id="line2d_51">
     <path d="M 59.590625 105.678125 
L 79.590625 105.678125 
" style="fill:none;stroke:#8c564b;stroke-linecap:square;stroke-width:1.5;"/>
    </g>
    <g id="line2d_52"/>
    <g id="text_23">
     <!-- STORAGE_OUT -->
     <defs>
      <path d="M 8.6875 72.90625 
L 18.609375 72.90625 
L 18.609375 28.609375 
Q 18.609375 16.890625 22.84375 11.734375 
Q 27.09375 6.59375 36.625 6.59375 
Q 46.09375 6.59375 50.34375 11.734375 
Q 54.59375 16.890625 54.59375 28.609375 
L 54.59375 72.90625 
L 64.5 72.90625 
L 64.5 27.390625 
Q 64.5 13.140625 57.4375 5.859375 
Q 50.390625 -1.421875 36.625 -1.421875 
Q 22.796875 -1.421875 15.734375 5.859375 
Q 8.6875 13.140625 8.6875 27.390625 
z
" id="DejaVuSans-85"/>
     </defs>
     <g transform="translate(87.590625 109.178125)scale(0.1 -0.1)">
      <use xlink:href="#DejaVuSans-83"/>
      <use x="63.476562" xlink:href="#DejaVuSans-84"/>
      <use x="124.560547" xlink:href="#DejaVuSans-79"/>
      <use x="203.271484" xlink:href="#DejaVuSans-82"/>
      <use x="268.753906" xlink:href="#DejaVuSans-65"/>
      <use x="335.412109" xlink:href="#DejaVuSans-71"/>
      <use x="412.902344" xlink:href="#DejaVuSans-69"/>
      <use x="476.085938" xlink:href="#DejaVuSans-95"/>
      <use x="526.085938" xlink:href="#DejaVuSans-79"/>
      <use x="604.796875" xlink:href="#DejaVuSans-85"/>
      <use x="677.990234" xlink:href="#DejaVuSans-84"/>
     </g>
    </g>
    <g id="line2d_53">
     <path d="M 59.590625 120.634375 
L 79.590625 120.634375 
" style="fill:none;stroke:#e377c2;stroke-linecap:square;stroke-width:1.5;"/>
    </g>
    <g id="line2d_54"/>
    <g id="text_24">
     <!-- CONSTANT_HEAD_OUT -->
     <g transform="translate(87.590625 124.134375)scale(0.1 -0.1)">
      <use xlink:href="#DejaVuSans-67"/>
      <use x="69.824219" xlink:href="#DejaVuSans-79"/>
      <use x="148.535156" xlink:href="#DejaVuSans-78"/>
      <use x="223.339844" xlink:href="#DejaVuSans-83"/>
      <use x="286.816406" xlink:href="#DejaVuSans-84"/>
      <use x="340.150391" xlink:href="#DejaVuSans-65"/>
      <use x="408.558594" xlink:href="#DejaVuSans-78"/>
      <use x="483.363281" xlink:href="#DejaVuSans-84"/>
      <use x="544.447266" xlink:href="#DejaVuSans-95"/>
      <use x="594.447266" xlink:href="#DejaVuSans-72"/>
      <use x="669.642578" xlink:href="#DejaVuSans-69"/>
      <use x="732.826172" xlink:href="#DejaVuSans-65"/>
      <use x="801.234375" xlink:href="#DejaVuSans-68"/>
      <use x="878.236328" xlink:href="#DejaVuSans-95"/>
      <use x="928.236328" xlink:href="#DejaVuSans-79"/>
      <use x="1006.947266" xlink:href="#DejaVuSans-85"/>
      <use x="1080.140625" xlink:href="#DejaVuSans-84"/>
     </g>
    </g>
    <g id="line2d_55">
     <path d="M 59.590625 135.590625 
L 79.590625 135.590625 
" style="fill:none;stroke:#7f7f7f;stroke-linecap:square;stroke-width:1.5;"/>
    </g>
    <g id="line2d_56"/>
    <g id="text_25">
     <!-- WELLS_OUT -->
     <g transform="translate(87.590625 139.090625)scale(0.1 -0.1)">
      <use xlink:href="#DejaVuSans-87"/>
      <use x="98.876953" xlink:href="#DejaVuSans-69"/>
      <use x="162.060547" xlink:href="#DejaVuSans-76"/>
      <use x="217.773438" xlink:href="#DejaVuSans-76"/>
      <use x="273.486328" xlink:href="#DejaVuSans-83"/>
      <use x="336.962891" xlink:href="#DejaVuSans-95"/>
      <use x="386.962891" xlink:href="#DejaVuSans-79"/>
      <use x="465.673828" xlink:href="#DejaVuSans-85"/>
      <use x="538.867188" xlink:href="#DejaVuSans-84"/>
     </g>
    </g>
    <g id="line2d_57">
     <path d="M 59.590625 150.546875 
L 79.590625 150.546875 
" style="fill:none;stroke:#bcbd22;stroke-linecap:square;stroke-width:1.5;"/>
    </g>
    <g id="line2d_58"/>
    <g id="text_26">
     <!-- RIVER_LEAKAGE_OUT -->
     <g transform="translate(87.590625 154.046875)scale(0.1 -0.1)">
      <use xlink:href="#DejaVuSans-82"/>
      <use x="69.482422" xlink:href="#DejaVuSans-73"/>
      <use x="98.974609" xlink:href="#DejaVuSans-86"/>
      <use x="167.382812" xlink:href="#DejaVuSans-69"/>
      <use x="230.566406" xlink:href="#DejaVuSans-82"/>
      <use x="300.048828" xlink:href="#DejaVuSans-95"/>
      <use x="350.048828" xlink:href="#DejaVuSans-76"/>
      <use x="405.761719" xlink:href="#DejaVuSans-69"/>
      <use x="468.945312" xlink:href="#DejaVuSans-65"/>
      <use x="537.353516" xlink:href="#DejaVuSans-75"/>
      <use x="601.179688" xlink:href="#DejaVuSans-65"/>
      <use x="667.837891" xlink:href="#DejaVuSans-71"/>
      <use x="745.328125" xlink:href="#DejaVuSans-69"/>
      <use x="808.511719" xlink:href="#DejaVuSans-95"/>
      <use x="858.511719" xlink:href="#DejaVuSans-79"/>
      <use x="937.222656" xlink:href="#DejaVuSans-85"/>
      <use x="1010.416016" xlink:href="#DejaVuSans-84"/>
     </g>
    </g>
    <g id="line2d_59">
     <path d="M 59.590625 165.503125 
L 79.590625 165.503125 
" style="fill:none;stroke:#17becf;stroke-linecap:square;stroke-width:1.5;"/>
    </g>
    <g id="line2d_60"/>
    <g id="text_27">
     <!-- RECHARGE_OUT -->
     <g transform="translate(87.590625 169.003125)scale(0.1 -0.1)">
      <use xlink:href="#DejaVuSans-82"/>
      <use x="69.482422" xlink:href="#DejaVuSans-69"/>
      <use x="132.666016" xlink:href="#DejaVuSans-67"/>
      <use x="202.490234" xlink:href="#DejaVuSans-72"/>
      <use x="277.685547" xlink:href="#DejaVuSans-65"/>
      <use x="346.09375" xlink:href="#DejaVuSans-82"/>
      <use x="415.576172" xlink:href="#DejaVuSans-71"/>
      <use x="493.066406" xlink:href="#DejaVuSans-69"/>
      <use x="556.25" xlink:href="#DejaVuSans-95"/>
      <use x="606.25" xlink:href="#DejaVuSans-79"/>
      <use x="684.960938" xlink:href="#DejaVuSans-85"/>
      <use x="758.154297" xlink:href="#DejaVuSans-84"/>
     </g>
    </g>
   </g>
  </g>
 </g>
 <defs>
  <clipPath id="p73e4df83db">
   <rect height="471.4848" width="1071.36" x="50.590625" y="17.798437"/>
  </clipPath>
 </defs>
</svg>
